{
.appVersion = "3428";
.formatVersion = 3;
customParameters = (
{
name = codePageRanges;
value = (
"1252"
);
},
{
name = fsType;
value = (
);
},
{
name = unicodeRanges;
value = (
0
);
},
{
name = "Use Typo Metrics";
value = 1;
}
);
date = "2024-08-01 10:44:51 +0000";
familyName = Sekuya;
featurePrefixes = (
{
automatic = 1;
code = "languagesystem DFLT dflt;

languagesystem latn dflt;
languagesystem latn AZE;
languagesystem latn CRT;
languagesystem latn KAZ;
languagesystem latn TAT;
languagesystem latn TRK;
languagesystem latn ROM;
languagesystem latn MOL;
languagesystem latn CAT;
";
name = Languagesystems;
},
{
code = "# GPOS 
lookup kernHorizontalKerninglookup0 {
  lookupflag 0;
    pos \\exclam \\ydieresis -15;
    pos \\exclam \\udieresis -15;
    pos \\exclam \\odieresis -46;
    pos \\exclam \\idieresis -61;
    pos \\exclam \\edieresis -15;
    pos \\exclam \\adieresis -21;
    pos \\exclam \\Udieresis -15;
    pos \\exclam \\Odieresis -46;
    pos \\exclam \\Idieresis -61;
    pos \\exclam \\Edieresis -15;
    pos \\exclam \\Adieresis -21;
    pos \\exclam \\pi -35;
    pos \\exclam \\mu -13;
    pos \\exclam \\Omega -17;
    pos \\exclam \\Delta -14;
    pos \\exclam \\hungarumlaut -33;
    pos \\exclam \\tilde -30;
    pos \\exclam \\ring -21;
    pos \\exclam \\dotaccent -21;
    pos \\exclam \\breve -13;
    pos \\exclam \\fourthtonechinese -13;
    pos \\exclam \\caron -13;
    pos \\exclam \\circumflex -33;
    pos \\exclam \\hmod -13;
    pos \\exclam \\tcommaaccent -16;
    pos \\exclam \\Tcommaaccent -16;
    pos \\exclam \\scommaaccent -15;
    pos \\exclam \\Scommaaccent -15;
    pos \\exclam \\oslashacute -61;
    pos \\exclam \\Oslashacute -61;
    pos \\exclam \\aeacute -21;
    pos \\exclam \\AEacute -21;
    pos \\exclam \\florin -61;
    pos \\exclam \\longs -44;
    pos \\exclam \\Ydieresis -15;
    pos \\exclam \\ycircumflex -15;
    pos \\exclam \\Ycircumflex -15;
    pos \\exclam \\wcircumflex -15;
    pos \\exclam \\Wcircumflex -15;

glyphs = (
{
color = 6;
glyphname = A;
lastChange = "2025-11-13 14:46:18 +0000";
layers = (
{
anchors = (
{
name = bottom;
pos = (567,0);
},
{
name = ogonek;
pos = (1021,10);
},
{
name = top;
pos = (567,700);
}
);
background = {
shapes = (
{
closed = 1;
nodes = (
(384,0,l),
(371,9,o),
(365,26,o),
(365,50,cs),
(365,68,o),
(372,91,o),
(385,118,cs),
(386,120,l),
(730,151,l),
(748,118,ls),
(762,93,o),
(769,70,o),
(769,50,cs),
(769,26,o),
(763,9,o),
(750,0,c),
(1109,0,l),
(1066,35,o),
(1022,98,o),
(975,187,cs),
(700,700,l),
(381,700,l),
(394,689,o),
(400,673,o),
(400,652,cs),
(400,643,o),
(393,624,o),
(380,597,cs),
(159,187,ls),
(112,98,o),
(68,35,o),
(25,0,c)
);
},
{
closed = 1;
nodes = (
(566,455,l),
(664,274,l),
(460,255,l)
);
}
);
};
layerId = m001;
shapes = (
{
closed = 1;
nodes = (
(384,0,l),
(371,9,o),
(365,26,o),
(365,50,cs),
(365,68,o),
(372,91,o),
(385,118,c),
(730,151,l),
(748,118,ls),
(762,93,o),
(769,70,o),
(769,50,cs),
(769,26,o),
(763,9,o),
(750,0,c),
(1109,0,l),
(1066,35,o),
(1022,98,o),
(975,187,cs),
(700,700,l),
(381,700,l),
(394,689,o),
(400,673,o),
(400,652,cs),
(400,643,o),
(393,624,o),
(380,597,cs),
(159,187,ls),
(112,98,o),
(68,35,o),
(25,0,c)
);
},
{
closed = 1;
nodes = (
(566,455,l),
(664,274,l),
(460,255,l)
);
}
);
width = 1134;
}
);
unicode = 65;
},
{
color = 10;
glyphname = Aacute;
lastChange = "2025-11-13 14:46:18 +0000";
layers = (
{
background = {
shapes = (
{
closed = 1;
nodes = (
(384,0,l),
(371,9,o),
(365,26,o),
(365,50,cs),
(365,68,o),
(372,91,o),
(385,118,cs),
(386,120,l),
(730,151,l),
(748,118,ls),
(762,93,o),
(769,70,o),
(769,50,cs),
(769,26,o),
(763,9,o),
(750,0,c),
(1109,0,l),
(1066,35,o),
(1022,98,o),
(975,187,cs),
(700,700,l),
(381,700,l),
(394,689,o),
(400,673,o),
(400,652,cs),
(400,643,o),
(393,624,o),
(380,597,cs),
(159,187,ls),
(112,98,o),
(68,35,o),
(25,0,c)
);
},
{
closed = 1;
nodes = (
(566,455,l),
(664,274,l),
(460,255,l)
);
},
{
closed = 1;
nodes = (
(628,750,l),
(659,775,o),
(702,812,o),
(757,860,cs),
(859,948,l),
(553,948,l),
(550,937,o),
(542,915,o),
(538,904,c),
(450,750,l),
(628,750,l),
(659,775,o),
(702,812,o),
(757,860,cs),
(859,948,l),
(553,948,l),
(550,937,o),
(542,915,o),
(538,904,c),
(450,750,l),
(628,750,l),
(659,775,o),
(702,812,o),
(757,860,cs),
(859,948,l),
(553,948,l),
(550,937,o),
(542,915,o),
(538,904,c),
(450,750,l)
);
}
);
};
layerId = m001;
shapes = (
{
ref = A;
},
{
pos = (329,0);
ref = acutecomb;
}
);
width = 1134;
}
);
unicode = 193;
},
{
color = 10;
glyphname = Abreve;
lastChange = "2025-11-13 14:46:18 +0000";
layers = (
{
background = {
shapes = (
{
closed = 1;
nodes = (
(384,0,l),
(371,9,o),
(365,26,o),
(365,50,cs),
(365,68,o),
(372,91,o),
(385,118,cs),
(386,120,l),
(730,151,l),
(748,118,ls),
(762,93,o),
(769,70,o),
(769,50,cs),
(769,26,o),
(763,9,o),
(750,0,c),
(1109,0,l),
(1066,35,o),
(1022,98,o),
(975,187,cs),
(700,700,l),
(381,700,l),
(394,689,o),
(400,673,o),
(400,652,cs),
(400,643,o),
(393,624,o),
(380,597,cs),
(159,187,ls),
(112,98,o),
(68,35,o),
(25,0,c)
);
},
{
closed = 1;
nodes = (
(566,455,l),
(664,274,l),
(460,255,l)
);
},
{
closed = 1;
nodes = (
(613,751,o),
(668,769,o),
(707,806,cs),
(746,843,o),
(766,890,o),
(766,948,cs),
(766,949,l),
(617,949,l),
(618,912,o),
(589,886,o),
(541,886,cs),
(490,886,o),
(466,913,o),
(465,949,c),
(316,949,l),
(317,949,o),
(317,949,o),
(316,948,c),
(317,891,o),
(336,843,o),
(375,807,cs),
(394,790,o),
(417,776,o),
(445,766,cs),
(472,756,o),
(504,751,o),
(541,751,cs)
);
}
);
};
layerId = m001;
shapes = (
{
ref = A;
},
{
pos = (317,0);
ref = brevecomb;
}
);
width = 1134;
}
);
unicode = 258;
},
{
color = 10;
glyphname = Acircumflex;
lastChange = "2025-11-13 14:46:18 +0000";
layers = (
{
background = {
shapes = (
{
closed = 1;
nodes = (
(384,0,l),
(371,9,o),
(365,26,o),
(365,50,cs),
(365,68,o),
(372,91,o),
(385,118,cs),
(386,120,l),
(730,151,l),
(748,118,ls),
(762,93,o),
(769,70,o),
(769,50,cs),
(769,26,o),
(763,9,o),
(750,0,c),
(1109,0,l),
(1066,35,o),
(1022,98,o),
(975,187,cs),
(700,700,l),
(381,700,l),
(394,689,o),
(400,673,o),
(400,652,cs),
(400,643,o),
(393,624,o),
(380,597,cs),
(159,187,ls),
(112,98,o),
(68,35,o),
(25,0,c)
);
},
{
closed = 1;
nodes = (
(566,455,l),
(664,274,l),
(460,255,l)
);
},
{
closed = 1;
nodes = (
(451,751,l),
(497,814,l),
(535,867,l),
(578,808,l),
(619,751,l),
(721,751,l),
(577,948,l),
(493,948,l),
(421,846,l),
(353,751,l),
(451,751,l),
(497,814,l),
(535,867,l),
(578,808,l),
(619,751,l),
(721,751,l),
(577,948,l),
(493,948,l),
(421,846,l),
(353,751,l),
(451,751,l),
(497,814,l),
(535,867,l),
(578,808,l),
(619,751,l),
(721,751,l),
(577,948,l),
(493,948,l),
(421,846,l),
(353,751,l)
);
}
);
};
layerId = m001;
shapes = (
{
ref = A;
},
{
pos = (358,0);
ref = circumflexcomb;
}
);
width = 1134;
}
);
unicode = 194;
},
{
color = 10;
glyphname = Adieresis;
lastChange = "2025-11-13 14:46:18 +0000";
layers = (
{
background = {
shapes = (
{
closed = 1;
nodes = (
(384,0,l),
(371,9,o),
(365,26,o),
(365,50,cs),
(365,68,o),
(372,91,o),
(385,118,cs),
(386,120,l),
(730,151,l),
(748,118,ls),
(762,93,o),
(769,70,o),
(769,50,cs),
(769,26,o),
(763,9,o),
(750,0,c),
(1109,0,l),
(1066,35,o),
(1022,98,o),
(975,187,cs),
(700,700,l),
(381,700,l),
(394,689,o),
(400,673,o),
(400,652,cs),
(400,643,o),
(393,624,o),
(380,597,cs),
(159,187,ls),
(112,98,o),
(68,35,o),
(25,0,c)
);
},
{
closed = 1;
nodes = (
(566,455,l),
(664,274,l),
(460,255,l)
);
},
{
closed = 1;
nodes = (
(479,751,o),
(530,790,o),
(530,851,cs),
(530,910,o),
(488,951,o),
(416,951,cs),
(343,951,o),
(302,909,o),
(302,851,cs),
(302,788,o),
(349,751,o),
(416,751,cs)
);
},
{
closed = 1;
nodes = (
(744,751,o),
(795,790,o),
(795,851,cs),
(795,910,o),
(754,951,o),
(681,951,cs),
(608,951,o),
(567,909,o),
(567,851,cs),
(567,788,o),
(614,751,o),
(681,751,cs)
);
}
);
};
layerId = m001;
shapes = (
{
ref = A;
},
{
pos = (295,0);
ref = dieresiscomb;
}
);
width = 1134;
}
);
unicode = 196;
},
{
color = 10;
glyphname = Agrave;
lastChange = "2025-11-13 14:46:18 +0000";
layers = (
{
background = {
shapes = (
{
closed = 1;
nodes = (
(384,0,l),
(371,9,o),
(365,26,o),
(365,50,cs),
(365,68,o),
(372,91,o),
(385,118,cs),
(386,120,l),
(730,151,l),
(748,118,ls),
(762,93,o),
(769,70,o),
(769,50,cs),
(769,26,o),
(763,9,o),
(750,0,c),
(1109,0,l),
(1066,35,o),
(1022,98,o),
(975,187,cs),
(700,700,l),
(381,700,l),
(394,689,o),
(400,673,o),
(400,652,cs),
(400,643,o),
(393,624,o),
(380,597,cs),
(159,187,ls),
(112,98,o),
(68,35,o),
(25,0,c)
);
},
{
closed = 1;
nodes = (
(566,455,l),
(664,274,l),
(460,255,l)
);
},
{
closed = 1;
nodes = (
(680,750,l),
(592,904,l),
(588,915,o),
(580,937,o),
(577,948,c),
(271,948,l),
(373,860,ls),
(428,812,o),
(471,775,o),
(502,750,c),
(680,750,l),
(592,904,l),
(588,915,o),
(580,937,o),
(577,948,c),
(271,948,l),
(373,860,ls),
(428,812,o),
(471,775,o),
(502,750,c),
(680,750,l),
(592,904,l),
(588,915,o),
(580,937,o),
(577,948,c),
(271,948,l),
(373,860,ls),
(428,812,o),
(471,775,o),
(502,750,c)
);
}
);
};
layerId = m001;
shapes = (
{
ref = A;
},
{
pos = (255,0);
ref = gravecomb;
}
);
width = 1134;
}
);
unicode = 192;
},
{
color = 10;
glyphname = Amacron;
lastChange = "2025-11-13 14:46:18 +0000";
layers = (
{
background = {
shapes = (
{
closed = 1;
nodes = (
(384,0,l),
(371,9,o),
(365,26,o),
(365,50,cs),
(365,68,o),
(372,91,o),
(385,118,cs),
(386,120,l),
(730,151,l),
(748,118,ls),
(762,93,o),
(769,70,o),
(769,50,cs),
(769,26,o),
(763,9,o),
(750,0,c),
(1109,0,l),
(1066,35,o),
(1022,98,o),
(975,187,cs),
(700,700,l),
(381,700,l),
(394,689,o),
(400,673,o),
(400,652,cs),
(400,643,o),
(393,624,o),
(380,597,cs),
(159,187,ls),
(112,98,o),
(68,35,o),
(25,0,c)
);
},
{
closed = 1;
nodes = (
(566,455,l),
(664,274,l),
(460,255,l)
);
},
{
closed = 1;
nodes = (
(807,751,l),
(807,931,l),
(272,931,l),
(272,751,l)
);
}
);
};
layerId = m001;
shapes = (
{
ref = A;
},
{
pos = (370,0);
ref = macroncomb;
}
);
width = 1134;
}
);
unicode = 256;
},
{
color = 10;
glyphname = Aogonek;
lastChange = "2025-11-13 14:46:18 +0000";
layers = (
{
background = {
shapes = (
{
closed = 1;
nodes = (
(895,-326,o),
(974,-309,o),
(1040,-268,c),
(1040,-137,l),
(997,-176,o),
(951,-196,o),
(900,-196,cs),
(866,-196,o),
(845,-186,o),
(837,-167,cs),
(825,-143,o),
(830,-121,o),
(845,-104,c),
(854,-89,o),
(869,-70,o),
(892,-46,cs),
(909,-28,o),
(922,-13,o),
(931,0,c),
(1109,0,l),
(1069,33,o),
(1024,95,o),
(975,187,cs),
(700,700,l),
(381,700,l),
(394,689,o),
(400,673,o),
(400,652,cs),
(400,640,o),
(393,622,o),
(380,597,cs),
(159,187,ls),
(110,96,o),
(65,33,o),
(25,0,c),
(384,0,l),
(371,9,o),
(365,26,o),
(365,50,cs),
(365,69,o),
(372,91,o),
(385,118,cs),
(386,120,l),
(730,151,l),
(748,118,ls),
(762,93,o),
(769,71,o),
(770,52,cs),
(770,33,o),
(763,15,o),
(750,0,cs),
(722,-31,ls),
(691,-63,o),
(669,-88,o),
(654,-120,c),
(626,-165,o),
(629,-231,o),
(666,-268,c),
(691,-297,o),
(737,-314,o),
(804,-320,cs)
);
},
{
closed = 1;
nodes = (
(566,455,l),
(664,274,l),
(460,255,l)
);
}
);
};
layerId = m001;
shapes = (
{
ref = A;
},
{
pos = (785,10);
ref = ogonekcomb;
}
);
width = 1134;
}
);
unicode = 260;
},
{
color = 10;
glyphname = Aring;
lastChange = "2025-11-13 14:46:18 +0000";
layers = (
{
background = {
shapes = (
{
closed = 1;
nodes = (
(384,0,l),
(371,9,o),
(365,26,o),
(365,50,cs),
(365,68,o),
(372,91,o),
(385,118,cs),
(386,120,l),
(730,151,l),
(748,118,ls),
(762,93,o),
(769,70,o),
(769,50,cs),
(769,26,o),
(763,9,o),
(750,0,c),
(1109,0,l),
(1066,35,o),
(1022,98,o),
(975,187,cs),
(700,700,l),
(381,700,l),
(394,689,o),
(400,673,o),
(400,652,cs),
(400,643,o),
(393,624,o),
(380,597,cs),
(159,187,ls),
(112,98,o),
(68,35,o),
(25,0,c)
);
},
{
closed = 1;
nodes = (
(566,455,l),
(664,274,l),
(460,255,l)
);
},
{
closed = 1;
nodes = (
(605,750,o),
(657,790,o),
(657,850,cs),
(657,909,o),
(616,950,o),
(544,950,cs),
(475,950,o),
(430,910,o),
(430,850,cs),
(430,789,o),
(477,750,o),
(544,750,cs)
);
},
{
closed = 1;
nodes = (
(519,818,o),
(505,833,o),
(505,849,cs),
(505,868,o),
(519,881,o),
(544,881,cs),
(568,881,o),
(582,869,o),
(582,849,cs),
(582,833,o),
(568,818,o),
(544,818,cs)
);
}
);
};
layerId = m001;
shapes = (
{
ref = A;
},
{
pos = (428,0);
ref = ringcomb;
}
);
width = 1134;
}
);
unicode = 197;
},
{
color = 10;
glyphname = Atilde;
lastChange = "2025-11-13 14:46:18 +0000";
layers = (
{
background = {
shapes = (
{
closed = 1;
nodes = (
(384,0,l),
(371,9,o),
(365,26,o),
(365,50,cs),
(365,68,o),
(372,91,o),
(385,118,cs),
(386,120,l),
(730,151,l),
(748,118,ls),
(762,93,o),
(769,70,o),
(769,50,cs),
(769,26,o),
(763,9,o),
(750,0,c),
(1109,0,l),
(1066,35,o),
(1022,98,o),
(975,187,cs),
(700,700,l),
(381,700,l),
(394,689,o),
(400,673,o),
(400,652,cs),
(400,643,o),
(393,624,o),
(380,597,cs),
(159,187,ls),
(112,98,o),
(68,35,o),
(25,0,c)
);
},
{
closed = 1;
nodes = (
(566,455,l),
(664,274,l),
(460,255,l)
);
},
{
closed = 1;
nodes = (
(319,784,o),
(339,804,o),
(364,815,c),
(375,824,o),
(400,819,o),
(414,819,c),
(444,815,o),
(487,806,o),
(542,793,cs),
(597,780,o),
(638,771,o),
(665,767,cs),
(701,763,o),
(737,778,o),
(758,806,cs),
(780,837,o),
(795,887,o),
(802,954,c),
(786,929,ls),
(778,918,o),
(762,899,o),
(746,890,cs),
(730,883,o),
(712,881,o),
(691,886,cs),
(669,889,o),
(630,897,o),
(573,910,cs),
(516,923,o),
(472,930,o),
(440,933,cs),
(403,938,o),
(374,927,o),
(351,900,cs),
(320,865,o),
(304,816,o),
(304,754,c),
(319,784,o),
(339,804,o),
(364,815,c),
(375,824,o),
(400,819,o),
(414,819,c),
(444,815,o),
(487,806,o),
(542,793,cs),
(597,780,o),
(638,771,o),
(665,767,cs),
(701,763,o),
(737,778,o),
(758,806,cs),
(780,837,o),
(795,887,o),
(802,954,c),
(786,929,ls),
(778,918,o),
(762,899,o),
(746,890,cs),
(730,883,o),
(712,881,o),
(691,886,cs),
(669,889,o),
(630,897,o),
(573,910,cs),
(516,923,o),
(472,930,o),
(440,933,cs),
(403,938,o),
(374,927,o),
(351,900,cs),
(320,865,o),
(304,816,o),
(304,754,c),
(319,784,o),
(339,804,o),
(364,815,c),
(375,824,o),
(400,819,o),
(414,819,c),
(444,815,o),
(487,806,o),
(542,793,cs),
(597,780,o),
(638,771,o),
(665,767,cs),
(701,763,o),
(737,778,o),
(758,806,cs),
(780,837,o),
(795,887,o),
(802,954,c),
(786,929,ls),
(778,918,o),
(762,899,o),
(746,890,cs),
(730,883,o),
(712,881,o),
(691,886,cs),
(669,889,o),
(630,897,o),
(573,910,cs),
(516,923,o),
(472,930,o),
(440,933,cs),
(403,938,o),
(374,927,o),
(351,900,cs),
(320,865,o),
(304,816,o),
(304,754,c)
);
}
);
};
layerId = m001;
shapes = (
{
ref = A;
},
{
pos = (310,0);
ref = tildecomb;
}
);
width = 1134;
}
);
unicode = 195;
},
{
color = 6;
glyphname = AE;
lastChange = "2025-11-13 14:46:18 +0000";
layers = (
{
anchors = (
{
name = bottom;
pos = (785,0);
},
{
name = top;
pos = (1102,700);
}
);
background = {
shapes = (
{
closed = 1;
nodes = (
(384,2,l),
(376,11,o),
(378,28,o),
(390,52,cs),
(399,70,o),
(417,93,o),
(444,120,cs),
(446,122,l),
(805,153,l),
(806,138,l),
(806,92,l),
(804,77,o),
(800,64,o),
(794,52,cs),
(782,28,o),
(767,11,o),
(750,2,c),
(1545,2,l),
(1545,231,l),
(1534,206,o),
(1513,188,o),
(1482,175,cs),
(1471,171,o),
(1447,169,o),
(1412,169,cs),
(1251,169,l),
(1089,168,l),
(1089,283,l),
(1453,283,l),
(1453,432,l),
(1089,432,l),
(1089,533,l),
(1438,533,ls),
(1479,533,o),
(1511,519,o),
(1533,491,c),
(1533,596,l),
(1532,701,l),
(1047,701,l),
(1047,702,l),
(728,702,l),
(735,691,o),
(734,675,o),
(723,654,cs),
(719,645,o),
(703,626,o),
(676,599,cs),
(252,189,ls),
(161,100,o),
(85,37,o),
(25,2,c)
);
},
{
closed = 1;
nodes = (
(792,457,l),
(800,276,l),
(587,257,l)
);
}
);
};
layerId = m001;
shapes = (
{
closed = 1;
nodes = (
(384,2,l),
(381,6,o),
(379,10,o),
(379,17,cs),
(379,26,o),
(383,38,o),
(390,52,cs),
(399,70,o),
(417,93,o),
(444,120,cs),
(446,122,l),
(805,153,l),
(806,138,l),
(806,92,l),
(804,77,o),
(800,64,o),
(794,52,cs),
(782,28,o),
(767,11,o),
(750,2,c),
(1545,2,l),
(1545,231,l),
(1534,206,o),
(1513,188,o),
(1482,175,cs),
(1471,171,o),
(1447,168,o),
(1412,168,cs),
(1089,168,l),
(1089,283,l),
(1453,283,l),
(1453,432,l),
(1089,432,l),
(1089,533,l),
(1438,533,ls),
(1479,533,o),
(1511,519,o),
(1533,491,c),
(1533,702,l),
(728,702,l),
(731,697,o),
(732,692,o),
(732,686,cs),
(732,677,o),
(729,666,o),
(723,654,cs),
(719,645,o),
(703,626,o),
(676,599,cs),
(252,189,ls),
(161,100,o),
(85,37,o),
(25,2,c)
);
},
{
closed = 1;
nodes = (
(792,457,l),
(800,276,l),
(587,257,l)
);
}
);
width = 1570;
}
);
unicode = 198;
},
{
color = 10;
glyphname = AEacute;
lastChange = "2025-11-13 14:46:18 +0000";
layers = (
{
background = {
shapes = (
{
closed = 1;
nodes = (
(384,2,l),
(376,11,o),
(378,28,o),
(390,52,cs),
(399,70,o),
(417,93,o),
(444,120,cs),
(446,122,l),
(805,153,l),
(806,138,l),
(806,92,l),
(804,77,o),
(800,64,o),
(794,52,cs),
(782,28,o),
(767,11,o),
(750,2,c),
(1545,2,l),
(1545,231,l),
(1534,206,o),
(1513,188,o),
(1482,175,cs),
(1471,171,o),
(1447,169,o),
(1412,169,cs),
(1251,169,l),
(1089,168,l),
(1089,283,l),
(1453,283,l),
(1453,432,l),
(1089,432,l),
(1089,533,l),
(1438,533,ls),
(1479,533,o),
(1511,519,o),
(1533,491,c),
(1533,596,l),
(1532,701,l),
(1047,701,l),
(1047,702,l),
(728,702,l),
(735,691,o),
(734,675,o),
(723,654,cs),
(719,645,o),
(703,626,o),
(676,599,cs),
(252,189,ls),
(161,100,o),
(85,37,o),
(25,2,c)
);
},
{
closed = 1;
nodes = (
(792,457,l),
(800,276,l),
(587,257,l)
);
},
{
closed = 1;
nodes = (
(1137,750,l),
(1266,860,l),
(1368,948,l),
(1062,948,l),
(1055,926,l),
(1046,904,l),
(959,750,l),
(1137,750,l),
(1266,860,l),
(1368,948,l),
(1062,948,l),
(1055,926,l),
(1046,904,l),
(959,750,l),
(1137,750,l),
(1266,860,l),
(1368,948,l),
(1062,948,l),
(1055,926,l),
(1046,904,l),
(959,750,l)
);
}
);
};
layerId = m001;
shapes = (
{
ref = AE;
},
{
pos = (864,0);
ref = acutecomb;
}
);
width = 1570;
}
);
unicode = 508;
},
{
color = 6;
glyphname = B;
lastChange = "2025-11-13 14:46:18 +0000";
layers = (
{
anchors = (
{
name = bottom;
pos = (475,0);
},
{
name = center;
pos = (237,175);
},
{
name = top;
pos = (475,700);
}
);
background = {
shapes = (
{
closed = 1;
nodes = (
(623,0,ls),
(727,0,o),
(806,21,o),
(860,64,cs),
(929,119,o),
(946,230,o),
(889,298,cs),
(850,343,o),
(794,359,o),
(715,370,c),
(730,379,o),
(733,375,o),
(749,380,cs),
(798,393,o),
(835,414,o),
(858,444,cs),
(905,503,o),
(897,601,o),
(837,645,cs),
(786,685,o),
(723,695,o),
(635,699,c),
(331,700,l),
(25,700,l),
(57,680,o),
(76,643,o),
(75,606,cs),
(75,90,ls),
(75,54,o),
(56,19,o),
(25,0,c)
);
},
{
closed = 1;
nodes = (
(356,128,l),
(356,299,l),
(543,299,l),
(589,295,o),
(618,281,o),
(630,258,cs),
(649,225,o),
(643,174,o),
(612,149,cs),
(592,134,o),
(562,127,o),
(521,127,cs)
);
},
{
closed = 1;
nodes = (
(356,553,l),
(435,553,ls),
(477,553,o),
(509,552,o),
(532,551,cs),
(571,547,o),
(597,539,o),
(610,514,cs),
(625,486,o),
(619,437,o),
(591,420,cs),
(584,416,o),
(577,412,o),
(571,409,cs),
(559,404,o),
(535,402,o),
(524,402,cs),
(512,402,l),
(500,401,l),
(356,401,l)
);
}
);
};
layerId = m001;
shapes = (
{
closed = 1;
nodes = (
(623,0,ls),
(772,0,o),
(923,50,o),
(923,199,cs),
(923,310,o),
(839,353,o),
(715,370,c),
(800,383,o),
(888,432,o),
(888,535,cs),
(888,660,o),
(762,700,o),
(635,700,cs),
(25,700,l),
(57,680,o),
(75,643,o),
(75,606,cs),
(75,90,ls),
(75,54,o),
(56,19,o),
(25,0,c)
);
},
{
closed = 1;
nodes = (
(356,128,l),
(356,299,l),
(526,299,ls),
(611,299,o),
(641,264,o),
(641,215,cs),
(641,147,o),
(589,128,o),
(521,128,cs)
);
},
{
closed = 1;
nodes = (
(356,553,l),
(464,553,ls),
(547,553,o),
(618,552,o),
(618,479,cs),
(618,424,o),
(579,401,o),
(524,401,cs),
(356,401,l)
);
}
);
width = 949;
}
);
unicode = 66;
},
{
color = 6;
glyphname = C;
lastChange = "2025-11-13 14:46:18 +0000";
layers = (
{
anchors = (
{
name = bottom;
pos = (457,0);
},
{
name = top;
pos = (495,700);
}
);
background = {
shapes = (
{
closed = 1;
nodes = (
(722,-14,o),
(808,-1,o),
(889,42,c),
(889,259,l),
(800,186,o),
(684,155,o),
(565,166,cs),
(490,172,o),
(434,192,o),
(399,227,cs),
(356,268,o),
(341,331,o),
(349,394,cs),
(356,441,o),
(387,482,o),
(431,506,cs),
(479,531,o),
(545,541,o),
(629,535,cs),
(716,528,o),
(799,496,o),
(877,440,c),
(877,666,l),
(772,705,o),
(652,723,o),
(517,718,cs),
(380,712,o),
(269,684,o),
(186,634,cs),
(111,590,o),
(55,519,o),
(36,436,cs),
(15,343,o),
(23,259,o),
(58,183,cs),
(92,111,o),
(154,57,o),
(243,22,cs),
(334,-13,o),
(452,-28,o),
(597,-23,cs)
);
}
);
};
layerId = m001;
shapes = (
{
closed = 1;
nodes = (
(682,-24,o),
(793,-9,o),
(889,42,c),
(889,259,l),
(812,196,o),
(714,164,o),
(612,164,cs),
(409,164,o),
(347,256,o),
(347,362,cs),
(347,491,o),
(456,537,o),
(583,537,cs),
(679,537,o),
(777,512,o),
(877,440,c),
(877,666,l),
(783,701,o),
(678,719,o),
(561,719,cs),
(135,719,o),
(24,519,o),
(24,337,cs),
(24,66,o),
(268,-24,o),
(544,-24,cs)
);
}
);
width = 914;
}
);
unicode = 67;
},
{
color = 10;
glyphname = Cacute;
lastChange = "2025-11-13 14:46:18 +0000";
layers = (
{
background = {
shapes = (
{
closed = 1;
nodes = (
(722,-14,o),
(808,-1,o),
(889,42,c),
(889,259,l),
(800,186,o),
(684,155,o),
(565,166,cs),
(490,172,o),
(434,192,o),
(399,227,cs),
(356,268,o),
(341,331,o),
(349,394,cs),
(356,441,o),
(387,482,o),
(431,506,cs),
(479,531,o),
(545,541,o),
(629,535,cs),
(716,528,o),
(799,496,o),
(877,440,c),
(877,666,l),
(772,705,o),
(652,723,o),
(517,718,cs),
(380,712,o),
(269,684,o),
(186,634,cs),
(111,590,o),
(55,519,o),
(36,436,cs),
(15,343,o),
(23,259,o),
(58,183,cs),
(92,111,o),
(154,57,o),
(243,22,cs),
(334,-13,o),
(452,-28,o),
(597,-23,cs)
);
},
{
closed = 1;
nodes = (
(530,751,l),
(593,802,o),
(736,926,o),
(761,949,c),
(455,949,l),
(448,927,l),
(440,904,l),
(352,751,l),
(530,751,l),
(593,802,o),
(736,926,o),
(761,949,c),
(455,949,l),
(448,927,l),
(440,904,l),
(352,751,l),
(530,751,l),
(593,802,o),
(736,926,o),
(761,949,c),
(455,949,l),
(448,927,l),
(440,904,l),
(352,751,l)
);
}
);
};
layerId = m001;
shapes = (
{
ref = C;
},
{
pos = (257,0);
ref = acutecomb;
}
);
width = 914;
}
);
unicode = 262;
},
{
color = 10;
glyphname = Ccaron;
lastChange = "2025-11-13 14:46:18 +0000";
layers = (
{
background = {
shapes = (
{
closed = 1;
nodes = (
(722,-14,o),
(808,-1,o),
(889,42,c),
(889,259,l),
(800,186,o),
(684,155,o),
(565,166,cs),
(490,172,o),
(434,192,o),
(399,227,cs),
(356,268,o),
(341,331,o),
(349,394,cs),
(356,441,o),
(387,482,o),
(431,506,cs),
(479,531,o),
(545,541,o),
(629,535,cs),
(716,528,o),
(799,496,o),
(877,440,c),
(877,666,l),
(772,705,o),
(652,723,o),
(517,718,cs),
(380,712,o),
(269,684,o),
(186,634,cs),
(111,590,o),
(55,519,o),
(36,436,cs),
(15,343,o),
(23,259,o),
(58,183,cs),
(92,111,o),
(154,57,o),
(243,22,cs),
(334,-13,o),
(452,-28,o),
(597,-23,cs)
);
},
{
closed = 1;
nodes = (
(508,751,l),
(652,948,l),
(550,948,l),
(466,831,l),
(428,885,l),
(382,948,l),
(284,948,l),
(352,853,l),
(424,751,l),
(508,751,l),
(652,948,l),
(550,948,l),
(466,831,l),
(428,885,l),
(382,948,l),
(284,948,l),
(352,853,l),
(424,751,l),
(508,751,l),
(652,948,l),
(550,948,l),
(466,831,l),
(428,885,l),
(382,948,l),
(284,948,l),
(352,853,l),
(424,751,l)
);
}
);
};
layerId = m001;
shapes = (
{
ref = C;
},
{
pos = (286,0);
ref = caroncomb;
}
);
width = 914;
}
);
unicode = 268;
},
{
color = 10;
glyphname = Ccedilla;
lastChange = "2025-11-13 14:46:18 +0000";
layers = (
{
background = {
shapes = (
{
closed = 1;
nodes = (
(626,-372,ls),
(705,-367,o),
(763,-345,o),
(798,-308,cs),
(821,-285,o),
(834,-255,o),
(836,-219,cs),
(837,-208,ls),
(838,-181,o),
(830,-153,o),
(813,-122,cs),
(799,-97,o),
(787,-79,o),
(778,-67,cs),
(764,-50,o),
(748,-31,o),
(729,-12,cs),
(713,3,o),
(706,11,o),
(707,11,cs),
(760,20,ls),
(803,27,o),
(846,42,o),
(889,65,c),
(889,282,l),
(800,209,o),
(684,178,o),
(565,189,cs),
(489,196,o),
(434,216,o),
(399,250,cs),
(356,291,o),
(341,354,o),
(349,417,cs),
(356,464,o),
(387,505,o),
(431,529,cs),
(479,554,o),
(545,564,o),
(629,558,cs),
(714,552,o),
(797,520,o),
(877,463,c),
(877,689,l),
(772,728,o),
(652,746,o),
(517,741,cs),
(382,736,o),
(271,708,o),
(186,657,cs),
(111,613,o),
(55,542,o),
(36,459,cs),
(15,366,o),
(23,282,o),
(58,206,cs),
(92,134,o),
(154,80,o),
(243,45,cs),
(308,19,o),
(389,4,o),
(488,0,c),
(498,-12,o),
(507,-22,o),
(516,-30,cs),
(534,-48,o),
(553,-72,o),
(574,-102,cs),
(584,-117,o),
(590,-129,o),
(592,-139,c),
(592,-142,o),
(592,-146,o),
(593,-149,c),
(593,-158,o),
(590,-168,o),
(584,-181,cs),
(573,-205,o),
(547,-217,o),
(505,-217,cs),
(442,-217,o),
(384,-193,o),
(331,-144,c),
(331,-308,l),
(402,-352,o),
(485,-374,o),
(580,-374,cs)
);
}
);
};
layerId = m001;
shapes = (
{
ref = C;
},
{
pos = (239,0);
ref = cedillacomb;
}
);
width = 914;
}
);
unicode = 199;
},
{
color = 10;
glyphname = Ccircumflex;
lastChange = "2025-11-13 14:46:18 +0000";
layers = (
{
background = {
shapes = (
{
closed = 1;
nodes = (
(722,-14,o),
(808,-1,o),
(889,42,c),
(889,259,l),
(800,186,o),
(684,155,o),
(565,166,cs),
(490,172,o),
(434,192,o),
(399,227,cs),
(356,268,o),
(341,331,o),
(349,394,cs),
(356,441,o),
(387,482,o),
(431,506,cs),
(479,531,o),
(545,541,o),
(629,535,cs),
(716,528,o),
(799,496,o),
(877,440,c),
(877,666,l),
(772,705,o),
(652,723,o),
(517,718,cs),
(380,712,o),
(269,684,o),
(186,634,cs),
(111,590,o),
(55,519,o),
(36,436,cs),
(15,343,o),
(23,259,o),
(58,183,cs),
(92,111,o),
(154,57,o),
(243,22,cs),
(334,-13,o),
(452,-28,o),
(597,-23,cs)
);
},
{
closed = 1;
nodes = (
(394,751,l),
(440,814,l),
(478,867,l),
(521,808,l),
(562,751,l),
(664,751,l),
(520,948,l),
(436,948,l),
(364,846,l),
(296,751,l),
(394,751,l),
(440,814,l),
(478,867,l),
(521,808,l),
(562,751,l),
(664,751,l),
(520,948,l),
(436,948,l),
(364,846,l),
(296,751,l),
(394,751,l),
(440,814,l),
(478,867,l),
(521,808,l),
(562,751,l),
(664,751,l),
(520,948,l),
(436,948,l),
(364,846,l),
(296,751,l)
);
}
);
};
layerId = m001;
shapes = (
{
ref = C;
},
{
pos = (286,0);
ref = circumflexcomb;
}
);
width = 914;
}
);
unicode = 264;
},
{
color = 10;
glyphname = Cdotaccent;
lastChange = "2025-11-13 14:46:18 +0000";
layers = (
{
background = {
shapes = (
{
closed = 1;
nodes = (
(722,-14,o),
(808,-1,o),
(889,42,c),
(889,259,l),
(800,186,o),
(684,155,o),
(565,166,cs),
(490,172,o),
(434,192,o),
(399,227,cs),
(356,268,o),
(341,331,o),
(349,394,cs),
(356,441,o),
(387,482,o),
(431,506,cs),
(479,531,o),
(545,541,o),
(629,535,cs),
(716,528,o),
(799,496,o),
(877,440,c),
(877,666,l),
(772,705,o),
(652,723,o),
(517,718,cs),
(380,712,o),
(269,684,o),
(186,634,cs),
(111,590,o),
(55,519,o),
(36,436,cs),
(15,343,o),
(23,259,o),
(58,183,cs),
(92,111,o),
(154,57,o),
(243,22,cs),
(334,-13,o),
(452,-28,o),
(597,-23,cs)
);
},
{
closed = 1;
nodes = (
(516,750,o),
(567,790,o),
(567,849,cs),
(567,908,o),
(526,949,o),
(454,949,cs),
(374,949,o),
(340,898,o),
(340,849,cs),
(340,788,o),
(387,750,o),
(454,750,cs)
);
}
);
};
layerId = m001;
shapes = (
{
ref = C;
},
{
pos = (357,0);
ref = dotaccentcomb;
}
);
width = 914;
}
);
unicode = 266;
},
{
color = 6;
glyphname = D;
lastChange = "2025-11-13 14:46:18 +0000";
layers = (
{
anchors = (
{
name = bottom;
pos = (490,0);
},
{
name = center;
pos = (245,350);
},
{
name = top;
pos = (490,700);
}
);
background = {
shapes = (
{
closed = 1;
nodes = (
(414,0,ls),
(533,-1,o),
(626,8,o),
(693,29,cs),
(784,55,o),
(852,101,o),
(896,166,cs),
(952,244,o),
(968,341,o),
(945,456,cs),
(930,528,o),
(884,592,o),
(820,629,cs),
(747,671,o),
(647,694,o),
(518,698,cs),
(481,699,o),
(399,700,o),
(272,700,cs),
(25,699,l),
(56,680,o),
(75,642,o),
(75,605,cs),
(75,90,ls),
(75,54,o),
(56,19,o),
(25,0,c)
);
},
{
closed = 1;
nodes = (
(358,347,l),
(357,552,l),
(429,552,o),
(479,556,o),
(527,548,cs),
(575,540,o),
(620,516,o),
(641,477,cs),
(663,438,o),
(671,382,o),
(664,308,cs),
(658,249,o),
(639,206,o),
(606,180,cs),
(578,155,o),
(539,142,o),
(489,141,cs),
(358,141,l)
);
}
);
};
layerId = m001;
shapes = (
{
closed = 1;
nodes = (
(414,0,ls),
(702,0,o),
(955,75,o),
(955,359,cs),
(955,618,o),
(765,700,o),
(478,700,cs),
(25,700,l),
(56,681,o),
(75,642,o),
(75,605,cs),
(75,90,ls),
(75,54,o),
(56,19,o),
(25,0,c)
);
},
{
closed = 1;
nodes = (
(358,552,l),
(451,552,ls),
(582,552,o),
(666,520,o),
(666,357,cs),
(666,224,o),
(618,144,o),
(489,141,cs),
(358,141,l)
);
}
);
width = 980;
}
);
unicode = 68;
},
{
color = 10;
glyphname = Dcaron;
lastChange = "2025-11-13 14:46:18 +0000";
layers = (
{
background = {
shapes = (
{
closed = 1;
nodes = (
(414,0,ls),
(533,-1,o),
(626,8,o),
(693,29,cs),
(784,55,o),
(852,101,o),
(896,166,cs),
(952,244,o),
(968,341,o),
(945,456,cs),
(930,528,o),
(884,592,o),
(820,629,cs),
(747,671,o),
(647,694,o),
(518,698,cs),
(481,699,o),
(399,700,o),
(272,700,cs),
(25,699,l),
(56,680,o),
(75,642,o),
(75,605,cs),
(75,90,ls),
(75,54,o),
(56,19,o),
(25,0,c)
);
},
{
closed = 1;
nodes = (
(358,347,l),
(357,552,l),
(429,552,o),
(479,556,o),
(527,548,cs),
(575,540,o),
(620,516,o),
(641,477,cs),
(663,438,o),
(671,382,o),
(664,308,cs),
(658,249,o),
(639,206,o),
(606,180,cs),
(578,155,o),
(539,142,o),
(489,141,cs),
(358,141,l)
);
},
{
closed = 1;
nodes = (
(508,750,l),
(652,947,l),
(550,947,l),
(466,830,l),
(428,884,l),
(381,947,l),
(284,947,l),
(352,852,l),
(424,750,l),
(508,750,l),
(652,947,l),
(550,947,l),
(466,830,l),
(428,884,l),
(381,947,l),
(284,947,l),
(352,852,l),
(424,750,l),
(508,750,l),
(652,947,l),
(550,947,l),
(466,830,l),
(428,884,l),
(381,947,l),
(284,947,l),
(352,852,l),
(424,750,l)
);
}
);
};
layerId = m001;
shapes = (
{
ref = D;
},
{
pos = (281,0);
ref = caroncomb;
}
);
width = 980;
}
);
unicode = 270;
},
{
color = 10;
glyphname = Dcroat;
lastChange = "2025-11-13 14:46:18 +0000";
layers = (
{
background = {
shapes = (
{
closed = 1;
nodes = (
(486,0,ls),
(605,-1,o),
(698,8,o),
(765,29,cs),
(856,55,o),
(924,101,o),
(968,166,cs),
(1024,244,o),
(1040,341,o),
(1017,456,cs),
(1002,528,o),
(956,592,o),
(892,629,cs),
(819,671,o),
(719,694,o),
(590,698,cs),
(553,699,o),
(471,700,o),
(344,700,cs),
(97,699,l),
(128,680,o),
(147,642,o),
(147,605,cs),
(147,90,ls),
(147,54,o),
(128,19,o),
(97,0,c)
);
},
{
closed = 1;
nodes = (
(555,253,l),
(555,440,l),
(25,440,l),
(25,253,l),
(555,253,l),
(555,440,l),
(25,440,l),
(25,253,l),
(555,253,l),
(555,440,l),
(25,440,l),
(25,253,l)
);
},
{
closed = 1;
nodes = (
(430,347,l),
(429,552,l),
(501,552,o),
(551,556,o),
(599,548,cs),
(647,540,o),
(692,516,o),
(713,477,cs),
(735,438,o),
(743,382,o),
(736,308,cs),
(730,249,o),
(711,206,o),
(678,180,cs),
(650,155,o),
(611,142,o),
(561,141,cs),
(430,141,l)
);
}
);
};
layerId = m001;
shapes = (
{
ref = Eth;
}
);
width = 1052;
}
);
unicode = 272;
},
{
color = 3;
glyphname = Eth;
lastChange = "2025-11-13 14:46:18 +0000";
layers = (
{
anchors = (
{
name = bottom;
pos = (526,0);
},
{
name = top;
pos = (526,700);
}
);
background = {
shapes = (
{
closed = 1;
nodes = (
(486,0,ls),
(605,-1,o),
(698,8,o),
(765,29,cs),
(856,55,o),
(924,101,o),
(968,166,cs),
(1008,221,o),
(1027,286,o),
(1027,359,cs),
(1027,390,o),
(1024,422,o),
(1017,456,cs),
(1002,528,o),
(956,592,o),
(892,629,cs),
(819,671,o),
(719,694,o),
(590,698,cs),
(553,699,o),
(471,700,o),
(344,700,cs),
(97,699,l),
(128,680,o),
(147,642,o),
(147,605,cs),
(147,90,ls),
(147,54,o),
(128,19,o),
(97,0,c)
);
},
{
closed = 1;
nodes = (
(555,253,l),
(555,440,l),
(25,440,l),
(25,253,l),
(555,253,l),
(555,440,l),
(25,440,l),
(25,253,l),
(555,253,l),
(555,440,l),
(25,440,l),
(25,253,l)
);
},
{
closed = 1;
nodes = (
(430,347,l),
(429,552,l),
(523,553,ls),
(551,553,o),
(575,552,o),
(599,548,cs),
(647,540,o),
(692,516,o),
(713,477,cs),
(730,447,o),
(738,407,o),
(738,357,cs),
(738,342,o),
(738,325,o),
(736,308,cs),
(730,249,o),
(711,206,o),
(678,180,cs),
(650,155,o),
(611,142,o),
(561,141,cs),
(430,141,l)
);
}
);
};
layerId = m001;
shapes = (
{
pos = (72,0);
ref = D;
},
{
closed = 1;
nodes = (
(25,253,l),
(555,253,l),
(555,440,l),
(25,440,l)
);
}
);
width = 1052;
}
);
metricRight = D;
unicode = 208;
},
{
color = 6;
glyphname = E;
lastChange = "2025-11-13 14:46:18 +0000";
layers = (
{
anchors = (
{
name = bottom;
pos = (420,0);
},
{
name = ogonek;
pos = (755,10);
},
{
name = top;
pos = (420,700);
},
{
name = topleft;
pos = (20,700);
}
);
background = {
shapes = (
{
closed = 1;
nodes = (
(814,0,l),
(814,230,l),
(803,205,o),
(782,187,o),
(751,174,cs),
(740,170,o),
(716,168,o),
(681,168,cs),
(520,168,l),
(358,167,l),
(358,282,l),
(722,282,l),
(722,431,l),
(358,431,l),
(358,532,l),
(707,532,ls),
(748,532,o),
(780,518,o),
(802,490,c),
(802,595,l),
(801,700,l),
(25,701,l),
(57,681,o),
(76,643,o),
(75,606,cs),
(75,91,ls),
(75,51,o),
(58,21,o),
(25,0,c)
);
}
);
};
layerId = m001;
shapes = (
{
closed = 1;
nodes = (
(814,0,l),
(814,230,l),
(791,177,o),
(742,167,o),
(681,167,cs),
(358,167,l),
(358,282,l),
(722,282,l),
(722,431,l),
(358,431,l),
(358,532,l),
(707,532,ls),
(748,532,o),
(780,518,o),
(802,490,c),
(802,700,l),
(25,700,l),
(57,680,o),
(75,642,o),
(75,605,cs),
(75,91,ls),
(75,51,o),
(58,21,o),
(25,0,c)
);
}
);
width = 839;
}
);
unicode = 69;
},
{
color = 10;
glyphname = Eacute;
lastChange = "2025-11-13 14:46:18 +0000";
layers = (
{
background = {
shapes = (
{
closed = 1;
nodes = (
(814,0,l),
(814,230,l),
(803,205,o),
(782,187,o),
(751,174,cs),
(740,170,o),
(716,168,o),
(681,168,cs),
(520,168,l),
(358,167,l),
(358,282,l),
(722,282,l),
(722,431,l),
(358,431,l),
(358,532,l),
(707,532,ls),
(748,532,o),
(780,518,o),
(802,490,c),
(802,595,l),
(801,700,l),
(25,701,l),
(57,681,o),
(76,643,o),
(75,606,cs),
(75,91,ls),
(75,51,o),
(58,21,o),
(25,0,c)
);
},
{
closed = 1;
nodes = (
(455,750,l),
(486,775,o),
(529,812,o),
(584,860,cs),
(686,948,l),
(380,948,l),
(377,937,o),
(369,915,o),
(365,904,c),
(277,750,l),
(455,750,l),
(486,775,o),
(529,812,o),
(584,860,cs),
(686,948,l),
(380,948,l),
(377,937,o),
(369,915,o),
(365,904,c),
(277,750,l),
(455,750,l),
(486,775,o),
(529,812,o),
(584,860,cs),
(686,948,l),
(380,948,l),
(377,937,o),
(369,915,o),
(365,904,c),
(277,750,l)
);
}
);
};
layerId = m001;
shapes = (
{
ref = E;
},
{
pos = (182,0);
ref = acutecomb;
}
);
width = 839;
}
);
unicode = 201;
},
{
color = 10;
glyphname = Ebreve;
lastChange = "2025-11-13 14:46:18 +0000";
layers = (
{
background = {
shapes = (
{
closed = 1;
nodes = (
(814,0,l),
(814,230,l),
(803,205,o),
(782,187,o),
(751,174,cs),
(740,170,o),
(716,168,o),
(681,168,cs),
(520,168,l),
(358,167,l),
(358,282,l),
(722,282,l),
(722,431,l),
(358,431,l),
(358,532,l),
(707,532,ls),
(748,532,o),
(780,518,o),
(802,490,c),
(802,595,l),
(801,700,l),
(25,701,l),
(57,681,o),
(76,643,o),
(75,606,cs),
(75,91,ls),
(75,51,o),
(58,21,o),
(25,0,c)
);
},
{
closed = 1;
nodes = (
(494,751,o),
(549,769,o),
(588,806,cs),
(627,843,o),
(647,890,o),
(647,948,cs),
(647,949,l),
(498,949,l),
(499,912,o),
(470,886,o),
(422,886,cs),
(371,886,o),
(347,913,o),
(346,949,c),
(197,949,l),
(198,949,o),
(198,949,o),
(197,948,c),
(198,891,o),
(217,843,o),
(256,807,cs),
(275,790,o),
(298,776,o),
(326,766,cs),
(353,756,o),
(385,751,o),
(422,751,cs)
);
}
);
};
layerId = m001;
shapes = (
{
ref = E;
},
{
pos = (170,0);
ref = brevecomb;
}
);
width = 839;
}
);
unicode = 276;
},
{
color = 10;
glyphname = Ecaron;
lastChange = "2025-11-13 14:46:18 +0000";
layers = (
{
background = {
shapes = (
{
closed = 1;
nodes = (
(814,0,l),
(814,230,l),
(803,205,o),
(782,187,o),
(751,174,cs),
(740,170,o),
(716,168,o),
(681,168,cs),
(520,168,l),
(358,167,l),
(358,282,l),
(722,282,l),
(722,431,l),
(358,431,l),
(358,532,l),
(707,532,ls),
(748,532,o),
(780,518,o),
(802,490,c),
(802,595,l),
(801,700,l),
(25,701,l),
(57,681,o),
(76,643,o),
(75,606,cs),
(75,91,ls),
(75,51,o),
(58,21,o),
(25,0,c)
);
},
{
closed = 1;
nodes = (
(462,750,l),
(605,947,l),
(504,947,l),
(420,830,l),
(381,884,l),
(335,947,l),
(238,947,l),
(378,750,l),
(462,750,l),
(605,947,l),
(504,947,l),
(420,830,l),
(381,884,l),
(335,947,l),
(238,947,l),
(378,750,l),
(462,750,l),
(605,947,l),
(504,947,l),
(420,830,l),
(381,884,l),
(335,947,l),
(238,947,l),
(378,750,l)
);
}
);
};
layerId = m001;
shapes = (
{
ref = E;
},
{
pos = (211,0);
ref = caroncomb;
}
);
width = 839;
}
);
unicode = 282;
},
{
color = 10;
glyphname = Ecircumflex;
lastChange = "2025-11-13 14:46:18 +0000";
layers = (
{
background = {
shapes = (
{
closed = 1;
nodes = (
(814,0,l),
(814,230,l),
(803,205,o),
(782,187,o),
(751,174,cs),
(740,170,o),
(716,168,o),
(681,168,cs),
(520,168,l),
(358,167,l),
(358,282,l),
(722,282,l),
(722,431,l),
(358,431,l),
(358,532,l),
(707,532,ls),
(748,532,o),
(780,518,o),
(802,490,c),
(802,595,l),
(801,700,l),
(25,701,l),
(57,681,o),
(76,643,o),
(75,606,cs),
(75,91,ls),
(75,51,o),
(58,21,o),
(25,0,c)
);
},
{
closed = 1;
nodes = (
(334,751,l),
(380,814,l),
(418,867,l),
(461,808,l),
(502,751,l),
(604,751,l),
(460,948,l),
(376,948,l),
(304,846,l),
(236,751,l),
(334,751,l),
(380,814,l),
(418,867,l),
(461,808,l),
(502,751,l),
(604,751,l),
(460,948,l),
(376,948,l),
(304,846,l),
(236,751,l),
(334,751,l),
(380,814,l),
(418,867,l),
(461,808,l),
(502,751,l),
(604,751,l),
(460,948,l),
(376,948,l),
(304,846,l),
(236,751,l)
);
}
);
};
layerId = m001;
shapes = (
{
ref = E;
},
{
pos = (211,0);
ref = circumflexcomb;
}
);
width = 839;
}
);
unicode = 202;
},
{
color = 10;
glyphname = Edieresis;
lastChange = "2025-11-13 14:46:18 +0000";
layers = (
{
background = {
shapes = (
{
closed = 1;
nodes = (
(814,0,l),
(814,230,l),
(803,205,o),
(782,187,o),
(751,174,cs),
(740,170,o),
(716,168,o),
(681,168,cs),
(520,168,l),
(358,167,l),
(358,282,l),
(722,282,l),
(722,431,l),
(358,431,l),
(358,532,l),
(707,532,ls),
(748,532,o),
(780,518,o),
(802,490,c),
(802,595,l),
(801,700,l),
(25,701,l),
(57,681,o),
(76,643,o),
(75,606,cs),
(75,91,ls),
(75,51,o),
(58,21,o),
(25,0,c)
);
},
{
closed = 1;
nodes = (
(351,751,o),
(402,790,o),
(402,851,cs),
(402,910,o),
(360,951,o),
(288,951,cs),
(215,951,o),
(174,909,o),
(174,851,cs),
(174,788,o),
(221,751,o),
(288,751,cs)
);
},
{
closed = 1;
nodes = (
(616,751,o),
(667,790,o),
(667,851,cs),
(667,910,o),
(626,951,o),
(553,951,cs),
(480,951,o),
(439,909,o),
(439,851,cs),
(439,788,o),
(486,751,o),
(553,751,cs)
);
}
);
};
layerId = m001;
shapes = (
{
ref = E;
},
{
pos = (148,0);
ref = dieresiscomb;
}
);
width = 839;
}
);
unicode = 203;
},
{
color = 10;
glyphname = Edotaccent;
lastChange = "2025-11-13 14:46:18 +0000";
layers = (
{
background = {
shapes = (
{
closed = 1;
nodes = (
(814,0,l),
(814,230,l),
(803,205,o),
(782,187,o),
(751,174,cs),
(740,170,o),
(716,168,o),
(681,168,cs),
(520,168,l),
(358,167,l),
(358,282,l),
(722,282,l),
(722,431,l),
(358,431,l),
(358,532,l),
(707,532,ls),
(748,532,o),
(780,518,o),
(802,490,c),
(802,595,l),
(801,700,l),
(25,701,l),
(57,681,o),
(76,643,o),
(75,606,cs),
(75,91,ls),
(75,51,o),
(58,21,o),
(25,0,c)
);
},
{
closed = 1;
nodes = (
(483,750,o),
(534,790,o),
(534,849,cs),
(534,908,o),
(492,949,o),
(420,949,cs),
(349,949,o),
(307,907,o),
(307,849,cs),
(307,788,o),
(355,750,o),
(420,750,cs)
);
}
);
};
layerId = m001;
shapes = (
{
ref = E;
},
{
pos = (282,0);
ref = dotaccentcomb;
}
);
width = 839;
}
);
unicode = 278;
},
{
color = 10;
glyphname = Egrave;
lastChange = "2025-11-13 14:46:18 +0000";
layers = (
{
background = {
shapes = (
{
closed = 1;
nodes = (
(814,-11,l),
(814,221,l),
(803,196,o),
(782,177,o),
(751,164,cs),
(740,160,o),
(716,158,o),
(681,158,cs),
(520,158,l),
(358,157,l),
(358,274,l),
(722,274,l),
(722,424,l),
(358,424,l),
(358,526,l),
(707,526,ls),
(748,526,o),
(780,512,o),
(802,484,c),
(802,590,l),
(801,696,l),
(25,697,l),
(57,677,o),
(76,638,o),
(75,601,cs),
(75,81,ls),
(75,40,o),
(58,10,o),
(25,-11,c)
);
},
{
closed = 1;
nodes = (
(567,750,l),
(480,904,l),
(472,926,l),
(464,948,l),
(158,948,l),
(261,860,l),
(389,750,l),
(567,750,l),
(480,904,l),
(472,926,l),
(464,948,l),
(158,948,l),
(261,860,l),
(389,750,l),
(567,750,l),
(480,904,l),
(472,926,l),
(464,948,l),
(158,948,l),
(261,860,l),
(389,750,l)
);
}
);
};
layerId = m001;
shapes = (
{
ref = E;
},
{
pos = (108,0);
ref = gravecomb;
}
);
width = 839;
}
);
unicode = 200;
},
{
color = 10;
glyphname = Emacron;
lastChange = "2025-11-13 14:46:18 +0000";
layers = (
{
background = {
shapes = (
{
closed = 1;
nodes = (
(814,0,l),
(814,230,l),
(803,205,o),
(782,187,o),
(751,174,cs),
(740,170,o),
(716,168,o),
(681,168,cs),
(520,168,l),
(358,167,l),
(358,282,l),
(722,282,l),
(722,431,l),
(358,431,l),
(358,532,l),
(707,532,ls),
(748,532,o),
(780,518,o),
(802,490,c),
(802,595,l),
(801,700,l),
(25,701,l),
(57,681,o),
(76,643,o),
(75,606,cs),
(75,91,ls),
(75,51,o),
(58,21,o),
(25,0,c)
);
},
{
closed = 1;
nodes = (
(688,751,l),
(688,931,l),
(153,931,l),
(153,751,l)
);
}
);
};
layerId = m001;
shapes = (
{
ref = E;
},
{
pos = (223,0);
ref = macroncomb;
}
);
width = 839;
}
);
unicode = 274;
},
{
color = 10;
glyphname = Eogonek;
lastChange = "2025-11-13 14:46:18 +0000";
layers = (
{
background = {
shapes = (
{
closed = 1;
nodes = (
(636,-343,o),
(702,-325,o),
(759,-290,c),
(759,-159,l),
(716,-198,o),
(670,-217,o),
(619,-217,cs),
(585,-217,o),
(564,-207,o),
(556,-188,cs),
(552,-179,o),
(550,-171,o),
(550,-163,cs),
(550,-155,l),
(552,-144,o),
(557,-134,o),
(564,-125,cs),
(573,-111,o),
(588,-92,o),
(611,-68,cs),
(634,-44,o),
(649,-25,o),
(658,-10,c),
(662,0,l),
(814,0,l),
(814,230,l),
(803,205,o),
(782,187,o),
(751,174,cs),
(740,170,o),
(716,168,o),
(681,168,cs),
(520,168,l),
(358,167,l),
(358,282,l),
(722,282,l),
(722,431,l),
(358,431,l),
(358,532,l),
(707,532,ls),
(748,532,o),
(780,518,o),
(802,490,c),
(802,595,l),
(801,700,l),
(25,701,l),
(57,681,o),
(76,643,o),
(75,606,cs),
(75,91,ls),
(75,51,o),
(58,21,o),
(25,0,c),
(484,0,l),
(475,-14,l),
(447,-49,o),
(397,-90,o),
(373,-141,c),
(360,-162,o),
(354,-185,o),
(354,-210,cs),
(355,-219,ls),
(356,-248,o),
(366,-271,o),
(385,-290,cs),
(410,-318,o),
(456,-335,o),
(523,-341,cs),
(535,-342,o),
(547,-343,o),
(559,-343,cs)
);
}
);
};
layerId = m001;
shapes = (
{
ref = E;
},
{
pos = (519,10);
ref = ogonekcomb;
}
);
width = 839;
}
);
unicode = 280;
},
{
color = 6;
glyphname = F;
lastChange = "2025-11-13 14:46:18 +0000";
layers = (
{
anchors = (
{
name = bottom;
pos = (397,0);
},
{
name = top;
pos = (397,700);
}
);
background = {
shapes = (
{
closed = 1;
nodes = (
(153,1,o),
(281,1,o),
(409,0,c),
(376,21,o),
(359,51,o),
(359,91,cs),
(359,259,l),
(689,259,l),
(689,408,l),
(359,408,l),
(359,532,l),
(674,532,ls),
(718,531,o),
(749,516,o),
(768,489,c),
(768,700,l),
(397,700,l),
(25,701,l),
(58,682,o),
(77,646,o),
(76,606,cs),
(76,95,ls),
(77,58,o),
(57,19,o),
(25,0,c)
);
}
);
};
layerId = m001;
shapes = (
{
closed = 1;
nodes = (
(409,2,l),
(376,23,o),
(359,51,o),
(359,91,cs),
(359,259,l),
(689,259,l),
(689,408,l),
(359,408,l),
(359,532,l),
(674,532,ls),
(718,532,o),
(749,516,o),
(768,489,c),
(768,700,l),
(25,700,l),
(58,681,o),
(76,646,o),
(76,606,cs),
(76,95,ls),
(76,58,o),
(57,21,o),
(25,2,c)
);
}
);
width = 793;
}
);
unicode = 70;
},
{
color = 6;
glyphname = G;
lastChange = "2025-11-13 14:46:18 +0000";
layers = (
{
anchors = (
{
name = bottom;
pos = (490,0);
},
{
name = top;
pos = (500,700);
}
);
background = {
shapes = (
{
closed = 1;
nodes = (
(614,-23,o),
(695,-13,o),
(792,8,cs),
(858,22,ls),
(893,29,o),
(923,33,o),
(954,33,c),
(949,38,o),
(945,43,o),
(942,50,cs),
(938,59,ls),
(937,61,o),
(936,64,o),
(935,69,cs),
(933,82,o),
(932,91,o),
(932,97,cs),
(932,108,l),
(931,117,l),
(931,266,l),
(933,296,ls),
(934,311,o),
(941,334,o),
(954,349,c),
(644,349,l),
(668,334,o),
(681,307,o),
(682,266,cs),
(682,149,l),
(653,143,o),
(617,141,o),
(576,142,cs),
(503,145,o),
(434,175,o),
(391,230,cs),
(359,271,o),
(345,318,o),
(349,373,cs),
(352,423,o),
(369,461,o),
(400,487,cs),
(432,516,o),
(478,532,o),
(538,537,cs),
(608,540,o),
(673,533,o),
(732,514,cs),
(780,499,o),
(828,474,o),
(877,440,c),
(877,665,l),
(834,683,o),
(782,696,o),
(720,705,cs),
(622,719,o),
(530,722,o),
(443,713,cs),
(316,700,o),
(216,664,o),
(143,603,cs),
(80,554,o),
(40,477,o),
(29,394,cs),
(15,285,o),
(35,196,o),
(89,126,cs),
(138,63,o),
(215,20,o),
(320,-3,cs),
(389,-18,o),
(465,-24,o),
(549,-23,cs)
);
}
);
};
layerId = m001;
shapes = (
{
closed = 1;
nodes = (
(638,-23,o),
(723,-7,o),
(858,22,cs),
(893,29,o),
(923,33,o),
(954,33,c),
(935,52,o),
(931,75,o),
(931,102,cs),
(931,262,ls),
(931,307,o),
(935,327,o),
(954,349,c),
(644,349,l),
(668,334,o),
(682,307,o),
(682,266,cs),
(682,149,l),
(658,144,o),
(628,142,o),
(596,142,cs),
(459,142,o),
(348,226,o),
(348,355,cs),
(348,469,o),
(420,538,o),
(569,538,cs),
(687,538,o),
(780,507,o),
(877,440,c),
(877,665,l),
(784,704,o),
(644,718,o),
(545,718,cs),
(262,718,o),
(25,613,o),
(25,329,cs),
(25,52,o),
(270,-23,o),
(531,-23,cs)
);
}
);
width = 979;
}
);
unicode = 71;
},
{
color = 10;
glyphname = Gbreve;
lastChange = "2025-11-13 14:46:18 +0000";
layers = (
{
background = {
shapes = (
{
closed = 1;
nodes = (
(614,-23,o),
(695,-13,o),
(792,8,cs),
(858,22,ls),
(893,29,o),
(923,33,o),
(954,33,c),
(949,38,o),
(945,43,o),
(942,50,cs),
(938,59,ls),
(937,61,o),
(936,64,o),
(935,69,cs),
(933,82,o),
(932,91,o),
(932,97,cs),
(932,108,l),
(931,117,l),
(931,266,l),
(933,296,ls),
(934,311,o),
(941,334,o),
(954,349,c),
(644,349,l),
(668,334,o),
(681,307,o),
(682,266,cs),
(682,149,l),
(653,143,o),
(617,141,o),
(576,142,cs),
(503,145,o),
(434,175,o),
(391,230,cs),
(359,271,o),
(345,318,o),
(349,373,cs),
(352,423,o),
(369,461,o),
(400,487,cs),
(432,516,o),
(478,532,o),
(538,537,cs),
(608,540,o),
(673,533,o),
(732,514,cs),
(780,499,o),
(828,474,o),
(877,440,c),
(877,665,l),
(834,683,o),
(782,696,o),
(720,705,cs),
(622,719,o),
(530,722,o),
(443,713,cs),
(316,700,o),
(216,664,o),
(143,603,cs),
(80,554,o),
(40,477,o),
(29,394,cs),
(15,285,o),
(35,196,o),
(89,126,cs),
(138,63,o),
(215,20,o),
(320,-3,cs),
(389,-18,o),
(465,-24,o),
(549,-23,cs)
);
},
{
closed = 1;
nodes = (
(565,771,o),
(620,789,o),
(659,826,cs),
(699,863,o),
(719,910,o),
(718,968,c),
(719,969,o),
(719,969,o),
(718,969,cs),
(569,969,l),
(570,932,o),
(542,906,o),
(493,906,cs),
(442,906,o),
(418,933,o),
(418,969,c),
(269,969,l),
(270,969,o),
(270,969,o),
(269,968,c),
(270,911,o),
(288,863,o),
(327,827,cs),
(346,810,o),
(369,796,o),
(398,786,cs),
(425,776,o),
(456,771,o),
(493,771,cs)
);
}
);
};
layerId = m001;
shapes = (
{
ref = G;
},
{
pos = (250,0);
ref = brevecomb;
}
);
width = 979;
}
);
unicode = 286;
},
{
color = 10;
glyphname = Gcircumflex;
lastChange = "2025-11-13 14:46:18 +0000";
layers = (
{
background = {
shapes = (
{
closed = 1;
nodes = (
(614,-23,o),
(695,-13,o),
(792,8,cs),
(858,22,ls),
(893,29,o),
(923,33,o),
(954,33,c),
(949,38,o),
(945,43,o),
(942,50,cs),
(938,59,ls),
(937,61,o),
(936,64,o),
(935,69,cs),
(933,82,o),
(932,91,o),
(932,97,cs),
(932,108,l),
(931,117,l),
(931,266,l),
(933,296,ls),
(934,311,o),
(941,334,o),
(954,349,c),
(644,349,l),
(668,334,o),
(681,307,o),
(682,266,cs),
(682,149,l),
(653,143,o),
(617,141,o),
(576,142,cs),
(503,145,o),
(434,175,o),
(391,230,cs),
(359,271,o),
(345,318,o),
(349,373,cs),
(352,423,o),
(369,461,o),
(400,487,cs),
(432,516,o),
(478,532,o),
(538,537,cs),
(608,540,o),
(673,533,o),
(732,514,cs),
(780,499,o),
(828,474,o),
(877,440,c),
(877,665,l),
(834,683,o),
(782,696,o),
(720,705,cs),
(622,719,o),
(530,722,o),
(443,713,cs),
(316,700,o),
(216,664,o),
(143,603,cs),
(80,554,o),
(40,477,o),
(29,394,cs),
(15,285,o),
(35,196,o),
(89,126,cs),
(138,63,o),
(215,20,o),
(320,-3,cs),
(389,-18,o),
(465,-24,o),
(549,-23,cs)
);
},
{
closed = 1;
nodes = (
(394,750,l),
(440,813,l),
(478,866,l),
(521,807,l),
(562,750,l),
(664,750,l),
(520,947,l),
(436,947,l),
(364,845,l),
(296,750,l),
(394,750,l),
(440,813,l),
(478,866,l),
(521,807,l),
(562,750,l),
(664,750,l),
(520,947,l),
(436,947,l),
(364,845,l),
(296,750,l),
(394,750,l),
(440,813,l),
(478,866,l),
(521,807,l),
(562,750,l),
(664,750,l),
(520,947,l),
(436,947,l),
(364,845,l),
(296,750,l)
);
}
);
};
layerId = m001;
shapes = (
{
ref = G;
},
{
pos = (291,0);
ref = circumflexcomb;
}
);
width = 979;
}
);
unicode = 284;
},
{
color = 10;
glyphname = Gcommaaccent;
lastChange = "2025-11-13 14:46:18 +0000";
layers = (
{
background = {
shapes = (
{
closed = 1;
nodes = (
(614,-23,o),
(695,-13,o),
(792,8,cs),
(858,22,ls),
(893,29,o),
(923,33,o),
(954,33,c),
(949,38,o),
(945,43,o),
(942,50,cs),
(938,59,ls),
(937,61,o),
(936,64,o),
(935,69,cs),
(933,82,o),
(932,91,o),
(932,97,cs),
(932,108,l),
(931,117,l),
(931,266,l),
(933,296,ls),
(934,311,o),
(941,334,o),
(954,349,c),
(644,349,l),
(668,334,o),
(681,307,o),
(682,266,cs),
(682,149,l),
(653,143,o),
(617,141,o),
(576,142,cs),
(503,145,o),
(434,175,o),
(391,230,cs),
(359,271,o),
(345,318,o),
(349,373,cs),
(352,423,o),
(369,461,o),
(400,487,cs),
(432,516,o),
(478,532,o),
(538,537,cs),
(608,540,o),
(673,533,o),
(732,514,cs),
(780,499,o),
(828,474,o),
(877,440,c),
(877,665,l),
(834,683,o),
(782,696,o),
(720,705,cs),
(622,719,o),
(530,722,o),
(443,713,cs),
(316,700,o),
(216,664,o),
(143,603,cs),
(80,554,o),
(40,477,o),
(29,394,cs),
(15,285,o),
(35,196,o),
(89,126,cs),
(138,63,o),
(215,20,o),
(320,-3,cs),
(389,-18,o),
(465,-24,o),
(549,-23,cs)
);
},
{
closed = 1;
nodes = (
(424,-233,o),
(443,-143,o),
(450,-115,cs),
(452,-106,o),
(453,-93,o),
(453,-74,c),
(592,-74,l),
(552,-156,o),
(520,-223,o),
(497,-274,c),
(416,-274,l)
);
},
{
closed = 1;
nodes = (
(424,-233,o),
(443,-143,o),
(450,-115,cs),
(452,-106,o),
(453,-93,o),
(453,-74,c),
(592,-74,l),
(552,-156,o),
(520,-223,o),
(497,-274,c),
(416,-274,l)
);
},
{
closed = 1;
nodes = (
(497,-274,l),
(520,-223,o),
(552,-156,o),
(592,-74,c),
(453,-74,l),
(453,-93,o),
(452,-106,o),
(450,-115,cs),
(443,-143,o),
(424,-233,o),
(416,-274,c)
);
}
);
};
layerId = m001;
shapes = (
{
ref = G;
},
{
pos = (328,0);
ref = commaaccentcomb;
}
);
width = 979;
}
);
unicode = 290;
},
{
color = 10;
glyphname = Gdotaccent;
lastChange = "2025-11-13 14:46:18 +0000";
layers = (
{
background = {
shapes = (
{
closed = 1;
nodes = (
(614,-23,o),
(695,-13,o),
(792,8,cs),
(858,22,ls),
(893,29,o),
(923,33,o),
(954,33,c),
(949,38,o),
(945,43,o),
(942,50,cs),
(938,59,ls),
(937,61,o),
(936,64,o),
(935,69,cs),
(933,82,o),
(932,91,o),
(932,97,cs),
(932,108,l),
(931,117,l),
(931,266,l),
(933,296,ls),
(934,311,o),
(941,334,o),
(954,349,c),
(644,349,l),
(668,334,o),
(681,307,o),
(682,266,cs),
(682,149,l),
(653,143,o),
(617,141,o),
(576,142,cs),
(503,145,o),
(434,175,o),
(391,230,cs),
(359,271,o),
(345,318,o),
(349,373,cs),
(352,423,o),
(369,461,o),
(400,487,cs),
(432,516,o),
(478,532,o),
(538,537,cs),
(608,540,o),
(673,533,o),
(732,514,cs),
(780,499,o),
(828,474,o),
(877,440,c),
(877,665,l),
(834,683,o),
(782,696,o),
(720,705,cs),
(622,719,o),
(530,722,o),
(443,713,cs),
(316,700,o),
(216,664,o),
(143,603,cs),
(80,554,o),
(40,477,o),
(29,394,cs),
(15,285,o),
(35,196,o),
(89,126,cs),
(138,63,o),
(215,20,o),
(320,-3,cs),
(389,-18,o),
(465,-24,o),
(549,-23,cs)
);
},
{
closed = 1;
nodes = (
(563,750,o),
(614,790,o),
(614,849,cs),
(614,908,o),
(573,949,o),
(501,949,cs),
(428,949,o),
(387,907,o),
(387,849,cs),
(387,788,o),
(434,750,o),
(501,750,cs)
);
}
);
};
layerId = m001;
shapes = (
{
ref = G;
},
{
pos = (362,0);
ref = dotaccentcomb;
}
);
width = 979;
}
);
unicode = 288;
},
{
color = 6;
glyphname = H;
lastChange = "2025-11-13 14:46:18 +0000";
layers = (
{
anchors = (
{
name = bottom;
pos = (515,0);
},
{
name = center;
pos = (515,525);
},
{
name = top;
pos = (515,700);
},
{
name = topleft;
pos = (20,700);
}
);
background = {
shapes = (
{
closed = 1;
nodes = (
(384,0,l),
(369,15,o),
(361,43,o),
(360,85,cs),
(360,295,l),
(671,295,l),
(671,85,ls),
(670,44,o),
(662,15,o),
(648,0,c),
(1004,0,l),
(972,19,o),
(953,56,o),
(954,96,cs),
(954,607,ls),
(953,644,o),
(972,681,o),
(1004,700,c),
(648,700,l),
(662,685,o),
(670,657,o),
(671,617,cs),
(671,438,l),
(360,438,l),
(360,617,ls),
(361,657,o),
(369,685,o),
(383,700,c),
(27,700,l),
(59,681,o),
(78,643,o),
(77,606,cs),
(77,96,ls),
(78,56,o),
(58,16,o),
(25,0,c)
);
}
);
};
layerId = m001;
shapes = (
{
closed = 1;
nodes = (
(384,0,l),
(369,15,o),
(360,43,o),
(360,85,cs),
(360,295,l),
(671,295,l),
(671,85,ls),
(671,44,o),
(662,15,o),
(648,0,c),
(1004,0,l),
(972,19,o),
(954,56,o),
(954,96,cs),
(954,607,ls),
(954,644,o),
(972,681,o),
(1004,700,c),
(648,700,l),
(662,685,o),
(671,657,o),
(671,617,cs),
(671,438,l),
(360,438,l),
(360,617,ls),
(360,657,o),
(369,685,o),
(383,700,c),
(27,700,l),
(59,681,o),
(77,643,o),
(77,606,cs),
(77,96,ls),
(77,56,o),
(58,16,o),
(25,0,c)
);
}
);
width = 1029;
}
);
unicode = 72;
},
{
color = 3;
glyphname = Hbar;
lastChange = "2025-11-13 14:46:18 +0000";
layers = (
{
background = {
shapes = (
{
closed = 1;
nodes = (
(413,0,l),
(398,15,o),
(390,43,o),
(389,85,cs),
(389,295,l),
(700,295,l),
(700,85,ls),
(699,44,o),
(691,15,o),
(677,0,c),
(1033,0,l),
(1001,19,o),
(982,56,o),
(983,96,cs),
(983,482,l),
(1095,482,l),
(1095,648,l),
(990,648,l),
(995,660,ls),
(1004,677,o),
(1017,691,o),
(1033,700,c),
(677,700,l),
(687,689,o),
(694,671,o),
(697,648,c),
(392,648,l),
(395,671,o),
(402,689,o),
(412,700,c),
(56,700,l),
(72,691,o),
(84,677,o),
(93,660,c),
(96,656,o),
(98,652,o),
(99,648,c),
(0,648,l),
(0,482,l),
(106,482,l),
(106,96,ls),
(107,56,o),
(87,16,o),
(54,0,c)
);
},
{
closed = 1;
nodes = (
(389,482,l),
(700,482,l),
(700,438,l),
(389,438,l)
);
}
);
};
layerId = m001;
shapes = (
{
closed = 1;
nodes = (
(1095,482,l),
(1095,648,l),
(0,648,l),
(0,482,l)
);
},
{
pos = (29,0);
ref = H;
}
);
width = 1095;
}
);
unicode = 294;
},
{
color = 10;
glyphname = Hcircumflex;
lastChange = "2025-11-13 14:46:18 +0000";
layers = (
{
background = {
shapes = (
{
closed = 1;
nodes = (
(384,0,l),
(369,15,o),
(361,43,o),
(360,85,cs),
(360,295,l),
(671,295,l),
(671,85,ls),
(670,44,o),
(662,15,o),
(648,0,c),
(1004,0,l),
(972,19,o),
(953,56,o),
(954,96,cs),
(954,607,ls),
(953,644,o),
(972,681,o),
(1004,700,c),
(648,700,l),
(662,685,o),
(670,657,o),
(671,617,cs),
(671,438,l),
(360,438,l),
(360,617,ls),
(361,657,o),
(369,685,o),
(383,700,c),
(27,700,l),
(59,681,o),
(78,643,o),
(77,606,cs),
(77,96,ls),
(78,56,o),
(58,16,o),
(25,0,c)
);
},
{
closed = 1;
nodes = (
(433,750,l),
(479,813,l),
(517,866,l),
(560,807,l),
(601,750,l),
(703,750,l),
(559,947,l),
(475,947,l),
(403,845,l),
(335,750,l),
(433,750,l),
(479,813,l),
(517,866,l),
(560,807,l),
(601,750,l),
(703,750,l),
(559,947,l),
(475,947,l),
(403,845,l),
(335,750,l),
(433,750,l),
(479,813,l),
(517,866,l),
(560,807,l),
(601,750,l),
(703,750,l),
(559,947,l),
(475,947,l),
(403,845,l),
(335,750,l)
);
}
);
};
layerId = m001;
shapes = (
{
ref = H;
},
{
pos = (306,0);
ref = circumflexcomb;
}
);
width = 1029;
}
);
unicode = 292;
},
{
color = 6;
glyphname = I;
lastChange = "2025-11-13 14:46:18 +0000";
layers = (
{
anchors = (
{
name = bottom;
pos = (217,0);
},
{
name = ogonek;
pos = (314,0);
},
{
name = top;
pos = (217,700);
},
{
name = topleft;
pos = (20,700);
}
);
background = {
shapes = (
{
closed = 1;
nodes = (
(408,-1,l),
(376,18,o),
(357,55,o),
(358,95,cs),
(358,606,ls),
(357,643,o),
(376,681,o),
(408,700,c),
(25,700,l),
(57,681,o),
(76,644,o),
(75,605,cs),
(75,90,ls),
(75,50,o),
(58,20,o),
(25,-1,c)
);
}
);
};
layerId = m001;
shapes = (
{
closed = 1;
nodes = (
(408,0,l),
(376,19,o),
(358,56,o),
(358,96,cs),
(358,606,ls),
(358,643,o),
(376,681,o),
(408,700,c),
(25,700,l),
(57,681,o),
(75,644,o),
(75,605,cs),
(75,91,ls),
(75,51,o),
(58,21,o),
(25,0,c)
);
}
);
width = 433;
}
);
unicode = 73;
},
{
color = 10;
glyphname = IJ;
lastChange = "2025-11-14 13:53:03 +0000";
layers = (
{
background = {
shapes = (
{
closed = 1;
nodes = (
(793,-8,o),
(844,18,o),
(880,59,cs),
(916,101,o),
(934,159,o),
(934,233,cs),
(934,574,l),
(937,607,o),
(930,623,o),
(942,647,c),
(949,669,o),
(963,687,o),
(985,700,c),
(601,700,l),
(633,681,o),
(652,643,o),
(651,606,cs),
(651,254,ls),
(651,219,o),
(642,193,o),
(625,176,cs),
(606,157,o),
(574,149,o),
(531,153,cs),
(496,156,o),
(464,171,o),
(433,200,c),
(433,10,l),
(446,4,o),
(476,-4,o),
(525,-15,c),
(600,-27,o),
(668,-28,o),
(727,-19,cs)
);
},
{
closed = 1;
nodes = (
(408,-1,l),
(376,18,o),
(357,55,o),
(358,95,cs),
(358,606,ls),
(357,643,o),
(376,681,o),
(408,700,c),
(25,700,l),
(57,681,o),
(76,644,o),
(75,605,cs),
(75,90,ls),
(75,50,o),
(58,20,o),
(25,-1,c)
);
}
);
};
layerId = m001;
shapes = (
{
ref = I;
},
{
alignment = -1;
attr = {
identifier = 5C4182F3;
};
pos = (408,0);
ref = J;
}
);
width = 1010;
}
);
metricRight = J;
unicode = 306;
},
{
color = 10;
glyphname = Iacute;
lastChange = "2025-11-13 14:46:18 +0000";
layers = (
{
background = {
shapes = (
{
closed = 1;
nodes = (
(408,-1,l),
(376,18,o),
(357,55,o),
(358,95,cs),
(358,606,ls),
(357,643,o),
(376,681,o),
(408,700,c),
(25,700,l),
(57,681,o),
(76,644,o),
(75,605,cs),
(75,90,ls),
(75,50,o),
(58,20,o),
(25,-1,c)
);
},
{
closed = 1;
nodes = (
(250,750,l),
(281,775,o),
(324,812,o),
(379,860,cs),
(481,948,l),
(175,948,l),
(172,937,o),
(164,915,o),
(160,904,c),
(72,750,l),
(250,750,l),
(281,775,o),
(324,812,o),
(379,860,cs),
(481,948,l),
(175,948,l),
(172,937,o),
(164,915,o),
(160,904,c),
(72,750,l),
(250,750,l),
(281,775,o),
(324,812,o),
(379,860,cs),
(481,948,l),
(175,948,l),
(172,937,o),
(164,915,o),
(160,904,c),
(72,750,l)
);
}
);
};
layerId = m001;
shapes = (
{
ref = I;
},
{
pos = (-21,0);
ref = acutecomb;
}
);
width = 433;
}
);
unicode = 205;
},
{
color = 10;
glyphname = Ibreve;
lastChange = "2025-11-13 14:46:18 +0000";
layers = (
{
background = {
shapes = (
{
closed = 1;
nodes = (
(443,-1,l),
(411,18,o),
(392,55,o),
(393,95,cs),
(393,606,ls),
(392,643,o),
(411,681,o),
(443,700,c),
(60,700,l),
(92,681,o),
(111,644,o),
(110,605,cs),
(110,90,ls),
(110,50,o),
(93,20,o),
(60,-1,c)
);
},
{
closed = 1;
nodes = (
(321,751,o),
(376,769,o),
(415,806,cs),
(455,843,o),
(475,890,o),
(474,948,c),
(475,949,o),
(475,949,o),
(474,949,cs),
(325,949,l),
(326,912,o),
(298,886,o),
(250,886,cs),
(199,886,o),
(174,913,o),
(174,949,c),
(25,949,l),
(26,949,o),
(26,949,o),
(25,948,c),
(26,891,o),
(44,843,o),
(84,807,cs),
(103,790,o),
(126,776,o),
(154,766,cs),
(181,756,o),
(213,751,o),
(250,751,cs)
);
}
);
};
layerId = m001;
shapes = (
{
ref = I;
},
{
pos = (-33,0);
ref = brevecomb;
}
);
width = 433;
}
);
unicode = 300;
},
{
color = 10;
glyphname = Icircumflex;
lastChange = "2025-11-13 14:46:18 +0000";
layers = (
{
background = {
shapes = (
{
closed = 1;
nodes = (
(408,-1,l),
(376,18,o),
(357,55,o),
(358,95,cs),
(358,606,ls),
(357,643,o),
(376,681,o),
(408,700,c),
(25,700,l),
(57,681,o),
(76,644,o),
(75,605,cs),
(75,90,ls),
(75,50,o),
(58,20,o),
(25,-1,c)
);
},
{
closed = 1;
nodes = (
(128,751,l),
(175,814,l),
(213,867,l),
(256,808,l),
(297,751,l),
(399,751,l),
(255,948,l),
(171,948,l),
(99,846,l),
(31,751,l),
(128,751,l),
(175,814,l),
(213,867,l),
(256,808,l),
(297,751,l),
(399,751,l),
(255,948,l),
(171,948,l),
(99,846,l),
(31,751,l),
(128,751,l),
(175,814,l),
(213,867,l),
(256,808,l),
(297,751,l),
(399,751,l),
(255,948,l),
(171,948,l),
(99,846,l),
(31,751,l)
);
}
);
};
layerId = m001;
shapes = (
{
ref = I;
},
{
pos = (8,0);
ref = circumflexcomb;
}
);
width = 433;
}
);
unicode = 206;
},
{
color = 10;
glyphname = Idieresis;
lastChange = "2025-11-13 14:46:18 +0000";
layers = (
{
background = {
shapes = (
{
closed = 1;
nodes = (
(463,-1,l),
(431,18,o),
(412,55,o),
(413,95,cs),
(413,606,ls),
(412,643,o),
(431,681,o),
(463,700,c),
(80,700,l),
(112,681,o),
(131,644,o),
(130,605,cs),
(130,90,ls),
(130,50,o),
(113,20,o),
(80,-1,c)
);
},
{
closed = 1;
nodes = (
(199,751,o),
(253,787,o),
(253,851,cs),
(253,910,o),
(212,951,o),
(139,951,cs),
(67,951,o),
(25,910,o),
(25,851,cs),
(25,788,o),
(72,751,o),
(139,751,cs)
);
},
{
closed = 1;
nodes = (
(464,751,o),
(519,788,o),
(519,851,cs),
(519,910,o),
(477,951,o),
(404,951,cs),
(332,951,o),
(290,909,o),
(290,851,cs),
(290,788,o),
(337,751,o),
(404,751,cs)
);
}
);
};
layerId = m001;
shapes = (
{
ref = I;
},
{
pos = (-55,0);
ref = dieresiscomb;
}
);
width = 433;
}
);
unicode = 207;
},
{
color = 10;
glyphname = Idotaccent;
lastChange = "2025-11-13 14:46:18 +0000";
layers = (
{
background = {
shapes = (
{
closed = 1;
nodes = (
(408,-1,l),
(376,18,o),
(357,55,o),
(358,95,cs),
(358,606,ls),
(357,643,o),
(376,681,o),
(408,700,c),
(25,700,l),
(57,681,o),
(76,644,o),
(75,605,cs),
(75,90,ls),
(75,50,o),
(58,20,o),
(25,-1,c)
);
},
{
closed = 1;
nodes = (
(279,750,o),
(330,790,o),
(330,849,cs),
(330,908,o),
(288,949,o),
(216,949,cs),
(145,949,o),
(103,907,o),
(103,849,cs),
(103,788,o),
(151,750,o),
(216,750,cs)
);
}
);
};
layerId = m001;
shapes = (
{
ref = I;
},
{
pos = (79,0);
ref = dotaccentcomb;
}
);
width = 433;
}
);
unicode = 304;
},
{
color = 10;
glyphname = Igrave;
lastChange = "2025-11-13 14:46:18 +0000";
layers = (
{
background = {
shapes = (
{
closed = 1;
nodes = (
(483,-1,l),
(451,18,o),
(432,55,o),
(433,95,cs),
(433,606,ls),
(432,643,o),
(451,681,o),
(483,700,c),
(100,700,l),
(132,681,o),
(151,644,o),
(150,605,cs),
(150,90,ls),
(150,50,o),
(133,20,o),
(100,-1,c)
);
},
{
closed = 1;
nodes = (
(434,750,l),
(346,904,l),
(342,915,o),
(334,937,o),
(331,948,c),
(25,948,l),
(127,860,ls),
(182,812,o),
(225,775,o),
(256,750,c),
(434,750,l),
(346,904,l),
(342,915,o),
(334,937,o),
(331,948,c),
(25,948,l),
(127,860,ls),
(182,812,o),
(225,775,o),
(256,750,c),
(434,750,l),
(346,904,l),
(342,915,o),
(334,937,o),
(331,948,c),
(25,948,l),
(127,860,ls),
(182,812,o),
(225,775,o),
(256,750,c)
);
}
);
};
layerId = m001;
shapes = (
{
ref = I;
},
{
pos = (-95,0);
ref = gravecomb;
}
);
width = 433;
}
);
unicode = 204;
},
{
color = 10;
glyphname = Imacron;
lastChange = "2025-11-13 14:46:18 +0000";
layers = (
{
background = {
shapes = (
{
closed = 1;
nodes = (
(488,-1,l),
(456,18,o),
(437,55,o),
(438,95,cs),
(438,606,ls),
(437,643,o),
(456,681,o),
(488,700,c),
(105,700,l),
(137,681,o),
(156,644,o),
(155,605,cs),
(155,90,ls),
(155,50,o),
(138,20,o),
(105,-1,c)
);
},
{
closed = 1;
nodes = (
(560,748,l),
(560,928,l),
(25,928,l),
(25,748,l)
);
}
);
};
layerId = m001;
shapes = (
{
ref = I;
},
{
pos = (20,0);
ref = macroncomb;
}
);
width = 433;
}
);
unicode = 298;
},
{
color = 10;
glyphname = Iogonek;
lastChange = "2025-11-13 14:46:18 +0000";
layers = (
{
background = {
shapes = (
{
closed = 1;
nodes = (
(288,-349,o),
(368,-331,o),
(434,-290,c),
(434,-157,l),
(391,-196,o),
(344,-216,o),
(293,-216,cs),
(259,-216,o),
(238,-206,o),
(229,-187,cs),
(223,-175,o),
(221,-164,o),
(223,-153,cs),
(225,-144,o),
(230,-134,o),
(237,-123,cs),
(246,-108,o),
(263,-89,o),
(290,-65,cs),
(301,-54,o),
(315,-35,o),
(332,-6,c),
(333,-5,o),
(334,-3,o),
(335,-1,c),
(426,-1,l),
(394,18,o),
(375,55,o),
(376,95,cs),
(376,606,ls),
(375,643,o),
(394,681,o),
(426,700,c),
(43,700,l),
(75,681,o),
(94,644,o),
(93,605,cs),
(93,90,ls),
(93,50,o),
(76,20,o),
(43,-1,c),
(154,-1,l),
(148,-11,l),
(107,-58,o),
(67,-91,o),
(44,-139,c),
(16,-186,o),
(19,-253,o),
(56,-290,cs),
(82,-319,o),
(128,-336,o),
(195,-342,cs)
);
}
);
};
layerId = m001;
shapes = (
{
ref = I;
},
{
pos = (78,0);
ref = ogonekcomb;
}
);
width = 433;
}
);
unicode = 302;
},
{
color = 10;
glyphname = Itilde;
lastChange = "2025-11-13 14:46:18 +0000";
layers = (
{
background = {
shapes = (
{
closed = 1;
nodes = (
(473,-1,l),
(441,18,o),
(422,55,o),
(423,95,cs),
(423,606,ls),
(422,643,o),
(441,681,o),
(473,700,c),
(90,700,l),
(122,681,o),
(141,644,o),
(140,605,cs),
(140,90,ls),
(140,50,o),
(123,20,o),
(90,-1,c)
);
},
{
closed = 1;
nodes = (
(40,781,o),
(59,801,o),
(84,812,c),
(98,821,o),
(113,816,o),
(135,816,c),
(164,812,o),
(207,803,o),
(263,790,cs),
(318,777,o),
(359,768,o),
(386,764,cs),
(421,760,o),
(458,775,o),
(479,803,cs),
(500,834,o),
(515,884,o),
(523,951,c),
(507,926,ls),
(499,915,o),
(483,896,o),
(467,887,cs),
(451,880,o),
(432,878,o),
(411,883,cs),
(390,886,o),
(351,894,o),
(294,907,cs),
(237,920,o),
(192,927,o),
(160,930,cs),
(124,935,o),
(94,924,o),
(71,897,cs),
(40,862,o),
(25,813,o),
(25,751,c),
(40,781,o),
(59,801,o),
(84,812,c),
(98,821,o),
(113,816,o),
(135,816,c),
(164,812,o),
(207,803,o),
(263,790,cs),
(318,777,o),
(359,768,o),
(386,764,cs),
(421,760,o),
(458,775,o),
(479,803,cs),
(500,834,o),
(515,884,o),
(523,951,c),
(507,926,ls),
(499,915,o),
(483,896,o),
(467,887,cs),
(451,880,o),
(432,878,o),
(411,883,cs),
(390,886,o),
(351,894,o),
(294,907,cs),
(237,920,o),
(192,927,o),
(160,930,cs),
(124,935,o),
(94,924,o),
(71,897,cs),
(40,862,o),
(25,813,o),
(25,751,c),
(40,781,o),
(59,801,o),
(84,812,c),
(98,821,o),
(113,816,o),
(135,816,c),
(164,812,o),
(207,803,o),
(263,790,cs),
(318,777,o),
(359,768,o),
(386,764,cs),
(421,760,o),
(458,775,o),
(479,803,cs),
(500,834,o),
(515,884,o),
(523,951,c),
(507,926,ls),
(499,915,o),
(483,896,o),
(467,887,cs),
(451,880,o),
(432,878,o),
(411,883,cs),
(390,886,o),
(351,894,o),
(294,907,cs),
(237,920,o),
(192,927,o),
(160,930,cs),
(124,935,o),
(94,924,o),
(71,897,cs),
(40,862,o),
(25,813,o),
(25,751,c)
);
}
);
};
layerId = m001;
shapes = (
{
ref = I;
},
{
pos = (-40,0);
ref = tildecomb;
}
);
width = 433;
}
);
unicode = 296;
},
{
color = 6;
glyphname = J;
lastChange = "2025-11-13 14:46:18 +0000";
layers = (
{
anchors = (
{
name = bottom;
pos = (301,0);
},
{
name = top;
pos = (386,700);
}
);
background = {
shapes = (
{
closed = 1;
nodes = (
(385,-8,o),
(436,18,o),
(472,59,cs),
(508,101,o),
(526,159,o),
(526,233,cs),
(526,574,l),
(529,607,o),
(522,623,o),
(534,647,c),
(541,669,o),
(555,687,o),
(577,700,c),
(193,700,l),
(225,681,o),
(244,643,o),
(243,606,cs),
(243,254,ls),
(243,219,o),
(234,193,o),
(217,176,cs),
(198,157,o),
(166,149,o),
(123,153,cs),
(88,156,o),
(56,171,o),
(25,200,c),
(25,10,l),
(38,4,o),
(68,-4,o),
(117,-15,c),
(192,-27,o),
(260,-28,o),
(319,-19,cs)
);
}
);
};
layerId = m001;
shapes = (
{
closed = 1;
nodes = (
(526,52,o),
(526,233,cs),
(526,602,ls),
(526,657,o),
(554,687,o),
(577,700,c),
(193,700,l),
(225,681,o),
(243,643,o),
(243,606,cs),
(243,254,ls),
(243,187,o),
(211,152,o),
(144,152,cs),
(100,152,o),
(62,165,o),
(25,200,c),
(25,10,l),
(73,-12,o),
(175,-25,o),
(236,-25,cs),
(417,-25,o)
);
}
);
width = 602;
}
);
unicode = 74;
},
{
color = 10;
glyphname = Jcircumflex;
lastChange = "2025-11-13 14:46:18 +0000";
layers = (
{
background = {
shapes = (
{
closed = 1;
nodes = (
(385,-8,o),
(436,18,o),
(472,59,cs),
(508,101,o),
(526,159,o),
(526,233,cs),
(526,574,l),
(529,607,o),
(522,623,o),
(534,647,c),
(541,669,o),
(555,687,o),
(577,700,c),
(193,700,l),
(225,681,o),
(244,643,o),
(243,606,cs),
(243,254,ls),
(243,219,o),
(234,193,o),
(217,176,cs),
(198,157,o),
(166,149,o),
(123,153,cs),
(88,156,o),
(56,171,o),
(25,200,c),
(25,10,l),
(38,4,o),
(68,-4,o),
(117,-15,c),
(192,-27,o),
(260,-28,o),
(319,-19,cs)
);
},
{
closed = 1;
nodes = (
(302,750,l),
(349,813,l),
(387,866,l),
(430,807,l),
(471,750,l),
(573,750,l),
(429,947,l),
(345,947,l),
(273,845,l),
(205,750,l),
(302,750,l),
(349,813,l),
(387,866,l),
(430,807,l),
(471,750,l),
(573,750,l),
(429,947,l),
(345,947,l),
(273,845,l),
(205,750,l),
(302,750,l),
(349,813,l),
(387,866,l),
(430,807,l),
(471,750,l),
(573,750,l),
(429,947,l),
(345,947,l),
(273,845,l),
(205,750,l)
);
}
);
};
layerId = m001;
shapes = (
{
ref = J;
},
{
pos = (177,0);
ref = circumflexcomb;
}
);
width = 602;
}
);
unicode = 308;
},
{
color = 6;
glyphname = K;
lastChange = "2025-11-13 14:46:18 +0000";
layers = (
{
anchors = (
{
name = bottom;
pos = (518,0);
},
{
name = top;
pos = (518,700);
}
);
background = {
shapes = (
{
closed = 1;
nodes = (
(915,-11,o),
(969,2,o),
(1011,29,c),
(988,32,o),
(961,45,o),
(931,68,cs),
(871,112,o),
(842,146,o),
(773,227,cs),
(605,419,l),
(871,647,ls),
(897,670,o),
(918,689,o),
(936,700,c),
(574,700,l),
(583,691,o),
(588,680,o),
(588,667,cs),
(588,658,o),
(582,645,o),
(568,629,cs),
(544,602,o),
(532,592,o),
(513,573,c),
(331,417,l),
(331,486,ls),
(331,603,o),
(349,675,o),
(385,700,c),
(25,700,l),
(61,673,o),
(79,602,o),
(79,486,cs),
(79,214,ls),
(79,98,o),
(61,27,o),
(25,0,c),
(385,0,l),
(354,23,o),
(336,84,o),
(331,183,c),
(425,263,l),
(556,114,ls),
(637,19,o),
(713,-11,o),
(848,-11,cs)
);
}
);
};
layerId = m001;
shapes = (
{
closed = 1;
nodes = (
(915,-11,o),
(969,2,o),
(1011,29,c),
(935,39,o),
(836,153,o),
(773,227,cs),
(605,419,l),
(871,647,ls),
(897,670,o),
(918,689,o),
(936,700,c),
(574,700,l),
(608,665,o),
(557,611,o),
(513,573,cs),
(331,417,l),
(331,486,ls),
(331,603,o),
(349,675,o),
(385,700,c),
(25,700,l),
(61,673,o),
(79,602,o),
(79,486,cs),
(79,214,ls),
(79,98,o),
(61,27,o),
(25,0,c),
(385,0,l),
(354,23,o),
(336,84,o),
(331,183,c),
(425,263,l),
(556,114,ls),
(637,19,o),
(713,-11,o),
(848,-11,cs)
);
}
);
width = 1036;
}
);
unicode = 75;
},
{
color = 10;
glyphname = Kcommaaccent;
lastChange = "2025-11-13 14:46:18 +0000";
layers = (
{
background = {
shapes = (
{
closed = 1;
nodes = (
(915,-11,o),
(969,2,o),
(1011,29,c),
(988,32,o),
(961,45,o),
(931,68,cs),
(871,112,o),
(842,146,o),
(773,227,cs),
(605,419,l),
(871,647,ls),
(897,670,o),
(918,689,o),
(936,700,c),
(574,700,l),
(583,691,o),
(588,680,o),
(588,667,cs),
(588,658,o),
(582,645,o),
(568,629,cs),
(544,602,o),
(532,592,o),
(513,573,c),
(331,417,l),
(331,486,ls),
(331,603,o),
(349,675,o),
(385,700,c),
(25,700,l),
(61,673,o),
(79,602,o),
(79,486,cs),
(79,214,ls),
(79,98,o),
(61,27,o),
(25,0,c),
(385,0,l),
(354,23,o),
(336,84,o),
(331,183,c),
(425,263,l),
(556,114,ls),
(637,19,o),
(713,-11,o),
(848,-11,cs)
);
},
{
closed = 1;
nodes = (
(414,-228,o),
(433,-138,o),
(440,-110,cs),
(442,-101,o),
(443,-88,o),
(443,-69,c),
(582,-69,l),
(542,-151,o),
(510,-218,o),
(487,-269,c),
(406,-269,l)
);
},
{
closed = 1;
nodes = (
(414,-228,o),
(433,-138,o),
(440,-110,cs),
(442,-101,o),
(443,-88,o),
(443,-69,c),
(582,-69,l),
(542,-151,o),
(510,-218,o),
(487,-269,c),
(406,-269,l)
);
},
{
closed = 1;
nodes = (
(487,-269,l),
(510,-218,o),
(542,-151,o),
(582,-69,c),
(443,-69,l),
(443,-88,o),
(442,-101,o),
(440,-110,cs),
(433,-138,o),
(414,-228,o),
(406,-269,c)
);
}
);
};
layerId = m001;
shapes = (
{
ref = K;
},
{
pos = (356,0);
ref = commaaccentcomb;
}
);
width = 1036;
}
);
unicode = 310;
},
{
color = 6;
glyphname = L;
lastChange = "2025-11-13 14:46:18 +0000";
layers = (
{
anchors = (
{
name = bottom;
pos = (409,0);
},
{
name = center;
pos = (409,350);
},
{
name = top;
pos = (255,700);
},
{
name = topright;
pos = (501,700);
}
);
background = {
shapes = (
{
closed = 1;
nodes = (
(792,-1,l),
(792,255,l),
(757,204,o),
(697,175,o),
(636,178,c),
(359,178,l),
(358,392,l),
(358,605,ls),
(358,648,o),
(375,680,o),
(409,700,c),
(281,699,o),
(153,699,o),
(25,700,c),
(57,681,o),
(76,643,o),
(75,606,cs),
(75,95,l),
(78,56,o),
(58,18,o),
(25,-1,c)
);
}
);
};
layerId = m001;
shapes = (
{
closed = 1;
nodes = (
(792,-1,l),
(792,255,l),
(757,204,o),
(697,178,o),
(636,178,cs),
(358,178,l),
(358,605,ls),
(358,648,o),
(375,680,o),
(409,700,c),
(25,700,l),
(57,681,o),
(75,643,o),
(75,606,cs),
(75,95,ls),
(75,56,o),
(58,18,o),
(25,-1,c)
);
}
);
width = 817;
}
);
unicode = 76;
},
{
color = 10;
glyphname = Lacute;
lastChange = "2025-11-13 14:46:18 +0000";
layers = (
{
background = {
shapes = (
{
closed = 1;
nodes = (
(792,-1,l),
(792,255,l),
(757,204,o),
(697,175,o),
(636,178,c),
(359,178,l),
(358,392,l),
(358,605,ls),
(358,648,o),
(375,680,o),
(409,700,c),
(281,699,o),
(153,699,o),
(25,700,c),
(57,681,o),
(76,643,o),
(75,606,cs),
(75,95,l),
(78,56,o),
(58,18,o),
(25,-1,c)
);
},
{
closed = 1;
nodes = (
(468,750,l),
(597,860,l),
(699,948,l),
(393,948,l),
(386,926,l),
(377,904,l),
(290,750,l),
(468,750,l),
(597,860,l),
(699,948,l),
(393,948,l),
(386,926,l),
(377,904,l),
(290,750,l),
(468,750,l),
(597,860,l),
(699,948,l),
(393,948,l),
(386,926,l),
(377,904,l),
(290,750,l)
);
}
);
};
layerId = m001;
shapes = (
{
ref = L;
},
{
pos = (17,0);
ref = acutecomb;
}
);
width = 817;
}
);
unicode = 313;
},
{
color = 10;
glyphname = Lcaron;
lastChange = "2025-11-13 14:46:18 +0000";
layers = (
{
background = {
shapes = (
{
closed = 1;
nodes = (
(792,-1,l),
(792,255,l),
(757,204,o),
(697,175,o),
(636,178,c),
(359,178,l),
(358,392,l),
(358,605,ls),
(358,648,o),
(375,680,o),
(409,700,c),
(281,699,o),
(153,699,o),
(25,700,c),
(57,681,o),
(76,643,o),
(75,606,cs),
(75,95,l),
(78,56,o),
(58,18,o),
(25,-1,c)
);
},
{
closed = 1;
nodes = (
(607,541,o),
(626,631,o),
(633,659,cs),
(635,668,o),
(636,681,o),
(636,700,c),
(775,700,l),
(735,618,o),
(703,551,o),
(680,500,c),
(599,500,l)
);
},
{
closed = 1;
nodes = (
(607,541,o),
(626,631,o),
(633,659,cs),
(635,668,o),
(636,681,o),
(636,700,c),
(775,700,l),
(735,618,o),
(703,551,o),
(680,500,c),
(599,500,l)
);
},
{
closed = 1;
nodes = (
(680,500,l),
(703,551,o),
(735,618,o),
(775,700,c),
(636,700,l),
(636,681,o),
(635,668,o),
(633,659,cs),
(626,631,o),
(607,541,o),
(599,500,c)
);
}
);
};
layerId = m001;
shapes = (
{
ref = L;
},
{
pos = (498,0);
ref = caroncomb.alt;
}
);
width = 817;
}
);
unicode = 317;
},
{
color = 10;
glyphname = Lcommaaccent;
lastChange = "2025-11-13 14:46:18 +0000";
layers = (
{
background = {
shapes = (
{
closed = 1;
nodes = (
(792,-1,l),
(792,255,l),
(757,204,o),
(697,175,o),
(636,178,c),
(359,178,l),
(358,392,l),
(358,605,ls),
(358,648,o),
(375,680,o),
(409,700,c),
(281,699,o),
(153,699,o),
(25,700,c),
(57,681,o),
(76,643,o),
(75,606,cs),
(75,95,l),
(78,56,o),
(58,18,o),
(25,-1,c)
);
},
{
closed = 1;
nodes = (
(334,-228,o),
(353,-138,o),
(360,-110,cs),
(362,-101,o),
(363,-88,o),
(363,-69,c),
(502,-69,l),
(462,-151,o),
(430,-218,o),
(407,-269,c),
(326,-269,l)
);
},
{
closed = 1;
nodes = (
(334,-228,o),
(353,-138,o),
(360,-110,cs),
(362,-101,o),
(363,-88,o),
(363,-69,c),
(502,-69,l),
(462,-151,o),
(430,-218,o),
(407,-269,c),
(326,-269,l)
);
},
{
closed = 1;
nodes = (
(407,-269,l),
(430,-218,o),
(462,-151,o),
(502,-69,c),
(363,-69,l),
(363,-88,o),
(362,-101,o),
(360,-110,cs),
(353,-138,o),
(334,-228,o),
(326,-269,c)
);
}
);
};
layerId = m001;
shapes = (
{
ref = L;
},
{
pos = (247,0);
ref = commaaccentcomb;
}
);
width = 817;
}
);
unicode = 315;
},
{
color = 10;
glyphname = Ldot;
lastChange = "2025-11-13 14:46:18 +0000";
layers = (
{
background = {
shapes = (
{
closed = 1;
nodes = (
(792,-1,l),
(792,255,l),
(757,204,o),
(697,175,o),
(636,178,c),
(359,178,l),
(358,392,l),
(358,605,ls),
(358,648,o),
(375,680,o),
(409,700,c),
(281,699,o),
(153,699,o),
(25,700,c),
(57,681,o),
(76,643,o),
(75,606,cs),
(75,95,l),
(78,56,o),
(58,18,o),
(25,-1,c)
);
},
{
closed = 1;
nodes = (
(741,501,o),
(793,540,o),
(793,600,cs),
(793,659,o),
(752,699,o),
(680,699,cs),
(608,699,o),
(567,658,o),
(567,600,cs),
(567,539,o),
(613,501,o),
(680,501,cs)
);
}
);
};
layerId = m001;
shapes = (
{
ref = L;
},
{
pos = (276,64);
ref = periodcentered.loclCAT.case;
}
);
width = 817;
}
);
unicode = 319;
},
{
color = 3;
glyphname = Lslash;
lastChange = "2025-11-13 14:46:18 +0000";
layers = (
{
background = {
shapes = (
{
closed = 1;
nodes = (
(792,-1,l),
(792,255,l),
(757,204,o),
(697,175,o),
(636,178,c),
(359,178,l),
(358,392,l),
(358,605,ls),
(358,648,o),
(375,680,o),
(409,700,c),
(281,699,o),
(153,699,o),
(25,700,c),
(57,681,o),
(76,643,o),
(75,606,cs),
(75,95,l),
(78,56,o),
(58,18,o),
(25,-1,c)
);
},
{
closed = 1;
nodes = (
(408,377,l),
(409,597,l),
(28,331,l),
(27,111,l),
(408,377,l),
(409,597,l),
(28,331,l),
(27,111,l),
(408,377,l),
(409,597,l),
(28,331,l),
(27,111,l)
);
}
);
};
layerId = m001;
shapes = (
{
ref = L;
},
{
closed = 1;
nodes = (
(409,377,l),
(409,597,l),
(27,331,l),
(27,111,l)
);
}
);
width = 817;
}
);
unicode = 321;
},
{
color = 6;
glyphname = M;
lastChange = "2025-11-13 14:46:18 +0000";
layers = (
{
anchors = (
{
name = bottom;
pos = (646,0);
},
{
name = top;
pos = (646,700);
}
);
background = {
shapes = (
{
closed = 1;
nodes = (
(339,0,l),
(314,13,o),
(301,42,o),
(300,85,cs),
(300,472,l),
(494,0,l),
(737,0,l),
(832,231,l),
(933,479,l),
(933,85,ls),
(932,41,o),
(919,13,o),
(894,0,c),
(1265,0,l),
(1232,20,o),
(1216,50,o),
(1216,90,cs),
(1216,605,ls),
(1215,642,o),
(1234,680,o),
(1266,699,c),
(822,699,l),
(730,472,l),
(650,276,l),
(564,488,l),
(477,699,l),
(25,699,l),
(57,680,o),
(76,642,o),
(75,605,cs),
(75,90,ls),
(75,51,o),
(58,21,o),
(25,0,c)
);
}
);
};
layerId = m001;
shapes = (
{
closed = 1;
nodes = (
(339,0,l),
(314,13,o),
(299,42,o),
(299,85,cs),
(299,472,l),
(494,0,l),
(737,0,l),
(933,479,l),
(933,85,ls),
(933,41,o),
(919,13,o),
(894,0,c),
(1265,0,l),
(1232,20,o),
(1216,50,o),
(1216,90,cs),
(1216,606,ls),
(1216,643,o),
(1234,681,o),
(1266,700,c),
(822,700,l),
(650,276,l),
(477,700,l),
(25,700,l),
(57,681,o),
(75,643,o),
(75,606,cs),
(75,90,ls),
(75,51,o),
(58,21,o),
(25,0,c)
);
}
);
width = 1291;
}
);
unicode = 77;
},
{
color = 6;
glyphname = N;
lastChange = "2025-11-13 14:46:18 +0000";
layers = (
{
anchors = (
{
name = bottom;
pos = (505,0);
},
{
name = top;
pos = (533,700);
}
);
background = {
shapes = (
{
closed = 1;
nodes = (
(303,0,l),
(328,1,l),
(327,3,o),
(324,5,o),
(321,6,cs),
(317,7,o),
(315,9,o),
(314,10,cs),
(297,27,o),
(289,54,o),
(289,90,cs),
(289,411,l),
(615,0,l),
(984,0,l),
(950,20,o),
(933,50,o),
(933,90,cs),
(933,605,ls),
(932,642,o),
(952,680,o),
(984,699,c),
(681,699,l),
(707,683,o),
(720,654,o),
(720,611,cs),
(720,280,l),
(389,698,l),
(207,698,l),
(25,699,l),
(57,680,o),
(76,642,o),
(75,605,cs),
(75,90,ls),
(75,51,o),
(58,21,o),
(25,0,c)
);
}
);
};
layerId = m001;
shapes = (
{
closed = 1;
nodes = (
(328,0,l),
(293,24,o),
(289,47,o),
(289,90,cs),
(289,411,l),
(615,0,l),
(984,0,l),
(950,20,o),
(933,50,o),
(933,90,cs),
(933,606,ls),
(933,643,o),
(952,681,o),
(984,700,c),
(681,700,l),
(707,684,o),
(720,655,o),
(720,612,cs),
(720,280,l),
(389,700,l),
(25,700,l),
(57,681,o),
(75,643,o),
(75,606,cs),
(75,90,ls),
(75,51,o),
(58,21,o),
(25,0,c)
);
}
);
width = 1009;
}
);
unicode = 78;
},
{
color = 10;
glyphname = Nacute;
lastChange = "2025-11-13 14:46:18 +0000";
layers = (
{
background = {
shapes = (
{
closed = 1;
nodes = (
(303,0,l),
(328,1,l),
(327,3,o),
(324,5,o),
(321,6,cs),
(317,7,o),
(315,9,o),
(314,10,cs),
(297,27,o),
(289,54,o),
(289,90,cs),
(289,411,l),
(615,0,l),
(984,0,l),
(950,20,o),
(933,50,o),
(933,90,cs),
(933,605,ls),
(932,642,o),
(952,680,o),
(984,699,c),
(681,699,l),
(707,683,o),
(720,654,o),
(720,611,cs),
(720,280,l),
(389,698,l),
(207,698,l),
(25,699,l),
(57,680,o),
(76,642,o),
(75,605,cs),
(75,90,ls),
(75,51,o),
(58,21,o),
(25,0,c)
);
},
{
closed = 1;
nodes = (
(568,751,l),
(599,776,o),
(642,813,o),
(697,861,cs),
(799,949,l),
(493,949,l),
(486,927,l),
(478,904,l),
(390,751,l),
(568,751,l),
(599,776,o),
(642,813,o),
(697,861,cs),
(799,949,l),
(493,949,l),
(486,927,l),
(478,904,l),
(390,751,l),
(568,751,l),
(599,776,o),
(642,813,o),
(697,861,cs),
(799,949,l),
(493,949,l),
(486,927,l),
(478,904,l),
(390,751,l)
);
}
);
};
layerId = m001;
shapes = (
{
ref = N;
},
{
pos = (295,0);
ref = acutecomb;
}
);
width = 1009;
}
);
unicode = 323;
},
{
color = 10;
glyphname = Ncaron;
lastChange = "2025-11-13 14:46:18 +0000";
layers = (
{
background = {
shapes = (
{
closed = 1;
nodes = (
(303,0,l),
(328,1,l),
(327,3,o),
(324,5,o),
(321,6,cs),
(317,7,o),
(315,9,o),
(314,10,cs),
(297,27,o),
(289,54,o),
(289,90,cs),
(289,411,l),
(615,0,l),
(984,0,l),
(950,20,o),
(933,50,o),
(933,90,cs),
(933,605,ls),
(932,642,o),
(952,680,o),
(984,699,c),
(681,699,l),
(707,683,o),
(720,654,o),
(720,611,cs),
(720,280,l),
(389,698,l),
(207,698,l),
(25,699,l),
(57,680,o),
(76,642,o),
(75,605,cs),
(75,90,ls),
(75,51,o),
(58,21,o),
(25,0,c)
);
},
{
closed = 1;
nodes = (
(542,750,l),
(685,947,l),
(584,947,l),
(500,830,l),
(461,884,l),
(415,947,l),
(318,947,l),
(458,750,l),
(542,750,l),
(685,947,l),
(584,947,l),
(500,830,l),
(461,884,l),
(415,947,l),
(318,947,l),
(458,750,l),
(542,750,l),
(685,947,l),
(584,947,l),
(500,830,l),
(461,884,l),
(415,947,l),
(318,947,l),
(458,750,l)
);
}
);
};
layerId = m001;
shapes = (
{
ref = N;
},
{
pos = (324,0);
ref = caroncomb;
}
);
width = 1009;
}
);
unicode = 327;
},
{
color = 10;
glyphname = Ncommaaccent;
lastChange = "2025-11-13 14:46:18 +0000";
layers = (
{
background = {
shapes = (
{
closed = 1;
nodes = (
(303,0,l),
(328,1,l),
(327,3,o),
(324,5,o),
(321,6,cs),
(317,7,o),
(315,9,o),
(314,10,cs),
(297,27,o),
(289,54,o),
(289,90,cs),
(289,411,l),
(615,0,l),
(984,0,l),
(950,20,o),
(933,50,o),
(933,90,cs),
(933,605,ls),
(932,642,o),
(952,680,o),
(984,699,c),
(681,699,l),
(707,683,o),
(720,654,o),
(720,611,cs),
(720,280,l),
(389,698,l),
(207,698,l),
(25,699,l),
(57,680,o),
(76,642,o),
(75,605,cs),
(75,90,ls),
(75,51,o),
(58,21,o),
(25,0,c)
);
},
{
closed = 1;
nodes = (
(406,-228,o),
(425,-138,o),
(432,-110,cs),
(434,-101,o),
(435,-88,o),
(435,-69,c),
(574,-69,l),
(534,-151,o),
(502,-218,o),
(479,-269,c),
(398,-269,l)
);
},
{
closed = 1;
nodes = (
(406,-228,o),
(425,-138,o),
(432,-110,cs),
(434,-101,o),
(435,-88,o),
(435,-69,c),
(574,-69,l),
(534,-151,o),
(502,-218,o),
(479,-269,c),
(398,-269,l)
);
},
{
closed = 1;
nodes = (
(479,-269,l),
(502,-218,o),
(534,-151,o),
(574,-69,c),
(435,-69,l),
(435,-88,o),
(434,-101,o),
(432,-110,cs),
(425,-138,o),
(406,-228,o),
(398,-269,c)
);
}
);
};
layerId = m001;
shapes = (
{
ref = N;
},
{
pos = (343,0);
ref = commaaccentcomb;
}
);
width = 1009;
}
);
unicode = 325;
},
{
color = 10;
glyphname = Ntilde;
lastChange = "2025-11-13 14:46:18 +0000";
layers = (
{
background = {
shapes = (
{
closed = 1;
nodes = (
(303,0,l),
(328,1,l),
(327,3,o),
(324,5,o),
(321,6,cs),
(317,7,o),
(315,9,o),
(314,10,cs),
(297,27,o),
(289,54,o),
(289,90,cs),
(289,411,l),
(615,0,l),
(984,0,l),
(950,20,o),
(933,50,o),
(933,90,cs),
(933,605,ls),
(932,642,o),
(952,680,o),
(984,699,c),
(681,699,l),
(707,683,o),
(720,654,o),
(720,611,cs),
(720,280,l),
(389,698,l),
(207,698,l),
(25,699,l),
(57,680,o),
(76,642,o),
(75,605,cs),
(75,90,ls),
(75,51,o),
(58,21,o),
(25,0,c)
);
},
{
closed = 1;
nodes = (
(281,781,o),
(301,801,o),
(326,812,c),
(337,821,o),
(362,816,o),
(376,816,c),
(406,812,o),
(449,804,o),
(504,791,cs),
(559,778,o),
(600,769,o),
(627,764,cs),
(663,760,o),
(699,775,o),
(720,804,cs),
(742,835,o),
(757,885,o),
(764,952,c),
(757,940,o),
(752,931,o),
(748,926,cs),
(740,915,o),
(724,896,o),
(708,888,cs),
(692,880,o),
(674,879,o),
(653,884,cs),
(631,887,o),
(592,894,o),
(535,907,cs),
(478,920,o),
(434,928,o),
(402,931,cs),
(365,935,o),
(336,924,o),
(313,897,cs),
(282,862,o),
(266,813,o),
(266,752,c),
(281,781,o),
(301,801,o),
(326,812,c),
(337,821,o),
(362,816,o),
(376,816,c),
(406,812,o),
(449,804,o),
(504,791,cs),
(559,778,o),
(600,769,o),
(627,764,cs),
(663,760,o),
(699,775,o),
(720,804,cs),
(742,835,o),
(757,885,o),
(764,952,c),
(757,940,o),
(752,931,o),
(748,926,cs),
(740,915,o),
(724,896,o),
(708,888,cs),
(692,880,o),
(674,879,o),
(653,884,cs),
(631,887,o),
(592,894,o),
(535,907,cs),
(478,920,o),
(434,928,o),
(402,931,cs),
(365,935,o),
(336,924,o),
(313,897,cs),
(282,862,o),
(266,813,o),
(266,752,c),
(281,781,o),
(301,801,o),
(326,812,c),
(337,821,o),
(362,816,o),
(376,816,c),
(406,812,o),
(449,804,o),
(504,791,cs),
(559,778,o),
(600,769,o),
(627,764,cs),
(663,760,o),
(699,775,o),
(720,804,cs),
(742,835,o),
(757,885,o),
(764,952,c),
(757,940,o),
(752,931,o),
(748,926,cs),
(740,915,o),
(724,896,o),
(708,888,cs),
(692,880,o),
(674,879,o),
(653,884,cs),
(631,887,o),
(592,894,o),
(535,907,cs),
(478,920,o),
(434,928,o),
(402,931,cs),
(365,935,o),
(336,924,o),
(313,897,cs),
(282,862,o),
(266,813,o),
(266,752,c)
);
}
);
};
layerId = m001;
shapes = (
{
ref = N;
},
{
pos = (276,0);
ref = tildecomb;
}
);
width = 1009;
}
);
unicode = 209;
},
{
color = 6;
glyphname = Eng;
lastChange = "2025-11-13 14:46:18 +0000";
layers = (
{
anchors = (
{
name = bottom;
pos = (505,-250);
},
{
name = top;
pos = (505,700);
}
);
background = {
shapes = (
{
closed = 1;
nodes = (
(772,-239,o),
(817,-218,o),
(848,-183,cs),
(879,-148,o),
(895,-101,o),
(895,-40,cs),
(895,0,l),
(933,0,l),
(933,90,l),
(933,605,ls),
(933,625,o),
(937,643,o),
(946,659,cs),
(955,676,o),
(968,690,o),
(984,699,c),
(681,699,l),
(707,683,o),
(720,654,o),
(720,611,cs),
(720,280,l),
(389,698,l),
(207,698,l),
(25,699,l),
(41,690,o),
(53,676,o),
(62,659,cs),
(71,643,o),
(75,625,o),
(75,605,cs),
(75,90,ls),
(75,51,o),
(58,21,o),
(25,0,c),
(303,0,l),
(328,1,l),
(327,3,o),
(324,5,o),
(321,6,cs),
(317,7,o),
(315,9,o),
(314,10,cs),
(297,21,o),
(289,48,o),
(289,90,cs),
(289,411,l),
(615,0,l),
(649,0,l),
(649,-13,o),
(649,-21,o),
(648,-22,c),
(648,-51,o),
(641,-72,o),
(626,-87,cs),
(609,-103,o),
(581,-109,o),
(544,-106,cs),
(514,-103,o),
(486,-90,o),
(459,-67,c),
(459,-224,l),
(470,-229,o),
(496,-235,o),
(539,-244,cs),
(604,-254,o),
(663,-255,o),
(715,-248,cs)
);
}
);
};
layerId = m001;
shapes = (
{
closed = 1;
nodes = (
(895,-191,o),
(895,-40,cs),
(895,0,l),
(933,0,l),
(933,606,ls),
(933,644,o),
(951,681,o),
(984,700,c),
(681,700,l),
(707,684,o),
(720,655,o),
(720,612,cs),
(720,280,l),
(389,700,l),
(25,700,l),
(56,682,o),
(75,644,o),
(75,606,cs),
(75,90,ls),
(75,51,o),
(58,21,o),
(25,0,c),
(328,0,l),
(297,21,o),
(289,50,o),
(289,90,cs),
(289,411,l),
(615,0,l),
(649,0,l),
(648,-80,o),
(627,-107,o),
(562,-107,cs),
(525,-107,o),
(491,-94,o),
(459,-67,c),
(459,-224,l),
(488,-237,o),
(582,-253,o),
(645,-253,cs),
(796,-253,o)
);
}
);
width = 1009;
}
);
unicode = 330;
},
{
color = 6;
glyphname = O;
lastChange = "2025-11-13 14:46:18 +0000";
layers = (
{
anchors = (
{
name = bottom;
pos = (508,0);
},
{
name = center;
pos = (508,350);
},
{
name = ogonek;
pos = (914,10);
},
{
name = top;
pos = (508,700);
},
{
name = topleft;
pos = (20,700);
},
{
name = topright;
pos = (995,700);
}
);
background = {
shapes = (
{
closed = 1;
nodes = (
(671,-20,o),
(778,6,o),
(855,55,cs),
(926,99,o),
(971,175,o),
(984,260,cs),
(999,370,o),
(986,462,o),
(943,537,cs),
(904,607,o),
(839,656,o),
(749,684,cs),
(656,713,o),
(543,723,o),
(408,712,cs),
(287,702,o),
(195,669,o),
(131,614,cs),
(72,565,o),
(37,494,o),
(28,403,cs),
(20,319,o),
(27,247,o),
(49,186,cs),
(76,115,o),
(130,60,o),
(201,28,cs),
(296,-13,o),
(399,-24,o),
(532,-24,cs)
);
},
{
closed = 1;
nodes = (
(464,125,o),
(418,139,o),
(389,170,cs),
(378,183,o),
(370,198,o),
(364,217,cs),
(351,253,o),
(349,275,o),
(346,319,cs),
(345,395,o),
(350,450,o),
(378,499,cs),
(397,534,o),
(428,555,o),
(471,563,cs),
(528,572,o),
(587,562,o),
(620,523,cs),
(655,483,o),
(664,433,o),
(668,361,cs),
(669,285,o),
(665,234,o),
(637,187,cs),
(616,152,o),
(580,133,o),
(527,129,cs)
);
},
{
closed = 1;
nodes = (
(550,279,l),
(595,337,l),
(505,454,l),
(417,338,l),
(461,279,ls),
(490,239,o),
(505,220,o),
(505,221,c)
);
}
);
};
layerId = m001;
shapes = (
{
closed = 1;
nodes = (
(791,-24,o),
(990,78,o),
(990,344,cs),
(990,622,o),
(782,716,o),
(511,716,cs),
(219,716,o),
(25,630,o),
(25,338,cs),
(25,40,o),
(236,-24,o),
(532,-24,cs)
);
},
{
closed = 1;
nodes = (
(385,128,o),
(346,194,o),
(346,341,cs),
(346,457,o),
(371,566,o),
(509,566,cs),
(629,566,o),
(668,484,o),
(668,349,cs),
(668,227,o),
(649,128,o),
(507,128,cs)
);
},
{
closed = 1;
nodes = (
(595,337,l),
(505,454,l),
(417,338,l),
(505,221,l)
);
}
);
width = 1015;
}
);
unicode = 79;
},
{
color = 10;
glyphname = Oacute;
lastChange = "2025-11-13 14:46:18 +0000";
layers = (
{
background = {
shapes = (
{
closed = 1;
nodes = (
(671,-20,o),
(778,6,o),
(855,55,cs),
(926,99,o),
(971,175,o),
(984,260,cs),
(999,370,o),
(986,462,o),
(943,537,cs),
(904,607,o),
(839,656,o),
(749,684,cs),
(656,713,o),
(543,723,o),
(408,712,cs),
(287,702,o),
(195,669,o),
(131,614,cs),
(72,565,o),
(37,494,o),
(28,403,cs),
(20,319,o),
(27,247,o),
(49,186,cs),
(76,115,o),
(130,60,o),
(201,28,cs),
(296,-13,o),
(399,-24,o),
(532,-24,cs)
);
},
{
closed = 1;
nodes = (
(464,125,o),
(418,139,o),
(389,170,cs),
(378,183,o),
(370,198,o),
(364,217,cs),
(351,253,o),
(349,275,o),
(346,319,cs),
(345,395,o),
(350,450,o),
(378,499,cs),
(397,534,o),
(428,555,o),
(471,563,cs),
(528,572,o),
(587,562,o),
(620,523,cs),
(655,483,o),
(664,433,o),
(668,361,cs),
(669,285,o),
(665,234,o),
(637,187,cs),
(616,152,o),
(580,133,o),
(527,129,cs)
);
},
{
closed = 1;
nodes = (
(550,279,l),
(595,337,l),
(505,454,l),
(417,338,l),
(461,279,ls),
(490,239,o),
(505,220,o),
(505,221,c)
);
},
{
closed = 1;
nodes = (
(571,751,l),
(700,861,l),
(802,949,l),
(496,949,l),
(493,938,o),
(485,916,o),
(480,904,c),
(393,751,l),
(571,751,l),
(700,861,l),
(802,949,l),
(496,949,l),
(493,938,o),
(485,916,o),
(480,904,c),
(393,751,l),
(571,751,l),
(700,861,l),
(802,949,l),
(496,949,l),
(493,938,o),
(485,916,o),
(480,904,c),
(393,751,l)
);
}
);
};
layerId = m001;
shapes = (
{
ref = O;
},
{
pos = (270,0);
ref = acutecomb;
}
);
width = 1015;
}
);
unicode = 211;
},
{
color = 10;
glyphname = Obreve;
lastChange = "2025-11-13 14:46:18 +0000";
layers = (
{
background = {
shapes = (
{
closed = 1;
nodes = (
(671,-20,o),
(778,6,o),
(855,55,cs),
(926,99,o),
(971,175,o),
(984,260,cs),
(999,370,o),
(986,462,o),
(943,537,cs),
(904,607,o),
(839,656,o),
(749,684,cs),
(656,713,o),
(543,723,o),
(408,712,cs),
(287,702,o),
(195,669,o),
(131,614,cs),
(72,565,o),
(37,494,o),
(28,403,cs),
(20,319,o),
(27,247,o),
(49,186,cs),
(76,115,o),
(130,60,o),
(201,28,cs),
(296,-13,o),
(399,-24,o),
(532,-24,cs)
);
},
{
closed = 1;
nodes = (
(464,125,o),
(418,139,o),
(389,170,cs),
(378,183,o),
(370,198,o),
(364,217,cs),
(351,253,o),
(349,275,o),
(346,319,cs),
(345,395,o),
(350,450,o),
(378,499,cs),
(397,534,o),
(428,555,o),
(471,563,cs),
(528,572,o),
(587,562,o),
(620,523,cs),
(655,483,o),
(664,433,o),
(668,361,cs),
(669,285,o),
(665,234,o),
(637,187,cs),
(616,152,o),
(580,133,o),
(527,129,cs)
);
},
{
closed = 1;
nodes = (
(550,279,l),
(595,337,l),
(505,454,l),
(417,338,l),
(461,279,ls),
(490,239,o),
(505,220,o),
(505,221,c)
);
},
{
closed = 1;
nodes = (
(583,753,o),
(638,771,o),
(677,808,cs),
(716,845,o),
(736,892,o),
(736,950,cs),
(736,951,l),
(587,951,l),
(588,914,o),
(560,888,o),
(511,888,cs),
(460,888,o),
(436,915,o),
(435,951,c),
(287,951,l),
(287,950,ls),
(287,893,o),
(306,845,o),
(345,809,cs),
(364,792,o),
(387,778,o),
(415,768,cs),
(442,758,o),
(474,753,o),
(511,753,cs)
);
}
);
};
layerId = m001;
shapes = (
{
ref = O;
},
{
pos = (258,0);
ref = brevecomb;
}
);
width = 1015;
}
);
unicode = 334;
},
{
color = 10;
glyphname = Ocircumflex;
lastChange = "2025-11-13 14:46:18 +0000";
layers = (
{
background = {
shapes = (
{
closed = 1;
nodes = (
(671,-20,o),
(778,6,o),
(855,55,cs),
(926,99,o),
(971,175,o),
(984,260,cs),
(999,370,o),
(986,462,o),
(943,537,cs),
(904,607,o),
(839,656,o),
(749,684,cs),
(656,713,o),
(543,723,o),
(408,712,cs),
(287,702,o),
(195,669,o),
(131,614,cs),
(72,565,o),
(37,494,o),
(28,403,cs),
(20,319,o),
(27,247,o),
(49,186,cs),
(76,115,o),
(130,60,o),
(201,28,cs),
(296,-13,o),
(399,-24,o),
(532,-24,cs)
);
},
{
closed = 1;
nodes = (
(464,125,o),
(418,139,o),
(389,170,cs),
(378,183,o),
(370,198,o),
(364,217,cs),
(351,253,o),
(349,275,o),
(346,319,cs),
(345,395,o),
(350,450,o),
(378,499,cs),
(397,534,o),
(428,555,o),
(471,563,cs),
(528,572,o),
(587,562,o),
(620,523,cs),
(655,483,o),
(664,433,o),
(668,361,cs),
(669,285,o),
(665,234,o),
(637,187,cs),
(616,152,o),
(580,133,o),
(527,129,cs)
);
},
{
closed = 1;
nodes = (
(550,279,l),
(595,337,l),
(505,454,l),
(417,338,l),
(461,279,ls),
(490,239,o),
(505,220,o),
(505,221,c)
);
},
{
closed = 1;
nodes = (
(424,752,l),
(470,815,l),
(508,868,l),
(551,809,l),
(592,752,l),
(694,752,l),
(550,949,l),
(466,949,l),
(394,847,l),
(326,752,l),
(424,752,l),
(470,815,l),
(508,868,l),
(551,809,l),
(592,752,l),
(694,752,l),
(550,949,l),
(466,949,l),
(394,847,l),
(326,752,l),
(424,752,l),
(470,815,l),
(508,868,l),
(551,809,l),
(592,752,l),
(694,752,l),
(550,949,l),
(466,949,l),
(394,847,l),
(326,752,l)
);
}
);
};
layerId = m001;
shapes = (
{
ref = O;
},
{
pos = (299,0);
ref = circumflexcomb;
}
);
width = 1015;
}
);
unicode = 212;
},
{
color = 10;
glyphname = Odieresis;
lastChange = "2025-11-13 14:46:18 +0000";
layers = (
{
background = {
shapes = (
{
closed = 1;
nodes = (
(671,-20,o),
(778,6,o),
(855,55,cs),
(926,99,o),
(971,175,o),
(984,260,cs),
(999,370,o),
(986,462,o),
(943,537,cs),
(904,607,o),
(839,656,o),
(749,684,cs),
(656,713,o),
(543,723,o),
(408,712,cs),
(287,702,o),
(195,669,o),
(131,614,cs),
(72,565,o),
(37,494,o),
(28,403,cs),
(20,319,o),
(27,247,o),
(49,186,cs),
(76,115,o),
(130,60,o),
(201,28,cs),
(296,-13,o),
(399,-24,o),
(532,-24,cs)
);
},
{
closed = 1;
nodes = (
(464,125,o),
(418,139,o),
(389,170,cs),
(378,183,o),
(370,198,o),
(364,217,cs),
(351,253,o),
(349,275,o),
(346,319,cs),
(345,395,o),
(350,450,o),
(378,499,cs),
(397,534,o),
(428,555,o),
(471,563,cs),
(528,572,o),
(587,562,o),
(620,523,cs),
(655,483,o),
(664,433,o),
(668,361,cs),
(669,285,o),
(665,234,o),
(637,187,cs),
(616,152,o),
(580,133,o),
(527,129,cs)
);
},
{
closed = 1;
nodes = (
(550,279,l),
(595,337,l),
(505,454,l),
(417,338,l),
(461,279,ls),
(490,239,o),
(505,220,o),
(505,221,c)
);
},
{
closed = 1;
nodes = (
(444,750,o),
(495,789,o),
(495,850,cs),
(495,909,o),
(453,950,o),
(381,950,cs),
(308,950,o),
(267,908,o),
(267,850,cs),
(267,787,o),
(314,750,o),
(381,750,cs)
);
},
{
closed = 1;
nodes = (
(706,750,o),
(760,786,o),
(760,850,cs),
(760,909,o),
(719,950,o),
(646,950,cs),
(573,950,o),
(532,908,o),
(532,850,cs),
(532,787,o),
(579,750,o),
(646,750,cs)
);
}
);
};
layerId = m001;
shapes = (
{
ref = O;
},
{
pos = (236,0);
ref = dieresiscomb;
}
);
width = 1015;
}
);
unicode = 214;
},
{
color = 10;
glyphname = Ograve;
lastChange = "2025-11-13 14:46:18 +0000";
layers = (
{
background = {
shapes = (
{
closed = 1;
nodes = (
(671,-20,o),
(778,6,o),
(855,55,cs),
(926,99,o),
(971,175,o),
(984,260,cs),
(999,370,o),
(986,462,o),
(943,537,cs),
(904,607,o),
(839,656,o),
(749,684,cs),
(656,713,o),
(543,723,o),
(408,712,cs),
(287,702,o),
(195,669,o),
(131,614,cs),
(72,565,o),
(37,494,o),
(28,403,cs),
(20,319,o),
(27,247,o),
(49,186,cs),
(76,115,o),
(130,60,o),
(201,28,cs),
(296,-13,o),
(399,-24,o),
(532,-24,cs)
);
},
{
closed = 1;
nodes = (
(464,125,o),
(418,139,o),
(389,170,cs),
(378,183,o),
(370,198,o),
(364,217,cs),
(351,253,o),
(349,275,o),
(346,319,cs),
(345,395,o),
(350,450,o),
(378,499,cs),
(397,534,o),
(428,555,o),
(471,563,cs),
(528,572,o),
(587,562,o),
(620,523,cs),
(655,483,o),
(664,433,o),
(668,361,cs),
(669,285,o),
(665,234,o),
(637,187,cs),
(616,152,o),
(580,133,o),
(527,129,cs)
);
},
{
closed = 1;
nodes = (
(550,279,l),
(595,337,l),
(505,454,l),
(417,338,l),
(461,279,ls),
(490,239,o),
(505,220,o),
(505,221,c)
);
},
{
closed = 1;
nodes = (
(624,751,l),
(537,904,l),
(529,927,l),
(521,949,l),
(215,949,l),
(318,861,l),
(446,751,l),
(624,751,l),
(537,904,l),
(529,927,l),
(521,949,l),
(215,949,l),
(318,861,l),
(446,751,l),
(624,751,l),
(537,904,l),
(529,927,l),
(521,949,l),
(215,949,l),
(318,861,l),
(446,751,l)
);
}
);
};
layerId = m001;
shapes = (
{
ref = O;
},
{
pos = (196,0);
ref = gravecomb;
}
);
width = 1015;
}
);
unicode = 210;
},
{
color = 10;
glyphname = Ohungarumlaut;
lastChange = "2025-11-13 14:46:18 +0000";
layers = (
{
background = {
shapes = (
{
closed = 1;
nodes = (
(671,-20,o),
(778,6,o),
(855,55,cs),
(926,99,o),
(971,175,o),
(984,260,cs),
(999,370,o),
(986,462,o),
(943,537,cs),
(904,607,o),
(839,656,o),
(749,684,cs),
(656,713,o),
(543,723,o),
(408,712,cs),
(287,702,o),
(195,669,o),
(131,614,cs),
(72,565,o),
(37,494,o),
(28,403,cs),
(20,319,o),
(27,247,o),
(49,186,cs),
(76,115,o),
(130,60,o),
(201,28,cs),
(296,-13,o),
(399,-24,o),
(532,-24,cs)
);
},
{
closed = 1;
nodes = (
(464,125,o),
(418,139,o),
(389,170,cs),
(378,183,o),
(370,198,o),
(364,217,cs),
(351,253,o),
(349,275,o),
(346,319,cs),
(345,395,o),
(350,450,o),
(378,499,cs),
(397,534,o),
(428,555,o),
(471,563,cs),
(528,572,o),
(587,562,o),
(620,523,cs),
(655,483,o),
(664,433,o),
(668,361,cs),
(669,285,o),
(665,234,o),
(637,187,cs),
(616,152,o),
(580,133,o),
(527,129,cs)
);
},
{
closed = 1;
nodes = (
(550,279,l),
(595,337,l),
(505,454,l),
(417,338,l),
(461,279,ls),
(490,239,o),
(505,220,o),
(505,221,c)
);
},
{
closed = 1;
nodes = (
(398,768,l),
(527,879,l),
(628,966,l),
(322,966,l),
(319,955,o),
(311,933,o),
(307,922,c),
(219,768,l),
(398,768,l),
(527,879,l),
(628,966,l),
(322,966,l),
(319,955,o),
(311,933,o),
(307,922,c),
(219,768,l),
(398,768,l),
(527,879,l),
(628,966,l),
(322,966,l),
(319,955,o),
(311,933,o),
(307,922,c),
(219,768,l)
);
},
{
closed = 1;
nodes = (
(731,768,l),
(860,879,l),
(962,966,l),
(656,966,l),
(653,955,o),
(645,933,o),
(641,922,c),
(553,768,l),
(731,768,l),
(860,879,l),
(962,966,l),
(656,966,l),
(653,955,o),
(645,933,o),
(641,922,c),
(553,768,l),
(731,768,l),
(860,879,l),
(962,966,l),
(656,966,l),
(653,955,o),
(645,933,o),
(641,922,c),
(553,768,l)
);
}
);
};
layerId = m001;
shapes = (
{
ref = O;
},
{
pos = (130,0);
ref = hungarumlautcomb;
}
);
width = 1015;
}
);
unicode = 336;
},
{
color = 10;
glyphname = Omacron;
lastChange = "2025-11-13 14:46:18 +0000";
layers = (
{
background = {
shapes = (
{
closed = 1;
nodes = (
(671,-20,o),
(778,6,o),
(855,55,cs),
(926,99,o),
(971,175,o),
(984,260,cs),
(999,370,o),
(986,462,o),
(943,537,cs),
(904,607,o),
(839,656,o),
(749,684,cs),
(656,713,o),
(543,723,o),
(408,712,cs),
(287,702,o),
(195,669,o),
(131,614,cs),
(72,565,o),
(37,494,o),
(28,403,cs),
(20,319,o),
(27,247,o),
(49,186,cs),
(76,115,o),
(130,60,o),
(201,28,cs),
(296,-13,o),
(399,-24,o),
(532,-24,cs)
);
},
{
closed = 1;
nodes = (
(464,125,o),
(418,139,o),
(389,170,cs),
(378,183,o),
(370,198,o),
(364,217,cs),
(351,253,o),
(349,275,o),
(346,319,cs),
(345,395,o),
(350,450,o),
(378,499,cs),
(397,534,o),
(428,555,o),
(471,563,cs),
(528,572,o),
(587,562,o),
(620,523,cs),
(655,483,o),
(664,433,o),
(668,361,cs),
(669,285,o),
(665,234,o),
(637,187,cs),
(616,152,o),
(580,133,o),
(527,129,cs)
);
},
{
closed = 1;
nodes = (
(550,279,l),
(595,337,l),
(505,454,l),
(417,338,l),
(461,279,ls),
(490,239,o),
(505,220,o),
(505,221,c)
);
},
{
closed = 1;
nodes = (
(779,750,l),
(779,930,l),
(244,930,l),
(244,750,l)
);
}
);
};
layerId = m001;
shapes = (
{
ref = O;
},
{
pos = (311,0);
ref = macroncomb;
}
);
width = 1015;
}
);
unicode = 332;
},
{
color = 3;
glyphname = Oslash;
lastChange = "2025-11-13 14:46:18 +0000";
layers = (
{
anchors = (
{
name = bottom;
pos = (520,0);
},
{
name = top;
pos = (520,700);
}
);
background = {
shapes = (
{
closed = 1;
nodes = (
(281,-132,l),
(713,443,l),
(1015,826,l),
(763,826,l),
(25,-132,l),
(281,-132,l),
(713,443,l),
(1015,826,l),
(763,826,l),
(25,-132,l),
(281,-132,l),
(713,443,l),
(1015,826,l),
(763,826,l),
(25,-132,l)
);
},
{
closed = 1;
nodes = (
(685,-20,o),
(792,6,o),
(869,55,cs),
(940,99,o),
(985,175,o),
(998,260,cs),
(1013,370,o),
(1000,462,o),
(957,537,cs),
(918,607,o),
(853,656,o),
(763,684,cs),
(670,713,o),
(557,723,o),
(422,712,cs),
(301,702,o),
(209,669,o),
(145,614,cs),
(86,565,o),
(51,494,o),
(42,403,cs),
(34,319,o),
(41,247,o),
(63,186,cs),
(90,115,o),
(144,60,o),
(215,28,cs),
(310,-13,o),
(413,-24,o),
(546,-24,cs)
);
},
{
closed = 1;
nodes = (
(478,125,o),
(432,139,o),
(403,170,cs),
(392,183,o),
(384,198,o),
(378,217,cs),
(365,253,o),
(363,275,o),
(360,319,cs),
(359,395,o),
(364,450,o),
(392,499,cs),
(411,534,o),
(442,555,o),
(485,563,cs),
(542,572,o),
(601,562,o),
(634,523,cs),
(669,483,o),
(678,433,o),
(682,361,cs),
(683,285,o),
(679,234,o),
(651,187,cs),
(630,152,o),
(594,133,o),
(541,129,cs)
);
},
{
closed = 1;
nodes = (
(513,229,ls),
(504,240,o),
(488,260,o),
(475,279,cs),
(431,338,l),
(519,454,l),
(606,338,l),
(562,279,l),
(532,239,l),
(519,222,l)
);
}
);
};
layerId = m001;
shapes = (
{
closed = 1;
nodes = (
(281,-132,l),
(1015,826,l),
(763,826,l),
(25,-132,l)
);
},
{
ref = o;
}
);
width = 1040;
}
);
unicode = 216;
},
{
color = 10;
glyphname = Oslashacute;
lastChange = "2025-11-13 14:46:18 +0000";
layers = (
{
background = {
shapes = (
{
closed = 1;
nodes = (
(281,-132,l),
(713,443,l),
(1015,826,l),
(763,826,l),
(25,-132,l),
(281,-132,l),
(713,443,l),
(1015,826,l),
(763,826,l),
(25,-132,l),
(281,-132,l),
(713,443,l),
(1015,826,l),
(763,826,l),
(25,-132,l)
);
},
{
closed = 1;
nodes = (
(685,-20,o),
(792,6,o),
(869,55,cs),
(940,99,o),
(985,175,o),
(998,260,cs),
(1013,370,o),
(1000,462,o),
(957,537,cs),
(918,607,o),
(853,656,o),
(763,684,cs),
(670,713,o),
(557,723,o),
(422,712,cs),
(301,702,o),
(209,669,o),
(145,614,cs),
(86,565,o),
(51,494,o),
(42,403,cs),
(34,319,o),
(41,247,o),
(63,186,cs),
(90,115,o),
(144,60,o),
(215,28,cs),
(310,-13,o),
(413,-24,o),
(546,-24,cs)
);
},
{
closed = 1;
nodes = (
(478,125,o),
(432,139,o),
(403,170,cs),
(392,183,o),
(384,198,o),
(378,217,cs),
(365,253,o),
(363,275,o),
(360,319,cs),
(359,395,o),
(364,450,o),
(392,499,cs),
(411,534,o),
(442,555,o),
(485,563,cs),
(542,572,o),
(601,562,o),
(634,523,cs),
(669,483,o),
(678,433,o),
(682,361,cs),
(683,285,o),
(679,234,o),
(651,187,cs),
(630,152,o),
(594,133,o),
(541,129,cs)
);
},
{
closed = 1;
nodes = (
(513,229,ls),
(504,240,o),
(488,260,o),
(475,279,cs),
(431,338,l),
(519,454,l),
(606,338,l),
(562,279,l),
(532,239,l),
(519,222,l)
);
},
{
closed = 1;
nodes = (
(621,800,l),
(652,825,o),
(695,862,o),
(750,910,cs),
(852,998,l),
(546,998,l),
(543,987,o),
(535,965,o),
(531,954,c),
(443,800,l),
(621,800,l),
(652,825,o),
(695,862,o),
(750,910,cs),
(852,998,l),
(546,998,l),
(543,987,o),
(535,965,o),
(531,954,c),
(443,800,l),
(621,800,l),
(652,825,o),
(695,862,o),
(750,910,cs),
(852,998,l),
(546,998,l),
(543,987,o),
(535,965,o),
(531,954,c),
(443,800,l)
);
}
);
};
layerId = m001;
shapes = (
{
ref = Oslash;
},
{
pos = (282,0);
ref = acutecomb;
}
);
width = 1040;
}
);
unicode = 510;
},
{
color = 10;
glyphname = Otilde;
lastChange = "2025-11-13 14:46:18 +0000";
layers = (
{
background = {
shapes = (
{
closed = 1;
nodes = (
(671,-20,o),
(778,6,o),
(855,55,cs),
(926,99,o),
(971,175,o),
(984,260,cs),
(999,370,o),
(986,462,o),
(943,537,cs),
(904,607,o),
(839,656,o),
(749,684,cs),
(656,713,o),
(543,723,o),
(408,712,cs),
(287,702,o),
(195,669,o),
(131,614,cs),
(72,565,o),
(37,494,o),
(28,403,cs),
(20,319,o),
(27,247,o),
(49,186,cs),
(76,115,o),
(130,60,o),
(201,28,cs),
(296,-13,o),
(399,-24,o),
(532,-24,cs)
);
},
{
closed = 1;
nodes = (
(464,125,o),
(418,139,o),
(389,170,cs),
(378,183,o),
(370,198,o),
(364,217,cs),
(351,253,o),
(349,275,o),
(346,319,cs),
(345,395,o),
(350,450,o),
(378,499,cs),
(397,534,o),
(428,555,o),
(471,563,cs),
(528,572,o),
(587,562,o),
(620,523,cs),
(655,483,o),
(664,433,o),
(668,361,cs),
(669,285,o),
(665,234,o),
(637,187,cs),
(616,152,o),
(580,133,o),
(527,129,cs)
);
},
{
closed = 1;
nodes = (
(550,279,l),
(595,337,l),
(505,454,l),
(417,338,l),
(461,279,ls),
(490,239,o),
(505,220,o),
(505,221,c)
);
},
{
closed = 1;
nodes = (
(279,784,o),
(299,804,o),
(324,815,c),
(338,824,o),
(359,819,o),
(374,819,c),
(404,815,o),
(447,807,o),
(503,794,cs),
(558,781,o),
(599,772,o),
(626,767,cs),
(661,763,o),
(697,778,o),
(718,806,cs),
(740,838,o),
(755,887,o),
(762,954,c),
(747,929,ls),
(739,918,o),
(722,899,o),
(706,890,cs),
(690,883,o),
(672,881,o),
(651,886,cs),
(629,889,o),
(590,897,o),
(533,910,cs),
(476,923,o),
(432,931,o),
(400,934,cs),
(364,938,o),
(334,927,o),
(311,900,cs),
(280,865,o),
(265,816,o),
(265,754,c),
(279,784,o),
(299,804,o),
(324,815,c),
(338,824,o),
(359,819,o),
(374,819,c),
(404,815,o),
(447,807,o),
(503,794,cs),
(558,781,o),
(599,772,o),
(626,767,cs),
(661,763,o),
(697,778,o),
(718,806,cs),
(740,838,o),
(755,887,o),
(762,954,c),
(747,929,ls),
(739,918,o),
(722,899,o),
(706,890,cs),
(690,883,o),
(672,881,o),
(651,886,cs),
(629,889,o),
(590,897,o),
(533,910,cs),
(476,923,o),
(432,931,o),
(400,934,cs),
(364,938,o),
(334,927,o),
(311,900,cs),
(280,865,o),
(265,816,o),
(265,754,c),
(279,784,o),
(299,804,o),
(324,815,c),
(338,824,o),
(359,819,o),
(374,819,c),
(404,815,o),
(447,807,o),
(503,794,cs),
(558,781,o),
(599,772,o),
(626,767,cs),
(661,763,o),
(697,778,o),
(718,806,cs),
(740,838,o),
(755,887,o),
(762,954,c),
(747,929,ls),
(739,918,o),
(722,899,o),
(706,890,cs),
(690,883,o),
(672,881,o),
(651,886,cs),
(629,889,o),
(590,897,o),
(533,910,cs),
(476,923,o),
(432,931,o),
(400,934,cs),
(364,938,o),
(334,927,o),
(311,900,cs),
(280,865,o),
(265,816,o),
(265,754,c)
);
}
);
};
layerId = m001;
shapes = (
{
ref = O;
},
{
pos = (251,0);
ref = tildecomb;
}
);
width = 1015;
}
);
unicode = 213;
},
{
color = 6;
glyphname = OE;
lastChange = "2025-11-13 14:46:18 +0000";
layers = (
{
anchors = (
{
name = bottom;
pos = (735,0);
},
{
name = top;
pos = (735,700);
}
);
background = {
shapes = (
{
closed = 1;
nodes = (
(603,-22,o),
(667,-14,o),
(722,0,c),
(1444,0,l),
(1444,230,l),
(1433,205,o),
(1412,187,o),
(1381,174,cs),
(1370,170,o),
(1346,168,o),
(1311,168,cs),
(1150,168,l),
(988,167,l),
(988,282,l),
(1352,282,l),
(1352,431,l),
(988,431,l),
(988,532,l),
(1337,532,ls),
(1378,532,o),
(1410,518,o),
(1432,490,c),
(1432,595,l),
(1431,700,l),
(683,701,l),
(604,716,o),
(512,720,o),
(408,712,cs),
(287,702,o),
(195,669,o),
(131,614,cs),
(72,565,o),
(37,494,o),
(28,403,cs),
(20,319,o),
(27,247,o),
(49,186,cs),
(76,115,o),
(130,60,o),
(201,28,cs),
(296,-13,o),
(399,-24,o),
(532,-24,cs)
);
},
{
closed = 1;
nodes = (
(550,279,l),
(595,337,l),
(505,454,l),
(417,338,l),
(461,279,ls),
(490,239,o),
(505,220,o),
(505,221,c)
);
},
{
closed = 1;
nodes = (
(464,125,o),
(418,139,o),
(389,170,cs),
(378,183,o),
(370,198,o),
(364,217,cs),
(351,253,o),
(349,275,o),
(346,319,cs),
(345,395,o),
(350,450,o),
(378,499,cs),
(397,534,o),
(428,555,o),
(471,563,cs),
(528,572,o),
(587,562,o),
(620,523,cs),
(655,483,o),
(664,433,o),
(668,361,cs),
(669,285,o),
(665,234,o),
(637,187,cs),
(616,152,o),
(580,133,o),
(527,129,cs)
);
}
);
};
layerId = m001;
shapes = (
{
closed = 1;
nodes = (
(603,-24,o),
(667,-14,o),
(722,0,c),
(1444,0,l),
(1444,230,l),
(1421,177,o),
(1372,167,o),
(1311,167,cs),
(988,167,l),
(988,282,l),
(1352,282,l),
(1352,431,l),
(988,431,l),
(988,532,l),
(1337,532,ls),
(1378,532,o),
(1410,518,o),
(1432,490,c),
(1432,700,l),
(683,700,l),
(631,710,o),
(573,716,o),
(509,716,cs),
(221,716,o),
(25,630,o),
(25,338,cs),
(25,40,o),
(236,-24,o),
(532,-24,cs)
);
},
{
closed = 1;
nodes = (
(595,337,l),
(505,454,l),
(417,338,l),
(505,221,l)
);
},
{
closed = 1;
nodes = (
(385,128,o),
(346,205,o),
(346,329,cs),
(346,457,o),
(371,566,o),
(509,566,cs),
(629,566,o),
(668,484,o),
(668,361,cs),
(668,227,o),
(649,128,o),
(507,128,cs)
);
}
);
width = 1469;
}
);
unicode = 338;
},
{
color = 6;
glyphname = P;
lastChange = "2025-11-13 14:46:18 +0000";
layers = (
{
anchors = (
{
name = bottom;
pos = (466,0);
},
{
name = top;
pos = (466,700);
}
);
background = {
shapes = (
{
closed = 1;
nodes = (
(409,0,l),
(377,19,o),
(358,54,o),
(358,90,cs),
(358,215,l),
(615,215,ls),
(714,218,o),
(790,248,o),
(843,305,cs),
(898,362,o),
(917,446,o),
(901,526,cs),
(892,579,o),
(864,619,o),
(818,648,cs),
(768,680,o),
(699,697,o),
(611,698,cs),
(25,698,l),
(57,679,o),
(76,644,o),
(76,605,cs),
(76,96,ls),
(77,56,o),
(57,19,o),
(25,0,c)
);
},
{
closed = 1;
nodes = (
(358,552,l),
(500,552,ls),
(540,551,o),
(569,543,o),
(588,529,cs),
(607,516,o),
(617,497,o),
(618,472,cs),
(621,436,o),
(612,407,o),
(591,386,cs),
(572,367,o),
(544,358,o),
(505,358,cs),
(358,358,l)
);
}
);
};
layerId = m001;
shapes = (
{
closed = 1;
nodes = (
(409,0,l),
(377,19,o),
(358,54,o),
(358,90,cs),
(358,215,l),
(615,215,ls),
(786,215,o),
(906,319,o),
(906,471,cs),
(906,639,o),
(777,698,o),
(611,698,cs),
(25,698,l),
(57,679,o),
(76,644,o),
(76,605,cs),
(76,96,ls),
(76,56,o),
(56,19,o),
(25,0,c)
);
},
{
closed = 1;
nodes = (
(358,552,l),
(500,552,ls),
(567,552,o),
(619,531,o),
(619,459,cs),
(619,410,o),
(593,358,o),
(505,358,cs),
(358,358,l)
);
}
);
width = 931;
}
);
unicode = 80;
},
{
color = 3;
glyphname = Thorn;
lastChange = "2025-11-13 14:46:18 +0000";
layers = (
{
anchors = (
{
name = bottom;
pos = (295,0);
},
{
name = top;
pos = (295,700);
}
);
background = {
shapes = (
{
closed = 1;
nodes = (
(395,358,l),
(358,358,l),
(358,552,l),
(375,552,l),
(375,698,l),
(25,698,l),
(57,679,o),
(76,644,o),
(76,605,cs),
(76,96,ls),
(76,56,o),
(56,19,o),
(25,0,c),
(409,0,l),
(377,19,o),
(358,54,o),
(358,90,cs),
(358,215,l),
(395,215,l)
);
},
{
closed = 1;
nodes = (
(395,215,l),
(615,215,ls),
(786,215,o),
(906,319,o),
(906,471,cs),
(906,639,o),
(777,698,o),
(611,698,cs),
(375,698,l),
(375,552,l),
(500,552,ls),
(567,552,o),
(619,531,o),
(619,459,cs),
(619,410,o),
(593,358,o),
(505,358,cs),
(395,358,l)
);
}
);
};
layerId = m001;
shapes = (
{
ref = I;
},
{
closed = 1;
nodes = (
(175,120,l),
(595,120,ls),
(766,120,o),
(886,224,o),
(886,376,cs),
(886,544,o),
(757,603,o),
(591,603,cs),
(155,603,l),
(155,457,l),
(480,457,ls),
(547,457,o),
(599,436,o),
(599,364,cs),
(599,315,o),
(573,263,o),
(485,263,cs),
(175,263,l)
);
}
);
width = 911;
},
{
anchors = (
{
name = bottom;
pos = (295,0);
},
{
name = top;
pos = (295,700);
}
);
associatedMasterId = m001;
background = {
shapes = (
{
closed = 1;
nodes = (
(207,0,l),
(206,1,o),
(205,5,o),
(204,12,cs),
(203,18,o),
(202,28,o),
(201,41,cs),
(198,96,l),
(255,96,ls),
(466,96,o),
(568,182,o),
(565,341,cs),
(562,519,o),
(442,588,o),
(264,588,cs),
(198,588,l),
(201,651,l),
(204,683,l),
(207,697,l),
(25,697,l),
(26,693,o),
(28,678,o),
(30,653,cs),
(33,608,o),
(36,525,o),
(36,349,cs),
(36,261,o),
(35,196,o),
(34,148,cs),
(30,44,ls),
(28,18,o),
(26,3,o),
(25,0,c)
);
},
{
closed = 1;
nodes = (
(195,286,l),
(195,349,l),
(195,448,l),
(265,448,ls),
(368,448,o),
(401,409,o),
(401,340,cs),
(401,273,o),
(368,230,o),
(267,230,cs),
(196,230,l)
);
}
);
};
layerId = "741976C9-F6F9-4712-B408-8C3DFAF28DB0";
name = "13 Nov 25 at 15:26";
shapes = (
{
closed = 1;
nodes = (
(207,0,l),
(206,1,o),
(205,5,o),
(204,12,cs),
(201,41,l),
(198,96,l),
(255,96,ls),
(463,96,o),
(565,180,o),
(565,334,cs),
(565,517,o),
(444,588,o),
(264,588,cs),
(198,588,l),
(201,651,l),
(204,683,l),
(207,697,l),
(25,697,l),
(26,693,o),
(28,678,o),
(30,653,cs),
(33,608,o),
(36,525,o),
(36,349,cs),
(36,261,o),
(35,196,o),
(34,148,cs),
(30,44,ls),
(28,18,o),
(26,3,o),
(25,0,c)
);
},
{
closed = 1;
nodes = (
(195,286,l),
(195,448,l),
(265,448,ls),
(368,448,o),
(401,409,o),
(401,340,cs),
(401,273,o),
(368,230,o),
(267,230,cs),
(196,230,l)
);
}
);
width = 590;
}
);
metricRight = P;
unicode = 222;
},
{
color = 6;
glyphname = Q;
lastChange = "2025-11-13 14:46:18 +0000";
layers = (
{
anchors = (
{
name = bottom;
pos = (508,0);
},
{
name = top;
pos = (508,700);
}
);
background = {
shapes = (
{
closed = 1;
nodes = (
(781,-175,l),
(673,-10,l),
(786,10,o),
(868,51,o),
(919,113,cs),
(975,179,o),
(998,271,o),
(988,388,cs),
(980,475,o),
(944,556,o),
(883,611,cs),
(816,670,o),
(718,704,o),
(591,714,cs),
(472,722,o),
(368,714,o),
(279,690,cs),
(184,663,o),
(118,617,o),
(79,554,cs),
(32,483,o),
(16,389,o),
(29,272,cs),
(37,185,o),
(78,106,o),
(146,59,cs),
(233,-1,o),
(342,-20,o),
(475,-24,c),
(508,-175,l)
);
},
{
closed = 1;
nodes = (
(482,125,o),
(439,132,o),
(409,153,cs),
(382,171,o),
(363,202,o),
(353,247,cs),
(346,284,o),
(344,329,o),
(347,382,cs),
(350,437,o),
(363,480,o),
(386,513,cs),
(405,539,o),
(433,556,o),
(471,564,cs),
(528,573,o),
(585,562,o),
(620,523,cs),
(648,490,o),
(664,436,o),
(668,361,cs),
(669,289,o),
(665,238,o),
(640,191,cs),
(620,155,o),
(581,134,o),
(538,130,cs)
);
}
);
};
layerId = m001;
shapes = (
{
closed = 1;
nodes = (
(781,-175,l),
(673,-10,l),
(876,26,o),
(990,131,o),
(990,337,cs),
(990,621,o),
(787,717,o),
(505,717,cs),
(222,717,o),
(25,622,o),
(25,347,cs),
(25,66,o),
(196,-16,o),
(475,-24,c),
(508,-175,l)
);
},
{
closed = 1;
nodes = (
(638,128,o),
(505,128,cs),
(371,128,o),
(346,218,o),
(346,336,cs),
(346,475,o),
(379,567,o),
(508,567,cs),
(633,567,o),
(668,468,o),
(668,343,cs),
(668,209,o)
);
}
);
width = 1016;
}
);
unicode = 81;
},
{
color = 6;
glyphname = R;
lastChange = "2025-11-13 14:46:18 +0000";
layers = (
{
anchors = (
{
name = bottom;
pos = (497,0);
},
{
name = top;
pos = (497,700);
}
);
background = {
shapes = (
{
closed = 1;
nodes = (
(409,-1,l),
(376,19,o),
(359,49,o),
(359,90,cs),
(359,222,l),
(426,222,l),
(492,221,ls),
(545,217,o),
(582,205,o),
(602,184,cs),
(625,161,o),
(636,121,o),
(636,64,cs),
(636,33,o),
(624,11,o),
(601,-1,c),
(969,-1,l),
(936,15,o),
(918,42,o),
(917,79,cs),
(916,159,o),
(903,217,o),
(878,254,cs),
(855,289,o),
(818,315,o),
(766,330,c),
(814,353,o),
(847,381,o),
(864,414,c),
(907,485,o),
(895,587,o),
(830,639,cs),
(784,674,o),
(713,694,o),
(616,698,c),
(25,698,l),
(59,679,o),
(76,648,o),
(76,605,cs),
(76,90,ls),
(76,49,o),
(59,19,o),
(26,-1,c)
);
},
{
closed = 1;
nodes = (
(359,552,l),
(535,552,ls),
(571,552,o),
(598,543,o),
(615,526,cs),
(652,486,o),
(638,411,o),
(587,390,cs),
(570,382,o),
(551,379,o),
(530,380,cs),
(359,380,l)
);
}
);
};
layerId = m001;
shapes = (
{
closed = 1;
nodes = (
(409,0,l),
(376,20,o),
(359,50,o),
(359,91,cs),
(359,222,l),
(492,222,ls),
(596,222,o),
(636,170,o),
(636,64,cs),
(636,33,o),
(624,12,o),
(601,0,c),
(969,0,l),
(936,16,o),
(917,42,o),
(917,79,cs),
(917,159,o),
(903,217,o),
(878,254,cs),
(855,289,o),
(818,315,o),
(766,330,c),
(843,367,o),
(889,425,o),
(889,507,cs),
(889,648,o),
(755,700,o),
(616,700,cs),
(25,700,l),
(59,681,o),
(76,650,o),
(76,607,cs),
(76,91,ls),
(76,50,o),
(59,20,o),
(26,0,c)
);
},
{
closed = 1;
nodes = (
(359,552,l),
(535,552,ls),
(598,552,o),
(636,523,o),
(636,470,cs),
(636,408,o),
(587,380,o),
(530,380,cs),
(359,380,l)
);
}
);
width = 994;
}
);
unicode = 82;
},
{
color = 10;
glyphname = Racute;
lastChange = "2025-11-13 14:46:18 +0000";
layers = (
{
background = {
shapes = (
{
closed = 1;
nodes = (
(409,-1,l),
(376,19,o),
(359,49,o),
(359,90,cs),
(359,222,l),
(426,222,l),
(492,221,ls),
(545,217,o),
(582,205,o),
(602,184,cs),
(625,161,o),
(636,121,o),
(636,64,cs),
(636,33,o),
(624,11,o),
(601,-1,c),
(969,-1,l),
(936,15,o),
(918,42,o),
(917,79,cs),
(916,159,o),
(903,217,o),
(878,254,cs),
(855,289,o),
(818,315,o),
(766,330,c),
(814,353,o),
(847,381,o),
(864,414,c),
(907,485,o),
(895,587,o),
(830,639,cs),
(784,674,o),
(713,694,o),
(616,698,c),
(25,698,l),
(59,679,o),
(76,648,o),
(76,605,cs),
(76,90,ls),
(76,49,o),
(59,19,o),
(26,-1,c)
);
},
{
closed = 1;
nodes = (
(359,552,l),
(535,552,ls),
(571,552,o),
(598,543,o),
(615,526,cs),
(652,486,o),
(638,411,o),
(587,390,cs),
(570,382,o),
(551,379,o),
(530,380,cs),
(359,380,l)
);
},
{
closed = 1;
nodes = (
(538,750,l),
(667,860,l),
(769,948,l),
(463,948,l),
(456,926,l),
(447,904,l),
(360,750,l),
(538,750,l),
(667,860,l),
(769,948,l),
(463,948,l),
(456,926,l),
(447,904,l),
(360,750,l),
(538,750,l),
(667,860,l),
(769,948,l),
(463,948,l),
(456,926,l),
(447,904,l),
(360,750,l)
);
}
);
};
layerId = m001;
shapes = (
{
ref = R;
},
{
pos = (259,0);
ref = acutecomb;
}
);
width = 994;
}
);
unicode = 340;
},
{
color = 10;
glyphname = Rcaron;
lastChange = "2025-11-13 14:46:18 +0000";
layers = (
{
background = {
shapes = (
{
closed = 1;
nodes = (
(409,-1,l),
(376,19,o),
(359,49,o),
(359,90,cs),
(359,222,l),
(426,222,l),
(492,221,ls),
(545,217,o),
(582,205,o),
(602,184,cs),
(625,161,o),
(636,121,o),
(636,64,cs),
(636,33,o),
(624,11,o),
(601,-1,c),
(969,-1,l),
(936,15,o),
(918,42,o),
(917,79,cs),
(916,159,o),
(903,217,o),
(878,254,cs),
(855,289,o),
(818,315,o),
(766,330,c),
(814,353,o),
(847,381,o),
(864,414,c),
(907,485,o),
(895,587,o),
(830,639,cs),
(784,674,o),
(713,694,o),
(616,698,c),
(25,698,l),
(59,679,o),
(76,648,o),
(76,605,cs),
(76,90,ls),
(76,49,o),
(59,19,o),
(26,-1,c)
);
},
{
closed = 1;
nodes = (
(359,552,l),
(535,552,ls),
(571,552,o),
(598,543,o),
(615,526,cs),
(652,486,o),
(638,411,o),
(587,390,cs),
(570,382,o),
(551,379,o),
(530,380,cs),
(359,380,l)
);
},
{
closed = 1;
nodes = (
(517,750,l),
(660,947,l),
(559,947,l),
(475,830,l),
(436,884,l),
(390,947,l),
(293,947,l),
(433,750,l),
(517,750,l),
(660,947,l),
(559,947,l),
(475,830,l),
(436,884,l),
(390,947,l),
(293,947,l),
(433,750,l),
(517,750,l),
(660,947,l),
(559,947,l),
(475,830,l),
(436,884,l),
(390,947,l),
(293,947,l),
(433,750,l)
);
}
);
};
layerId = m001;
shapes = (
{
ref = R;
},
{
pos = (288,0);
ref = caroncomb;
}
);
width = 994;
}
);
unicode = 344;
},
{
color = 10;
glyphname = Rcommaaccent;
lastChange = "2025-11-13 14:46:18 +0000";
layers = (
{
background = {
shapes = (
{
closed = 1;
nodes = (
(409,-1,l),
(376,19,o),
(359,49,o),
(359,90,cs),
(359,222,l),
(426,222,l),
(492,221,ls),
(545,217,o),
(582,205,o),
(602,184,cs),
(625,161,o),
(636,121,o),
(636,64,cs),
(636,33,o),
(624,11,o),
(601,-1,c),
(969,-1,l),
(936,15,o),
(918,42,o),
(917,79,cs),
(916,159,o),
(903,217,o),
(878,254,cs),
(855,289,o),
(818,315,o),
(766,330,c),
(814,353,o),
(847,381,o),
(864,414,c),
(907,485,o),
(895,587,o),
(830,639,cs),
(784,674,o),
(713,694,o),
(616,698,c),
(25,698,l),
(59,679,o),
(76,648,o),
(76,605,cs),
(76,90,ls),
(76,49,o),
(59,19,o),
(26,-1,c)
);
},
{
closed = 1;
nodes = (
(406,-228,o),
(425,-138,o),
(432,-110,cs),
(434,-101,o),
(435,-88,o),
(435,-69,c),
(574,-69,l),
(534,-151,o),
(502,-218,o),
(479,-269,c),
(398,-269,l)
);
},
{
closed = 1;
nodes = (
(406,-228,o),
(425,-138,o),
(432,-110,cs),
(434,-101,o),
(435,-88,o),
(435,-69,c),
(574,-69,l),
(534,-151,o),
(502,-218,o),
(479,-269,c),
(398,-269,l)
);
},
{
closed = 1;
nodes = (
(479,-269,l),
(502,-218,o),
(534,-151,o),
(574,-69,c),
(435,-69,l),
(435,-88,o),
(434,-101,o),
(432,-110,cs),
(425,-138,o),
(406,-228,o),
(398,-269,c)
);
},
{
closed = 1;
nodes = (
(359,552,l),
(535,552,ls),
(571,552,o),
(598,543,o),
(615,526,cs),
(652,486,o),
(638,411,o),
(587,390,cs),
(570,382,o),
(551,379,o),
(530,380,cs),
(359,380,l)
);
}
);
};
layerId = m001;
shapes = (
{
ref = R;
},
{
pos = (335,0);
ref = commaaccentcomb;
}
);
width = 994;
}
);
unicode = 342;
},
{
color = 6;
glyphname = S;
lastChange = "2025-11-13 14:46:18 +0000";
layers = (
{
anchors = (
{
name = bottom;
pos = (366,0);
},
{
name = top;
pos = (366,700);
}
);
background = {
shapes = (
{
closed = 1;
nodes = (
(504,-14,o),
(586,15,o),
(641,64,cs),
(690,108,o),
(718,172,o),
(711,239,cs),
(708,292,o),
(686,333,o),
(647,362,cs),
(636,370,o),
(625,378,o),
(612,385,cs),
(587,399,o),
(571,406,o),
(539,418,cs),
(502,430,ls),
(470,441,o),
(422,453,o),
(423,453,c),
(383,465,o),
(352,473,o),
(331,487,cs),
(307,500,o),
(302,540,o),
(325,555,cs),
(340,564,o),
(368,568,o),
(407,567,cs),
(504,564,o),
(591,532,o),
(668,471,c),
(668,674,l),
(602,701,o),
(522,715,o),
(428,716,cs),
(315,719,o),
(222,703,o),
(149,667,cs),
(90,639,o),
(44,590,o),
(29,531,cs),
(12,462,o),
(21,404,o),
(56,355,cs),
(82,321,o),
(127,292,o),
(191,268,cs),
(289,235,l),
(387,203,ls),
(397,200,o),
(416,193,o),
(434,180,cs),
(449,168,o),
(444,146,o),
(428,134,c),
(400,118,o),
(373,121,o),
(344,121,cs),
(240,126,o),
(137,161,o),
(36,227,c),
(36,23,l),
(139,-12,o),
(259,-28,o),
(397,-23,c)
);
}
);
};
layerId = m001;
shapes = (
{
closed = 1;
nodes = (
(552,-24,o),
(712,53,o),
(712,229,cs),
(712,370,o),
(566,413,o),
(475,438,cs),
(363,469,o),
(310,484,o),
(310,525,cs),
(310,565,o),
(356,567,o),
(396,567,cs),
(497,567,o),
(588,534,o),
(668,471,c),
(668,674,l),
(596,703,o),
(507,716,o),
(402,716,cs),
(213,716,o),
(21,658,o),
(21,467,cs),
(21,360,o),
(89,306,o),
(191,268,cs),
(387,203,ls),
(411,195,o),
(443,183,o),
(443,161,cs),
(443,131,o),
(405,121,o),
(367,121,cs),
(255,121,o),
(144,156,o),
(36,227,c),
(36,23,l),
(127,-8,o),
(231,-24,o),
(348,-24,cs)
);
}
);
width = 732;
},
{
anchors = (
{
name = bottom;
pos = (366,0);
},
{
name = top;
pos = (366,700);
}
);
associatedMasterId = m001;
background = {
shapes = (
{
closed = 1;
nodes = (
(504,-14,o),
(586,15,o),
(641,64,cs),
(690,108,o),
(718,172,o),
(711,239,cs),
(708,292,o),
(686,333,o),
(647,362,cs),
(636,370,o),
(625,378,o),
(612,385,cs),
(587,399,o),
(571,406,o),
(539,418,cs),
(502,430,ls),
(470,441,o),
(422,453,o),
(423,453,c),
(383,465,o),
(352,473,o),
(331,487,cs),
(307,500,o),
(302,540,o),
(325,555,cs),
(340,564,o),
(368,568,o),
(407,567,cs),
(504,564,o),
(591,532,o),
(668,471,c),
(668,674,l),
(602,701,o),
(522,715,o),
(428,716,cs),
(315,719,o),
(222,703,o),
(149,667,cs),
(90,639,o),
(44,590,o),
(29,531,cs),
(12,462,o),
(21,404,o),
(56,355,cs),
(82,321,o),
(127,292,o),
(191,268,cs),
(289,235,l),
(387,203,ls),
(397,200,o),
(416,193,o),
(434,180,cs),
(449,168,o),
(444,146,o),
(428,134,c),
(400,118,o),
(373,121,o),
(344,121,cs),
(240,126,o),
(137,161,o),
(36,227,c),
(36,23,l),
(139,-12,o),
(259,-28,o),
(397,-23,c)
);
}
);
};
layerId = "8611A10C-BD67-4A81-8ADD-B609C61A6AF0";
name = "13 Nov 25 at 15:29";
shapes = (
{
closed = 1;
nodes = (
(504,-14,o),
(586,15,o),
(641,64,cs),
(685,104,o),
(712,159,o),
(712,219,cs),
(712,282,o),
(691,329,o),
(647,362,cs),
(636,370,o),
(625,378,o),
(612,385,cs),
(587,399,o),
(571,406,o),
(539,418,cs),
(502,430,ls),
(470,441,o),
(422,453,o),
(423,453,c),
(383,465,o),
(352,473,o),
(331,487,cs),
(318,494,o),
(310,510,o),
(310,525,cs),
(310,537,o),
(315,548,o),
(325,555,cs),
(338,563,o),
(363,567,o),
(396,567,cs),
(497,567,o),
(588,534,o),
(668,471,c),
(668,674,l),
(596,703,o),
(507,716,o),
(402,716,cs),
(300,716,o),
(216,700,o),
(149,667,cs),
(90,639,o),
(44,590,o),
(29,531,cs),
(23,508,o),
(21,487,o),
(21,467,cs),
(21,425,o),
(32,388,o),
(56,355,cs),
(82,321,o),
(127,292,o),
(191,268,cs),
(289,235,l),
(387,203,ls),
(397,200,o),
(416,193,o),
(434,180,cs),
(440,175,o),
(443,168,o),
(443,161,cs),
(443,152,o),
(437,141,o),
(428,134,c),
(408,122,o),
(388,121,o),
(367,121,cs),
(255,121,o),
(144,156,o),
(36,227,c),
(36,23,l),
(127,-8,o),
(231,-24,o),
(348,-24,cs),
(397,-23,l)
);
}
);
width = 732;
}
);
unicode = 83;
},
{
color = 10;
glyphname = Sacute;
lastChange = "2025-11-13 14:46:18 +0000";
layers = (
{
background = {
shapes = (
{
closed = 1;
nodes = (
(509,-14,o),
(591,15,o),
(646,64,cs),
(695,108,o),
(723,172,o),
(716,239,cs),
(713,292,o),
(691,333,o),
(652,362,cs),
(641,370,o),
(630,378,o),
(617,385,cs),
(592,399,o),
(576,406,o),
(544,418,cs),
(507,430,ls),
(475,441,o),
(427,453,o),
(428,453,c),
(388,465,o),
(357,473,o),
(336,487,cs),
(312,500,o),
(307,540,o),
(330,555,cs),
(345,564,o),
(373,568,o),
(412,567,cs),
(509,564,o),
(596,532,o),
(673,471,c),
(673,674,l),
(607,701,o),
(527,715,o),
(433,716,cs),
(320,719,o),
(227,703,o),
(154,667,cs),
(95,639,o),
(49,590,o),
(34,531,cs),
(17,462,o),
(26,404,o),
(61,355,cs),
(87,321,o),
(132,292,o),
(196,268,cs),
(294,235,l),
(392,203,ls),
(402,200,o),
(421,193,o),
(439,180,cs),
(454,168,o),
(449,146,o),
(433,134,c),
(405,118,o),
(378,121,o),
(349,121,cs),
(245,126,o),
(142,161,o),
(41,227,c),
(41,23,l),
(144,-12,o),
(264,-28,o),
(402,-23,c)
);
},
{
closed = 1;
nodes = (
(401,751,l),
(530,861,l),
(632,949,l),
(326,949,l),
(319,927,l),
(310,904,l),
(223,751,l),
(401,751,l),
(530,861,l),
(632,949,l),
(326,949,l),
(319,927,l),
(310,904,l),
(223,751,l),
(401,751,l),
(530,861,l),
(632,949,l),
(326,949,l),
(319,927,l),
(310,904,l),
(223,751,l)
);
}
);
};
layerId = m001;
shapes = (
{
ref = S;
},
{
pos = (128,0);
ref = acutecomb;
}
);
width = 732;
}
);
unicode = 346;
},
{
color = 10;
glyphname = Scaron;
lastChange = "2025-11-13 14:46:18 +0000";
layers = (
{
background = {
shapes = (
{
closed = 1;
nodes = (
(509,-14,o),
(591,15,o),
(646,64,cs),
(695,108,o),
(723,172,o),
(716,239,cs),
(713,292,o),
(691,333,o),
(652,362,cs),
(641,370,o),
(630,378,o),
(617,385,cs),
(592,399,o),
(576,406,o),
(544,418,cs),
(507,430,ls),
(475,441,o),
(427,453,o),
(428,453,c),
(388,465,o),
(357,473,o),
(336,487,cs),
(312,500,o),
(307,540,o),
(330,555,cs),
(345,564,o),
(373,568,o),
(412,567,cs),
(509,564,o),
(596,532,o),
(673,471,c),
(673,674,l),
(607,701,o),
(527,715,o),
(433,716,cs),
(320,719,o),
(227,703,o),
(154,667,cs),
(95,639,o),
(49,590,o),
(34,531,cs),
(17,462,o),
(26,404,o),
(61,355,cs),
(87,321,o),
(132,292,o),
(196,268,cs),
(294,235,l),
(392,203,ls),
(402,200,o),
(421,193,o),
(439,180,cs),
(454,168,o),
(449,146,o),
(433,134,c),
(405,118,o),
(378,121,o),
(349,121,cs),
(245,126,o),
(142,161,o),
(41,227,c),
(41,23,l),
(144,-12,o),
(264,-28,o),
(402,-23,c)
);
},
{
closed = 1;
nodes = (
(414,752,l),
(557,949,l),
(456,949,l),
(415,892,l),
(371,832,l),
(287,949,l),
(189,949,l),
(329,752,l),
(414,752,l),
(557,949,l),
(456,949,l),
(415,892,l),
(371,832,l),
(287,949,l),
(189,949,l),
(329,752,l),
(414,752,l),
(557,949,l),
(456,949,l),
(415,892,l),
(371,832,l),
(287,949,l),
(189,949,l),
(329,752,l)
);
}
);
};
layerId = m001;
shapes = (
{
ref = S;
},
{
pos = (157,0);
ref = caroncomb;
}
);
width = 732;
}
);
unicode = 352;
},
{
color = 10;
glyphname = Scedilla;
lastChange = "2025-11-13 14:46:18 +0000";
layers = (
{
background = {
shapes = (
{
closed = 1;
nodes = (
(423,-334,ls),
(490,-328,o),
(536,-311,o),
(562,-282,cs),
(581,-263,o),
(591,-239,o),
(593,-210,cs),
(593,-201,ls),
(593,-176,o),
(587,-153,o),
(574,-132,c),
(559,-100,o),
(537,-74,o),
(506,-42,cs),
(478,-12,l),
(549,2,o),
(605,27,o),
(646,64,cs),
(695,108,o),
(723,172,o),
(716,239,cs),
(713,292,o),
(691,333,o),
(652,362,cs),
(631,378,o),
(603,393,o),
(583,402,cs),
(573,407,o),
(560,412,o),
(544,418,cs),
(511,429,o),
(505,431,o),
(466,442,cs),
(428,453,ls),
(394,463,o),
(357,473,o),
(336,487,cs),
(312,500,o),
(307,540,o),
(330,555,cs),
(345,564,o),
(373,568,o),
(412,567,cs),
(509,564,o),
(596,532,o),
(673,471,c),
(673,674,l),
(607,701,o),
(527,715,o),
(433,716,cs),
(320,719,o),
(227,703,o),
(154,667,cs),
(95,639,o),
(49,590,o),
(34,531,cs),
(17,462,o),
(26,404,o),
(61,355,cs),
(87,321,o),
(132,292,o),
(196,268,cs),
(294,235,l),
(392,203,ls),
(402,200,o),
(421,193,o),
(439,180,cs),
(454,168,o),
(449,146,o),
(433,134,c),
(407,119,o),
(385,121,o),
(349,121,cs),
(245,126,o),
(142,161,o),
(41,227,c),
(41,23,l),
(118,-4,o),
(206,-19,o),
(303,-23,c),
(296,-14,o),
(290,-6,o),
(286,1,c),
(290,-6,o),
(296,-14,o),
(303,-23,cs),
(333,-57,ls),
(356,-81,o),
(371,-100,o),
(380,-115,c),
(388,-124,o),
(393,-134,o),
(395,-145,c),
(395,-153,ls),
(395,-162,o),
(393,-170,o),
(389,-179,cs),
(380,-198,o),
(359,-208,o),
(325,-208,cs),
(274,-208,o),
(227,-188,o),
(184,-149,c),
(184,-282,l),
(241,-317,o),
(308,-335,o),
(385,-335,cs)
);
},
{
closed = 1;
nodes = (
(470,-3,l),
(478,-12,l)
);
}
);
};
layerId = m001;
shapes = (
{
ref = S;
},
{
pos = (148,0);
ref = cedillacomb;
}
);
width = 732;
}
);
unicode = 350;
},
{
color = 10;
glyphname = Scircumflex;
lastChange = "2025-11-13 14:46:18 +0000";
layers = (
{
background = {
shapes = (
{
closed = 1;
nodes = (
(509,-14,o),
(591,15,o),
(646,64,cs),
(695,108,o),
(723,172,o),
(716,239,cs),
(713,292,o),
(691,333,o),
(652,362,cs),
(641,370,o),
(630,378,o),
(617,385,cs),
(592,399,o),
(576,406,o),
(544,418,cs),
(507,430,ls),
(475,441,o),
(427,453,o),
(428,453,c),
(388,465,o),
(357,473,o),
(336,487,cs),
(312,500,o),
(307,540,o),
(330,555,cs),
(345,564,o),
(373,568,o),
(412,567,cs),
(509,564,o),
(596,532,o),
(673,471,c),
(673,674,l),
(607,701,o),
(527,715,o),
(433,716,cs),
(320,719,o),
(227,703,o),
(154,667,cs),
(95,639,o),
(49,590,o),
(34,531,cs),
(17,462,o),
(26,404,o),
(61,355,cs),
(87,321,o),
(132,292,o),
(196,268,cs),
(294,235,l),
(392,203,ls),
(402,200,o),
(421,193,o),
(439,180,cs),
(454,168,o),
(449,146,o),
(433,134,c),
(405,118,o),
(378,121,o),
(349,121,cs),
(245,126,o),
(142,161,o),
(41,227,c),
(41,23,l),
(144,-12,o),
(264,-28,o),
(402,-23,c)
);
},
{
closed = 1;
nodes = (
(279,751,l),
(325,814,l),
(364,867,l),
(407,808,l),
(448,751,l),
(549,751,l),
(406,948,l),
(321,948,l),
(249,846,l),
(182,751,l),
(279,751,l),
(325,814,l),
(364,867,l),
(407,808,l),
(448,751,l),
(549,751,l),
(406,948,l),
(321,948,l),
(249,846,l),
(182,751,l),
(279,751,l),
(325,814,l),
(364,867,l),
(407,808,l),
(448,751,l),
(549,751,l),
(406,948,l),
(321,948,l),
(249,846,l),
(182,751,l)
);
}
);
};
layerId = m001;
shapes = (
{
ref = S;
},
{
pos = (157,0);
ref = circumflexcomb;
}
);
width = 732;
}
);
unicode = 348;
},
{
color = 10;
glyphname = Scommaaccent;
lastChange = "2025-11-13 14:46:18 +0000";
layers = (
{
background = {
shapes = (
{
closed = 1;
nodes = (
(509,-14,o),
(591,15,o),
(646,64,cs),
(695,108,o),
(723,172,o),
(716,239,cs),
(713,292,o),
(691,333,o),
(652,362,cs),
(641,370,o),
(630,378,o),
(617,385,cs),
(592,399,o),
(576,406,o),
(544,418,cs),
(507,430,ls),
(475,441,o),
(427,453,o),
(428,453,c),
(388,465,o),
(357,473,o),
(336,487,cs),
(312,500,o),
(307,540,o),
(330,555,cs),
(345,564,o),
(373,568,o),
(412,567,cs),
(509,564,o),
(596,532,o),
(673,471,c),
(673,674,l),
(607,701,o),
(527,715,o),
(433,716,cs),
(320,719,o),
(227,703,o),
(154,667,cs),
(95,639,o),
(49,590,o),
(34,531,cs),
(17,462,o),
(26,404,o),
(61,355,cs),
(87,321,o),
(132,292,o),
(196,268,cs),
(294,235,l),
(392,203,ls),
(402,200,o),
(421,193,o),
(439,180,cs),
(454,168,o),
(449,146,o),
(433,134,c),
(405,118,o),
(378,121,o),
(349,121,cs),
(245,126,o),
(142,161,o),
(41,227,c),
(41,23,l),
(144,-12,o),
(264,-28,o),
(402,-23,c)
);
},
{
closed = 1;
nodes = (
(286,-237,o),
(305,-148,o),
(312,-119,cs),
(314,-110,o),
(315,-97,o),
(315,-78,c),
(454,-78,l),
(359,-278,l),
(278,-278,l)
);
},
{
closed = 1;
nodes = (
(286,-237,o),
(305,-148,o),
(312,-119,cs),
(314,-110,o),
(315,-97,o),
(315,-78,c),
(454,-78,l),
(359,-278,l),
(278,-278,l)
);
},
{
closed = 1;
nodes = (
(359,-278,l),
(454,-78,l),
(315,-78,l),
(315,-97,o),
(314,-110,o),
(312,-119,cs),
(305,-148,o),
(286,-237,o),
(278,-278,c)
);
}
);
};
layerId = m001;
shapes = (
{
ref = S;
},
{
pos = (204,0);
ref = commaaccentcomb;
}
);
width = 732;
}
);
unicode = 536;
},
{
color = 6;
glyphname = Germandbls;
lastChange = "2025-11-13 14:46:18 +0000";
layers = (
{
background = {
shapes = (
{
closed = 1;
nodes = (
(617,-24,o),
(701,-13,o),
(772,9,cs),
(837,30,o),
(885,59,o),
(916,96,cs),
(968,152,o),
(967,249,o),
(912,301,cs),
(867,344,o),
(805,356,o),
(722,360,c),
(723,361,o),
(724,363,o),
(724,366,c),
(770,377,o),
(800,386,o),
(815,393,cs),
(860,415,o),
(889,444,o),
(904,481,cs),
(924,530,o),
(917,594,o),
(882,634,cs),
(855,666,o),
(813,688,o),
(758,701,cs),
(697,717,o),
(623,723,o),
(536,720,cs),
(433,717,o),
(343,699,o),
(267,668,c),
(267,484,l),
(349,531,o),
(442,551,o),
(546,546,cs),
(554,546,o),
(571,543,o),
(580,542,cs),
(602,537,o),
(613,531,o),
(621,523,cs),
(644,499,o),
(638,456,o),
(611,437,cs),
(594,425,o),
(564,417,o),
(523,414,cs),
(517,413,l),
(382,413,l),
(382,278,l),
(530,278,ls),
(566,277,o),
(592,271,o),
(609,260,cs),
(640,239,o),
(639,183,o),
(607,164,cs),
(594,155,o),
(579,150,o),
(562,147,cs),
(545,144,o),
(520,142,o),
(515,142,cs),
(402,139,o),
(310,161,o),
(238,210,c),
(238,19,l),
(309,-8,o),
(403,-23,o),
(520,-24,cs)
);
}
);
};
layerId = m001;
shapes = (
{
closed = 1;
nodes = (
(75,88,o),
(73,64,o),
(68,52,cs),
(59,29,o),
(45,12,o),
(25,0,c),
(373,0,l),
(370,3,o),
(367,18,o),
(364,44,cs),
(362,65,o),
(358,99,o),
(358,148,cs),
(358,475,ls),
(358,526,o),
(416,547,o),
(501,547,cs),
(580,547,o),
(633,536,o),
(633,483,cs),
(633,437,o),
(591,411,o),
(492,411,cs),
(450,411,o),
(427,412,o),
(402,415,c),
(402,269,l),
(432,276,o),
(450,278,o),
(518,278,cs),
(618,278,o),
(633,238,o),
(633,211,cs),
(633,165,o),
(586,145,o),
(498,145,cs),
(454,145,o),
(424,150,o),
(404,155,c),
(429,0,l),
(466,-13,o),
(502,-20,o),
(578,-20,cs),
(781,-20,o),
(956,57,o),
(956,195,cs),
(956,284,o),
(881,361,o),
(723,361,c),
(724,366,l),
(867,387,o),
(916,474,o),
(916,536,cs),
(916,631,o),
(810,720,o),
(521,720,cs),
(257,720,o),
(75,635,o),
(75,437,cs),
(75,123,ls)
);
}
);
width = 982;
}
);
metricRight = B;
unicode = 7838;
},
{
color = 6;
glyphname = T;
lastChange = "2025-11-13 14:46:18 +0000";
layers = (
{
anchors = (
{
name = bottom;
pos = (445,0);
},
{
name = center;
pos = (445,350);
},
{
name = top;
pos = (445,700);
}
);
background = {
shapes = (
{
closed = 1;
nodes = (
(637,0,l),
(602,20,o),
(584,61,o),
(587,102,c),
(587,511,l),
(774,511,ls),
(814,511,o),
(844,494,o),
(865,461,c),
(865,701,l),
(26,701,l),
(26,581,l),
(25,461,l),
(46,494,o),
(76,511,o),
(115,511,cs),
(304,511,l),
(304,123,ls),
(304,88,o),
(302,64,o),
(297,52,cs),
(288,29,o),
(274,12,o),
(254,0,c)
);
}
);
};
layerId = m001;
shapes = (
{
closed = 1;
nodes = (
(637,0,l),
(602,20,o),
(587,61,o),
(587,102,cs),
(587,511,l),
(774,511,ls),
(814,511,o),
(844,494,o),
(865,461,c),
(865,700,l),
(25,700,l),
(25,461,l),
(46,494,o),
(76,511,o),
(115,511,cs),
(304,511,l),
(304,123,ls),
(304,62,o),
(298,26,o),
(254,0,c)
);
}
);
width = 890;
}
);
unicode = 84;
},
{
color = 3;
glyphname = Tbar;
lastChange = "2025-11-13 14:46:18 +0000";
layers = (
{
background = {
shapes = (
{
closed = 1;
nodes = (
(637,0,l),
(602,20,o),
(584,61,o),
(587,102,c),
(587,511,l),
(774,511,ls),
(814,511,o),
(844,494,o),
(865,461,c),
(865,701,l),
(26,701,l),
(26,581,l),
(25,461,l),
(46,494,o),
(76,511,o),
(115,511,cs),
(304,511,l),
(304,123,ls),
(304,88,o),
(302,64,o),
(297,52,cs),
(288,29,o),
(274,12,o),
(254,0,c)
);
},
{
closed = 1;
nodes = (
(734,203,l),
(734,376,l),
(160,376,l),
(160,203,l),
(734,203,l),
(734,376,l),
(160,376,l),
(160,203,l),
(734,203,l),
(734,376,l),
(160,376,l),
(160,203,l)
);
}
);
};
layerId = m001;
shapes = (
{
closed = 1;
nodes = (
(734,203,l),
(734,376,l),
(160,376,l),
(160,203,l)
);
},
{
ref = T;
}
);
width = 890;
}
);
unicode = 358;
},
{
color = 10;
glyphname = Tcaron;
lastChange = "2025-11-13 14:46:18 +0000";
layers = (
{
background = {
shapes = (
{
closed = 1;
nodes = (
(637,0,l),
(602,20,o),
(584,61,o),
(587,102,c),
(587,511,l),
(774,511,ls),
(814,511,o),
(844,494,o),
(865,461,c),
(865,701,l),
(26,701,l),
(26,581,l),
(25,461,l),
(46,494,o),
(76,511,o),
(115,511,cs),
(304,511,l),
(304,123,ls),
(304,88,o),
(302,64,o),
(297,52,cs),
(288,29,o),
(274,12,o),
(254,0,c)
);
},
{
closed = 1;
nodes = (
(484,751,l),
(627,948,l),
(526,948,l),
(442,831,l),
(403,885,l),
(357,948,l),
(260,948,l),
(400,751,l),
(484,751,l),
(627,948,l),
(526,948,l),
(442,831,l),
(403,885,l),
(357,948,l),
(260,948,l),
(400,751,l),
(484,751,l),
(627,948,l),
(526,948,l),
(442,831,l),
(403,885,l),
(357,948,l),
(260,948,l),
(400,751,l)
);
}
);
};
layerId = m001;
shapes = (
{
ref = T;
},
{
pos = (236,0);
ref = caroncomb;
}
);
width = 890;
}
);
unicode = 356;
},
{
color = 10;
glyphname = Tcedilla;
lastChange = "2025-11-13 14:46:18 +0000";
layers = (
{
background = {
shapes = (
{
closed = 1;
nodes = (
(637,0,l),
(602,20,o),
(584,61,o),
(587,102,c),
(587,511,l),
(774,511,ls),
(814,511,o),
(844,494,o),
(865,461,c),
(865,701,l),
(26,701,l),
(26,581,l),
(25,461,l),
(46,494,o),
(76,511,o),
(115,511,cs),
(304,511,l),
(304,123,ls),
(304,88,o),
(302,64,o),
(297,52,cs),
(288,29,o),
(274,12,o),
(254,0,c)
);
},
{
closed = 1;
nodes = (
(348,-209,o),
(367,-120,o),
(374,-91,cs),
(376,-82,o),
(377,-69,o),
(377,-50,c),
(516,-50,l),
(421,-250,l),
(340,-250,l)
);
},
{
closed = 1;
nodes = (
(348,-209,o),
(367,-120,o),
(374,-91,cs),
(376,-82,o),
(377,-69,o),
(377,-50,c),
(516,-50,l),
(421,-250,l),
(340,-250,l)
);
},
{
closed = 1;
nodes = (
(421,-250,l),
(516,-50,l),
(377,-50,l),
(377,-69,o),
(376,-82,o),
(374,-91,cs),
(367,-120,o),
(348,-209,o),
(340,-250,c)
);
}
);
};
layerId = m001;
shapes = (
{
ref = T;
},
{
pos = (227,0);
ref = cedillacomb;
}
);
width = 890;
}
);
unicode = 354;
},
{
color = 10;
glyphname = Tcommaaccent;
lastChange = "2025-11-13 14:46:18 +0000";
layers = (
{
background = {
shapes = (
{
closed = 1;
nodes = (
(637,0,l),
(602,20,o),
(584,61,o),
(587,102,c),
(587,511,l),
(774,511,ls),
(814,511,o),
(844,494,o),
(865,461,c),
(865,701,l),
(26,701,l),
(26,581,l),
(25,461,l),
(46,494,o),
(76,511,o),
(115,511,cs),
(304,511,l),
(304,123,ls),
(304,88,o),
(302,64,o),
(297,52,cs),
(288,29,o),
(274,12,o),
(254,0,c)
);
},
{
closed = 1;
nodes = (
(348,-209,o),
(367,-120,o),
(374,-91,cs),
(376,-82,o),
(377,-69,o),
(377,-50,c),
(516,-50,l),
(421,-250,l),
(340,-250,l)
);
},
{
closed = 1;
nodes = (
(348,-209,o),
(367,-120,o),
(374,-91,cs),
(376,-82,o),
(377,-69,o),
(377,-50,c),
(516,-50,l),
(421,-250,l),
(340,-250,l)
);
},
{
closed = 1;
nodes = (
(421,-250,l),
(516,-50,l),
(377,-50,l),
(377,-69,o),
(376,-82,o),
(374,-91,cs),
(367,-120,o),
(348,-209,o),
(340,-250,c)
);
}
);
};
layerId = m001;
shapes = (
{
ref = T;
},
{
pos = (283,0);
ref = commaaccentcomb;
}
);
width = 890;
}
);
unicode = 538;
},
{
color = 6;
glyphname = U;
lastChange = "2025-11-13 14:46:18 +0000";
layers = (
{
anchors = (
{
name = bottom;
pos = (492,0);
},
{
name = ogonek;
pos = (707,0);
},
{
name = top;
pos = (492,700);
},
{
name = topright;
pos = (964,700);
}
);
background = {
shapes = (
{
closed = 1;
nodes = (
(531,-29,o),
(617,-23,o),
(688,-6,cs),
(759,9,o),
(813,39,o),
(850,83,cs),
(889,130,o),
(909,191,o),
(909,266,cs),
(909,607,ls),
(909,648,o),
(926,679,o),
(959,700,c),
(619,700,l),
(635,684,o),
(643,655,o),
(643,612,cs),
(644,455,l),
(644,298,ls),
(644,255,o),
(638,223,o),
(625,202,cs),
(606,171,o),
(576,153,o),
(534,150,cs),
(476,145,o),
(431,155,o),
(400,180,cs),
(372,202,o),
(358,236,o),
(358,283,cs),
(358,612,ls),
(358,654,o),
(365,683,o),
(380,700,c),
(203,700,l),
(25,700,l),
(57,680,o),
(74,651,o),
(75,612,cs),
(74,436,l),
(75,261,ls),
(76,177,o),
(105,111,o),
(161,64,cs),
(222,11,o),
(311,-18,o),
(428,-24,cs)
);
}
);
};
layerId = m001;
shapes = (
{
closed = 1;
nodes = (
(482,-26,cs),
(741,-26,o),
(909,40,o),
(909,266,cs),
(909,607,ls),
(909,648,o),
(926,679,o),
(959,700,c),
(619,700,l),
(635,684,o),
(644,655,o),
(644,612,cs),
(644,298,ls),
(644,197,o),
(608,149,o),
(506,149,cs),
(417,149,o),
(358,189,o),
(358,283,cs),
(358,612,ls),
(358,654,o),
(365,683,o),
(380,700,c),
(25,700,l),
(57,680,o),
(74,651,o),
(74,612,cs),
(74,261,ls),
(74,113,o),
(184,-26,o)
);
}
);
width = 984;
}
);
unicode = 85;
},
{
color = 10;
glyphname = Uacute;
lastChange = "2025-11-13 14:46:18 +0000";
layers = (
{
background = {
shapes = (
{
closed = 1;
nodes = (
(531,-29,o),
(617,-23,o),
(688,-6,cs),
(759,9,o),
(813,39,o),
(850,83,cs),
(889,130,o),
(909,191,o),
(909,266,cs),
(909,607,ls),
(909,648,o),
(926,679,o),
(959,700,c),
(619,700,l),
(635,684,o),
(643,655,o),
(643,612,cs),
(644,455,l),
(644,298,ls),
(644,255,o),
(638,223,o),
(625,202,cs),
(606,171,o),
(576,153,o),
(534,150,cs),
(476,145,o),
(431,155,o),
(400,180,cs),
(372,202,o),
(358,236,o),
(358,283,cs),
(358,612,ls),
(358,654,o),
(365,683,o),
(380,700,c),
(203,700,l),
(25,700,l),
(57,680,o),
(74,651,o),
(75,612,cs),
(74,436,l),
(75,261,ls),
(76,177,o),
(105,111,o),
(161,64,cs),
(222,11,o),
(311,-18,o),
(428,-24,cs)
);
},
{
closed = 1;
nodes = (
(556,770,l),
(685,880,l),
(787,968,l),
(481,968,l),
(474,946,l),
(465,924,l),
(378,770,l),
(556,770,l),
(685,880,l),
(787,968,l),
(481,968,l),
(474,946,l),
(465,924,l),
(378,770,l),
(556,770,l),
(685,880,l),
(787,968,l),
(481,968,l),
(474,946,l),
(465,924,l),
(378,770,l)
);
}
);
};
layerId = m001;
shapes = (
{
ref = U;
},
{
pos = (254,0);
ref = acutecomb;
}
);
width = 984;
}
);
unicode = 218;
},
{
color = 10;
glyphname = Ubreve;
lastChange = "2025-11-13 14:46:18 +0000";
layers = (
{
background = {
shapes = (
{
closed = 1;
nodes = (
(531,-29,o),
(617,-23,o),
(688,-6,cs),
(759,9,o),
(813,39,o),
(850,83,cs),
(889,130,o),
(909,191,o),
(909,266,cs),
(909,607,ls),
(909,648,o),
(926,679,o),
(959,700,c),
(619,700,l),
(635,684,o),
(643,655,o),
(643,612,cs),
(644,455,l),
(644,298,ls),
(644,255,o),
(638,223,o),
(625,202,cs),
(606,171,o),
(576,153,o),
(534,150,cs),
(476,145,o),
(431,155,o),
(400,180,cs),
(372,202,o),
(358,236,o),
(358,283,cs),
(358,612,ls),
(358,654,o),
(365,683,o),
(380,700,c),
(203,700,l),
(25,700,l),
(57,680,o),
(74,651,o),
(75,612,cs),
(74,436,l),
(75,261,ls),
(76,177,o),
(105,111,o),
(161,64,cs),
(222,11,o),
(311,-18,o),
(428,-24,cs)
);
},
{
closed = 1;
nodes = (
(565,752,o),
(620,770,o),
(659,807,cs),
(698,844,o),
(718,891,o),
(718,949,cs),
(718,950,l),
(569,950,l),
(570,913,o),
(541,887,o),
(493,887,cs),
(442,887,o),
(418,914,o),
(417,950,c),
(268,950,l),
(269,950,o),
(269,950,o),
(268,949,c),
(269,892,o),
(288,844,o),
(327,808,cs),
(346,791,o),
(369,777,o),
(397,767,cs),
(424,757,o),
(456,752,o),
(493,752,cs)
);
}
);
};
layerId = m001;
shapes = (
{
ref = U;
},
{
pos = (242,0);
ref = brevecomb;
}
);
width = 984;
}
);
unicode = 364;
},
{
color = 10;
glyphname = Ucircumflex;
lastChange = "2025-11-13 14:46:18 +0000";
layers = (
{
background = {
shapes = (
{
closed = 1;
nodes = (
(531,-29,o),
(617,-23,o),
(688,-6,cs),
(759,9,o),
(813,39,o),
(850,83,cs),
(889,130,o),
(909,191,o),
(909,266,cs),
(909,607,ls),
(909,648,o),
(926,679,o),
(959,700,c),
(619,700,l),
(635,684,o),
(643,655,o),
(643,612,cs),
(644,455,l),
(644,298,ls),
(644,255,o),
(638,223,o),
(625,202,cs),
(606,171,o),
(576,153,o),
(534,150,cs),
(476,145,o),
(431,155,o),
(400,180,cs),
(372,202,o),
(358,236,o),
(358,283,cs),
(358,612,ls),
(358,654,o),
(365,683,o),
(380,700,c),
(203,700,l),
(25,700,l),
(57,680,o),
(74,651,o),
(75,612,cs),
(74,436,l),
(75,261,ls),
(76,177,o),
(105,111,o),
(161,64,cs),
(222,11,o),
(311,-18,o),
(428,-24,cs)
);
},
{
closed = 1;
nodes = (
(414,750,l),
(460,813,l),
(498,866,l),
(541,807,l),
(582,750,l),
(684,750,l),
(540,947,l),
(456,947,l),
(384,845,l),
(316,750,l),
(414,750,l),
(460,813,l),
(498,866,l),
(541,807,l),
(582,750,l),
(684,750,l),
(540,947,l),
(456,947,l),
(384,845,l),
(316,750,l),
(414,750,l),
(460,813,l),
(498,866,l),
(541,807,l),
(582,750,l),
(684,750,l),
(540,947,l),
(456,947,l),
(384,845,l),
(316,750,l)
);
}
);
};
layerId = m001;
shapes = (
{
ref = U;
},
{
pos = (283,0);
ref = circumflexcomb;
}
);
width = 984;
}
);
unicode = 219;
},
{
color = 10;
glyphname = Udieresis;
lastChange = "2025-11-13 14:46:18 +0000";
layers = (
{
background = {
shapes = (
{
closed = 1;
nodes = (
(531,-29,o),
(617,-23,o),
(688,-6,cs),
(759,9,o),
(813,39,o),
(850,83,cs),
(889,130,o),
(909,191,o),
(909,266,cs),
(909,607,ls),
(909,648,o),
(926,679,o),
(959,700,c),
(619,700,l),
(635,684,o),
(643,655,o),
(643,612,cs),
(644,455,l),
(644,298,ls),
(644,255,o),
(638,223,o),
(625,202,cs),
(606,171,o),
(576,153,o),
(534,150,cs),
(476,145,o),
(431,155,o),
(400,180,cs),
(372,202,o),
(358,236,o),
(358,283,cs),
(358,612,ls),
(358,654,o),
(365,683,o),
(380,700,c),
(203,700,l),
(25,700,l),
(57,680,o),
(74,651,o),
(75,612,cs),
(74,436,l),
(75,261,ls),
(76,177,o),
(105,111,o),
(161,64,cs),
(222,11,o),
(311,-18,o),
(428,-24,cs)
);
},
{
closed = 1;
nodes = (
(430,751,o),
(481,790,o),
(481,851,cs),
(481,910,o),
(439,951,o),
(367,951,cs),
(294,951,o),
(253,909,o),
(253,851,cs),
(253,788,o),
(300,751,o),
(367,751,cs)
);
},
{
closed = 1;
nodes = (
(695,751,o),
(746,790,o),
(746,851,cs),
(746,910,o),
(705,951,o),
(632,951,cs),
(559,951,o),
(518,909,o),
(518,851,cs),
(518,788,o),
(565,751,o),
(632,751,cs)
);
}
);
};
layerId = m001;
shapes = (
{
ref = U;
},
{
pos = (220,0);
ref = dieresiscomb;
}
);
width = 984;
}
);
unicode = 220;
},
{
color = 10;
glyphname = Ugrave;
lastChange = "2025-11-13 14:46:18 +0000";
layers = (
{
background = {
shapes = (
{
closed = 1;
nodes = (
(531,-29,o),
(617,-23,o),
(688,-6,cs),
(759,9,o),
(813,39,o),
(850,83,cs),
(889,130,o),
(909,191,o),
(909,266,cs),
(909,607,ls),
(909,648,o),
(926,679,o),
(959,700,c),
(619,700,l),
(635,684,o),
(643,655,o),
(643,612,cs),
(644,455,l),
(644,298,ls),
(644,255,o),
(638,223,o),
(625,202,cs),
(606,171,o),
(576,153,o),
(534,150,cs),
(476,145,o),
(431,155,o),
(400,180,cs),
(372,202,o),
(358,236,o),
(358,283,cs),
(358,612,ls),
(358,654,o),
(365,683,o),
(380,700,c),
(203,700,l),
(25,700,l),
(57,680,o),
(74,651,o),
(75,612,cs),
(74,436,l),
(75,261,ls),
(76,177,o),
(105,111,o),
(161,64,cs),
(222,11,o),
(311,-18,o),
(428,-24,cs)
);
},
{
closed = 1;
nodes = (
(620,770,l),
(532,924,l),
(528,935,o),
(520,957,o),
(517,968,c),
(211,968,l),
(313,880,ls),
(368,832,o),
(411,795,o),
(442,770,c),
(620,770,l),
(532,924,l),
(528,935,o),
(520,957,o),
(517,968,c),
(211,968,l),
(313,880,ls),
(368,832,o),
(411,795,o),
(442,770,c),
(620,770,l),
(532,924,l),
(528,935,o),
(520,957,o),
(517,968,c),
(211,968,l),
(313,880,ls),
(368,832,o),
(411,795,o),
(442,770,c)
);
}
);
};
layerId = m001;
shapes = (
{
ref = U;
},
{
pos = (180,0);
ref = gravecomb;
}
);
width = 984;
}
);
unicode = 217;
},
{
color = 10;
glyphname = Uhungarumlaut;
lastChange = "2025-11-13 14:46:18 +0000";
layers = (
{
background = {
shapes = (
{
closed = 1;
nodes = (
(531,-29,o),
(617,-23,o),
(688,-6,cs),
(759,9,o),
(813,39,o),
(850,83,cs),
(889,130,o),
(909,191,o),
(909,266,cs),
(909,607,ls),
(909,648,o),
(926,679,o),
(959,700,c),
(619,700,l),
(635,684,o),
(643,655,o),
(643,612,cs),
(644,455,l),
(644,298,ls),
(644,255,o),
(638,223,o),
(625,202,cs),
(606,171,o),
(576,153,o),
(534,150,cs),
(476,145,o),
(431,155,o),
(400,180,cs),
(372,202,o),
(358,236,o),
(358,283,cs),
(358,612,ls),
(358,654,o),
(365,683,o),
(380,700,c),
(203,700,l),
(25,700,l),
(57,680,o),
(74,651,o),
(75,612,cs),
(74,436,l),
(75,261,ls),
(76,177,o),
(105,111,o),
(161,64,cs),
(222,11,o),
(311,-18,o),
(428,-24,cs)
);
},
{
closed = 1;
nodes = (
(351,750,l),
(481,861,l),
(582,948,l),
(276,948,l),
(273,937,o),
(265,915,o),
(261,904,c),
(173,750,l),
(351,750,l),
(481,861,l),
(582,948,l),
(276,948,l),
(273,937,o),
(265,915,o),
(261,904,c),
(173,750,l),
(351,750,l),
(481,861,l),
(582,948,l),
(276,948,l),
(273,937,o),
(265,915,o),
(261,904,c),
(173,750,l)
);
},
{
closed = 1;
nodes = (
(685,750,l),
(814,861,l),
(916,948,l),
(610,948,l),
(607,937,o),
(599,915,o),
(595,904,c),
(507,750,l),
(685,750,l),
(814,861,l),
(916,948,l),
(610,948,l),
(607,937,o),
(599,915,o),
(595,904,c),
(507,750,l),
(685,750,l),
(814,861,l),
(916,948,l),
(610,948,l),
(607,937,o),
(599,915,o),
(595,904,c),
(507,750,l)
);
}
);
};
layerId = m001;
shapes = (
{
ref = U;
},
{
pos = (114,0);
ref = hungarumlautcomb;
}
);
width = 984;
}
);
unicode = 368;
},
{
color = 10;
glyphname = Umacron;
lastChange = "2025-11-13 14:46:18 +0000";
layers = (
{
background = {
shapes = (
{
closed = 1;
nodes = (
(531,-29,o),
(617,-23,o),
(688,-6,cs),
(759,9,o),
(813,39,o),
(850,83,cs),
(889,130,o),
(909,191,o),
(909,266,cs),
(909,607,ls),
(909,648,o),
(926,679,o),
(959,700,c),
(619,700,l),
(635,684,o),
(643,655,o),
(643,612,cs),
(644,455,l),
(644,298,ls),
(644,255,o),
(638,223,o),
(625,202,cs),
(606,171,o),
(576,153,o),
(534,150,cs),
(476,145,o),
(431,155,o),
(400,180,cs),
(372,202,o),
(358,236,o),
(358,283,cs),
(358,612,ls),
(358,654,o),
(365,683,o),
(380,700,c),
(203,700,l),
(25,700,l),
(57,680,o),
(74,651,o),
(75,612,cs),
(74,436,l),
(75,261,ls),
(76,177,o),
(105,111,o),
(161,64,cs),
(222,11,o),
(311,-18,o),
(428,-24,cs)
);
},
{
closed = 1;
nodes = (
(762,751,l),
(762,931,l),
(227,931,l),
(227,751,l)
);
}
);
};
layerId = m001;
shapes = (
{
ref = U;
},
{
pos = (295,0);
ref = macroncomb;
}
);
width = 984;
}
);
unicode = 362;
},
{
color = 10;
glyphname = Uogonek;
lastChange = "2025-11-13 14:46:18 +0000";
layers = (
{
background = {
shapes = (
{
closed = 1;
nodes = (
(570,-335,o),
(638,-317,o),
(695,-282,c),
(695,-149,l),
(652,-188,o),
(605,-208,o),
(554,-208,cs),
(519,-208,o),
(498,-198,o),
(490,-179,cs),
(485,-170,o),
(483,-161,o),
(483,-153,cs),
(483,-150,o),
(483,-148,o),
(484,-145,cs),
(486,-134,o),
(491,-124,o),
(498,-115,cs),
(507,-100,o),
(522,-81,o),
(545,-57,cs),
(575,-23,l),
(616,-20,o),
(654,-14,o),
(688,-6,cs),
(759,9,o),
(813,39,o),
(850,83,cs),
(889,130,o),
(909,191,o),
(909,266,cs),
(909,607,ls),
(909,648,o),
(926,679,o),
(959,700,c),
(619,700,l),
(635,684,o),
(643,655,o),
(643,612,cs),
(644,455,l),
(644,298,ls),
(644,255,o),
(638,223,o),
(625,202,cs),
(606,171,o),
(576,153,o),
(534,150,cs),
(476,145,o),
(431,155,o),
(400,180,cs),
(372,202,o),
(358,236,o),
(358,283,cs),
(358,612,ls),
(358,654,o),
(365,683,o),
(380,700,c),
(203,700,l),
(25,700,l),
(57,680,o),
(74,651,o),
(75,612,cs),
(74,436,l),
(75,261,ls),
(76,177,o),
(105,111,o),
(161,64,cs),
(215,17,o),
(292,-12,o),
(392,-21,c),
(373,-42,ls),
(342,-73,o),
(320,-100,o),
(305,-131,c),
(292,-152,o),
(286,-175,o),
(286,-201,cs),
(286,-210,ls),
(287,-239,o),
(298,-263,o),
(317,-282,cs),
(343,-311,o),
(389,-328,o),
(456,-334,cs),
(493,-335,ls)
);
}
);
};
layerId = m001;
shapes = (
{
ref = U;
},
{
pos = (471,0);
ref = ogonekcomb;
}
);
width = 984;
}
);
unicode = 370;
},
{
color = 10;
glyphname = Uring;
lastChange = "2025-11-13 14:46:18 +0000";
layers = (
{
background = {
shapes = (
{
closed = 1;
nodes = (
(531,-29,o),
(617,-23,o),
(688,-6,cs),
(759,9,o),
(813,39,o),
(850,83,cs),
(889,130,o),
(909,191,o),
(909,266,cs),
(909,607,ls),
(909,648,o),
(926,679,o),
(959,700,c),
(619,700,l),
(635,684,o),
(643,655,o),
(643,612,cs),
(644,455,l),
(644,298,ls),
(644,255,o),
(638,223,o),
(625,202,cs),
(606,171,o),
(576,153,o),
(534,150,cs),
(476,145,o),
(431,155,o),
(400,180,cs),
(372,202,o),
(358,236,o),
(358,283,cs),
(358,612,ls),
(358,654,o),
(365,683,o),
(380,700,c),
(203,700,l),
(25,700,l),
(57,680,o),
(74,651,o),
(75,612,cs),
(74,436,l),
(75,261,ls),
(76,177,o),
(105,111,o),
(161,64,cs),
(222,11,o),
(311,-18,o),
(428,-24,cs)
);
},
{
closed = 1;
nodes = (
(555,750,o),
(607,788,o),
(607,850,cs),
(607,909,o),
(566,949,o),
(494,949,cs),
(420,949,o),
(380,906,o),
(380,850,cs),
(380,787,o),
(427,750,o),
(494,750,cs)
);
},
{
closed = 1;
nodes = (
(469,818,o),
(455,833,o),
(455,849,cs),
(455,868,o),
(469,881,o),
(494,881,cs),
(518,881,o),
(532,868,o),
(532,849,cs),
(532,833,o),
(518,818,o),
(494,818,cs)
);
}
);
};
layerId = m001;
shapes = (
{
ref = U;
},
{
pos = (353,0);
ref = ringcomb;
}
);
width = 984;
}
);
unicode = 366;
},
{
color = 10;
glyphname = Utilde;
lastChange = "2025-11-13 14:46:18 +0000";
layers = (
{
background = {
shapes = (
{
closed = 1;
nodes = (
(531,-29,o),
(617,-23,o),
(688,-6,cs),
(759,9,o),
(813,39,o),
(850,83,cs),
(889,130,o),
(909,191,o),
(909,266,cs),
(909,607,ls),
(909,648,o),
(926,679,o),
(959,700,c),
(619,700,l),
(635,684,o),
(643,655,o),
(643,612,cs),
(644,455,l),
(644,298,ls),
(644,255,o),
(638,223,o),
(625,202,cs),
(606,171,o),
(576,153,o),
(534,150,cs),
(476,145,o),
(431,155,o),
(400,180,cs),
(372,202,o),
(358,236,o),
(358,283,cs),
(358,612,ls),
(358,654,o),
(365,683,o),
(380,700,c),
(203,700,l),
(25,700,l),
(57,680,o),
(74,651,o),
(75,612,cs),
(74,436,l),
(75,261,ls),
(76,177,o),
(105,111,o),
(161,64,cs),
(222,11,o),
(311,-18,o),
(428,-24,cs)
);
},
{
closed = 1;
nodes = (
(271,779,o),
(291,799,o),
(316,810,c),
(326,818,o),
(358,814,o),
(366,814,c),
(396,809,o),
(439,801,o),
(494,788,cs),
(549,775,o),
(590,766,o),
(617,762,cs),
(653,757,o),
(689,772,o),
(710,801,cs),
(732,832,o),
(747,882,o),
(754,949,c),
(747,937,o),
(742,928,o),
(738,923,cs),
(730,912,o),
(714,893,o),
(698,885,cs),
(682,878,o),
(664,876,o),
(643,881,cs),
(621,884,o),
(582,892,o),
(525,905,cs),
(468,917,o),
(424,925,o),
(392,928,cs),
(355,932,o),
(326,921,o),
(303,894,cs),
(272,859,o),
(256,811,o),
(256,749,c),
(271,779,o),
(291,799,o),
(316,810,c),
(326,818,o),
(358,814,o),
(366,814,c),
(396,809,o),
(439,801,o),
(494,788,cs),
(549,775,o),
(590,766,o),
(617,762,cs),
(653,757,o),
(689,772,o),
(710,801,cs),
(732,832,o),
(747,882,o),
(754,949,c),
(747,937,o),
(742,928,o),
(738,923,cs),
(730,912,o),
(714,893,o),
(698,885,cs),
(682,878,o),
(664,876,o),
(643,881,cs),
(621,884,o),
(582,892,o),
(525,905,cs),
(468,917,o),
(424,925,o),
(392,928,cs),
(355,932,o),
(326,921,o),
(303,894,cs),
(272,859,o),
(256,811,o),
(256,749,c),
(271,779,o),
(291,799,o),
(316,810,c),
(326,818,o),
(358,814,o),
(366,814,c),
(396,809,o),
(439,801,o),
(494,788,cs),
(549,775,o),
(590,766,o),
(617,762,cs),
(653,757,o),
(689,772,o),
(710,801,cs),
(732,832,o),
(747,882,o),
(754,949,c),
(747,937,o),
(742,928,o),
(738,923,cs),
(730,912,o),
(714,893,o),
(698,885,cs),
(682,878,o),
(664,876,o),
(643,881,cs),
(621,884,o),
(582,892,o),
(525,905,cs),
(468,917,o),
(424,925,o),
(392,928,cs),
(355,932,o),
(326,921,o),
(303,894,cs),
(272,859,o),
(256,811,o),
(256,749,c)
);
}
);
};
layerId = m001;
shapes = (
{
ref = U;
},
{
pos = (235,0);
ref = tildecomb;
}
);
width = 984;
}
);
unicode = 360;
},
{
color = 6;
glyphname = V;
lastChange = "2025-11-13 14:46:18 +0000";
layers = (
{
anchors = (
{
name = bottom;
pos = (565,0);
},
{
name = top;
pos = (565,700);
}
);
background = {
shapes = (
{
closed = 1;
nodes = (
(751,1,l),
(752,28,o),
(761,59,o),
(778,92,c),
(993,578,ls),
(1011,616,o),
(1023,638,o),
(1028,644,cs),
(1043,663,o),
(1069,682,o),
(1105,701,c),
(703,701,l),
(718,692,o),
(726,683,o),
(729,675,cs),
(737,658,o),
(735,635,o),
(723,604,cs),
(581,244,l),
(441,604,ls),
(429,635,o),
(427,659,o),
(435,676,cs),
(438,684,o),
(447,692,o),
(461,701,c),
(25,701,l),
(72,679,o),
(105,648,o),
(124,607,cs),
(181,476,o),
(258,301,o),
(357,80,cs),
(370,54,o),
(377,28,o),
(379,1,c)
);
}
);
};
layerId = m001;
shapes = (
{
closed = 1;
nodes = (
(751,1,l),
(752,28,o),
(763,58,o),
(778,92,cs),
(993,577,ls),
(1024,647,o),
(1038,664,o),
(1105,700,c),
(703,700,l),
(742,677,o),
(740,645,o),
(723,603,cs),
(581,244,l),
(441,603,ls),
(424,647,o),
(421,674,o),
(461,700,c),
(25,700,l),
(72,678,o),
(106,647,o),
(124,606,cs),
(357,80,ls),
(369,53,o),
(377,28,o),
(379,1,c)
);
}
);
width = 1130;
}
);
unicode = 86;
},
{
color = 6;
glyphname = W;
lastChange = "2025-11-13 14:46:18 +0000";
layers = (
{
anchors = (
{
name = bottom;
pos = (836,0);
},
{
name = top;
pos = (836,700);
}
);
background = {
shapes = (
{
closed = 1;
nodes = (
(714,-1,l),
(714,31,o),
(718,60,o),
(727,87,cs),
(836,411,l),
(943,95,ls),
(953,62,o),
(958,30,o),
(959,-1,c),
(1316,-1,l),
(1316,11,o),
(1318,24,o),
(1323,38,cs),
(1331,64,o),
(1341,87,o),
(1343,91,cs),
(1538,582,ls),
(1552,614,o),
(1562,634,o),
(1568,642,cs),
(1585,663,o),
(1611,683,o),
(1647,700,c),
(1232,701,l),
(1263,689,o),
(1272,647,o),
(1259,619,c),
(1136,260,l),
(977,700,l),
(717,700,l),
(559,259,l),
(435,623,l),
(423,651,o),
(433,689,o),
(462,701,c),
(25,700,l),
(74,677,o),
(106,647,o),
(122,611,cs),
(230,340,l),
(337,69,ls),
(347,43,o),
(353,20,o),
(356,-1,c)
);
}
);
};
layerId = m001;
shapes = (
{
closed = 1;
nodes = (
(714,0,l),
(714,32,o),
(716,55,o),
(727,87,cs),
(836,411,l),
(943,95,ls),
(954,61,o),
(959,31,o),
(959,0,c),
(1316,0,l),
(1316,29,o),
(1336,78,o),
(1343,91,cs),
(1538,582,ls),
(1566,645,o),
(1579,668,o),
(1647,700,c),
(1232,700,l),
(1263,689,o),
(1269,648,o),
(1259,619,cs),
(1136,260,l),
(977,700,l),
(717,700,l),
(559,259,l),
(435,623,ls),
(424,654,o),
(433,687,o),
(462,700,c),
(25,700,l),
(74,677,o),
(107,648,o),
(122,611,cs),
(337,69,ls),
(347,43,o),
(353,21,o),
(356,0,c)
);
}
);
width = 1672;
}
);
unicode = 87;
},
{
color = 10;
glyphname = Wcircumflex;
lastChange = "2025-11-13 14:46:18 +0000";
layers = (
{
background = {
shapes = (
{
closed = 1;
nodes = (
(714,-1,l),
(714,31,o),
(718,60,o),
(727,87,cs),
(836,411,l),
(943,95,ls),
(953,62,o),
(958,30,o),
(959,-1,c),
(1316,-1,l),
(1316,11,o),
(1318,24,o),
(1323,38,cs),
(1331,64,o),
(1341,87,o),
(1343,91,cs),
(1538,582,ls),
(1552,614,o),
(1562,634,o),
(1568,642,cs),
(1585,663,o),
(1611,683,o),
(1647,700,c),
(1232,701,l),
(1263,689,o),
(1272,647,o),
(1259,619,c),
(1136,260,l),
(977,700,l),
(717,700,l),
(559,259,l),
(435,623,l),
(423,651,o),
(433,689,o),
(462,701,c),
(25,700,l),
(74,677,o),
(106,647,o),
(122,611,cs),
(230,340,l),
(337,69,ls),
(347,43,o),
(353,20,o),
(356,-1,c)
);
},
{
closed = 1;
nodes = (
(762,751,l),
(808,814,l),
(846,867,l),
(889,808,l),
(930,751,l),
(1032,751,l),
(888,948,l),
(804,948,l),
(732,846,l),
(664,751,l),
(762,751,l),
(808,814,l),
(846,867,l),
(889,808,l),
(930,751,l),
(1032,751,l),
(888,948,l),
(804,948,l),
(732,846,l),
(664,751,l),
(762,751,l),
(808,814,l),
(846,867,l),
(889,808,l),
(930,751,l),
(1032,751,l),
(888,948,l),
(804,948,l),
(732,846,l),
(664,751,l)
);
}
);
};
layerId = m001;
shapes = (
{
ref = W;
},
{
pos = (627,0);
ref = circumflexcomb;
}
);
width = 1672;
}
);
unicode = 372;
},
{
color = 6;
glyphname = X;
lastChange = "2025-11-13 14:46:18 +0000";
layers = (
{
anchors = (
{
name = bottom;
pos = (543,0);
},
{
name = top;
pos = (543,700);
}
);
background = {
shapes = (
{
closed = 1;
nodes = (
(1041,7,o),
(1021,21,o),
(1000,39,cs),
(959,74,o),
(950,85,o),
(906,136,cs),
(699,376,l),
(804,498,l),
(909,620,l),
(950,662,o),
(991,689,o),
(1033,700,c),
(660,701,l),
(688,685,o),
(690,641,o),
(669,617,cs),
(579,516,l),
(495,614,ls),
(475,638,o),
(474,682,o),
(501,701,c),
(25,700,l),
(68,679,o),
(103,650,o),
(132,613,c),
(366,340,l),
(143,82,ls),
(115,49,o),
(77,22,o),
(28,-1,c),
(396,-1,l),
(367,18,o),
(367,62,o),
(390,85,cs),
(413,112,o),
(446,149,o),
(491,196,c),
(573,101,l),
(602,74,o),
(611,26,o),
(580,-1,c),
(1061,-2,l)
);
}
);
};
layerId = m001;
shapes = (
{
closed = 1;
nodes = (
(1000,27,o),
(952,83,o),
(906,136,cs),
(699,376,l),
(909,620,ls),
(947,664,o),
(991,689,o),
(1033,700,c),
(660,700,l),
(691,683,o),
(687,639,o),
(669,617,cs),
(579,516,l),
(495,614,ls),
(477,636,o),
(471,679,o),
(501,700,c),
(25,700,l),
(68,679,o),
(101,649,o),
(132,613,cs),
(366,340,l),
(143,82,ls),
(115,49,o),
(77,23,o),
(28,0,c),
(396,0,l),
(367,19,o),
(367,60,o),
(390,85,cs),
(491,196,l),
(573,101,ls),
(599,71,o),
(610,28,o),
(580,0,c),
(1061,0,l)
);
}
);
width = 1086;
}
);
unicode = 88;
},
{
color = 6;
glyphname = Y;
lastChange = "2025-11-13 14:46:18 +0000";
layers = (
{
anchors = (
{
name = bottom;
pos = (548,0);
},
{
name = top;
pos = (548,700);
},
{
name = topleft;
pos = (20,700);
}
);
background = {
shapes = (
{
closed = 1;
nodes = (
(742,1,l),
(703,27,o),
(683,98,o),
(683,215,cs),
(683,237,l),
(985,629,l),
(1001,654,o),
(1042,690,o),
(1070,701,c),
(691,701,l),
(699,693,o),
(703,684,o),
(703,673,cs),
(703,662,o),
(695,647,o),
(680,629,cs),
(547,457,l),
(415,629,l),
(400,646,o),
(393,661,o),
(393,673,cs),
(393,684,o),
(397,694,o),
(405,701,c),
(25,701,l),
(50,693,o),
(79,669,o),
(110,629,cs),
(411,237,l),
(411,215,ls),
(411,102,o),
(399,30,o),
(352,1,c)
);
}
);
};
layerId = m001;
shapes = (
{
closed = 1;
nodes = (
(742,0,l),
(703,26,o),
(683,98,o),
(683,215,cs),
(683,237,l),
(985,628,l),
(1001,653,o),
(1042,689,o),
(1070,700,c),
(691,700,l),
(713,678,o),
(701,654,o),
(680,628,cs),
(547,457,l),
(415,628,ls),
(392,658,o),
(379,678,o),
(405,700,c),
(25,700,l),
(50,692,o),
(79,668,o),
(110,628,cs),
(411,237,l),
(411,215,ls),
(411,102,o),
(399,29,o),
(352,0,c)
);
}
);
width = 1095;
}
);
unicode = 89;
},
{
color = 10;
glyphname = Yacute;
lastChange = "2025-11-13 14:46:18 +0000";
layers = (
{
background = {
shapes = (
{
closed = 1;
nodes = (
(742,1,l),
(703,27,o),
(683,98,o),
(683,215,cs),
(683,237,l),
(985,629,l),
(1001,654,o),
(1042,690,o),
(1070,701,c),
(691,701,l),
(699,693,o),
(703,684,o),
(703,673,cs),
(703,662,o),
(695,647,o),
(680,629,cs),
(547,457,l),
(415,629,l),
(400,646,o),
(393,661,o),
(393,673,cs),
(393,684,o),
(397,694,o),
(405,701,c),
(25,701,l),
(50,693,o),
(79,669,o),
(110,629,cs),
(411,237,l),
(411,215,ls),
(411,102,o),
(399,30,o),
(352,1,c)
);
},
{
closed = 1;
nodes = (
(615,750,l),
(646,775,o),
(689,812,o),
(744,860,cs),
(846,948,l),
(540,948,l),
(537,937,o),
(529,915,o),
(525,904,c),
(437,750,l),
(615,750,l),
(646,775,o),
(689,812,o),
(744,860,cs),
(846,948,l),
(540,948,l),
(537,937,o),
(529,915,o),
(525,904,c),
(437,750,l),
(615,750,l),
(646,775,o),
(689,812,o),
(744,860,cs),
(846,948,l),
(540,948,l),
(537,937,o),
(529,915,o),
(525,904,c),
(437,750,l)
);
}
);
};
layerId = m001;
shapes = (
{
ref = Y;
},
{
pos = (310,0);
ref = acutecomb;
}
);
width = 1095;
}
);
unicode = 221;
},
{
color = 10;
glyphname = Ycircumflex;
lastChange = "2025-11-13 14:46:18 +0000";
layers = (
{
background = {
shapes = (
{
closed = 1;
nodes = (
(742,1,l),
(703,27,o),
(683,98,o),
(683,215,cs),
(683,237,l),
(985,629,l),
(1001,654,o),
(1042,690,o),
(1070,701,c),
(691,701,l),
(699,693,o),
(703,684,o),
(703,673,cs),
(703,662,o),
(695,647,o),
(680,629,cs),
(547,457,l),
(415,629,l),
(400,646,o),
(393,661,o),
(393,673,cs),
(393,684,o),
(397,694,o),
(405,701,c),
(25,701,l),
(50,693,o),
(79,669,o),
(110,629,cs),
(411,237,l),
(411,215,ls),
(411,102,o),
(399,30,o),
(352,1,c)
);
},
{
closed = 1;
nodes = (
(462,751,l),
(508,814,l),
(546,867,l),
(589,808,l),
(630,751,l),
(732,751,l),
(588,948,l),
(504,948,l),
(432,846,l),
(364,751,l),
(462,751,l),
(508,814,l),
(546,867,l),
(589,808,l),
(630,751,l),
(732,751,l),
(588,948,l),
(504,948,l),
(432,846,l),
(364,751,l),
(462,751,l),
(508,814,l),
(546,867,l),
(589,808,l),
(630,751,l),
(732,751,l),
(588,948,l),
(504,948,l),
(432,846,l),
(364,751,l)
);
}
);
};
layerId = m001;
shapes = (
{
ref = Y;
},
{
pos = (339,0);
ref = circumflexcomb;
}
);
width = 1095;
}
);
unicode = 374;
},
{
color = 10;
glyphname = Ydieresis;
lastChange = "2025-11-13 14:46:18 +0000";
layers = (
{
background = {
shapes = (
{
closed = 1;
nodes = (
(742,1,l),
(703,27,o),
(683,98,o),
(683,215,cs),
(683,237,l),
(985,629,l),
(1001,654,o),
(1042,690,o),
(1070,701,c),
(691,701,l),
(699,693,o),
(703,684,o),
(703,673,cs),
(703,662,o),
(695,647,o),
(680,629,cs),
(547,457,l),
(415,629,l),
(400,646,o),
(393,661,o),
(393,673,cs),
(393,684,o),
(397,694,o),
(405,701,c),
(25,701,l),
(50,693,o),
(79,669,o),
(110,629,cs),
(411,237,l),
(411,215,ls),
(411,102,o),
(399,30,o),
(352,1,c)
);
},
{
closed = 1;
nodes = (
(478,751,o),
(529,790,o),
(529,851,cs),
(529,910,o),
(487,951,o),
(415,951,cs),
(342,951,o),
(301,909,o),
(301,851,cs),
(301,788,o),
(348,751,o),
(415,751,cs)
);
},
{
closed = 1;
nodes = (
(743,751,o),
(794,790,o),
(794,851,cs),
(794,910,o),
(753,951,o),
(680,951,cs),
(607,951,o),
(566,909,o),
(566,851,cs),
(566,788,o),
(613,751,o),
(680,751,cs)
);
}
);
};
layerId = m001;
shapes = (
{
ref = Y;
},
{
pos = (276,0);
ref = dieresiscomb;
}
);
width = 1095;
}
);
unicode = 376;
},
{
color = 6;
glyphname = Z;
lastChange = "2025-11-13 14:46:18 +0000";
layers = (
{
anchors = (
{
name = bottom;
pos = (425,0);
},
{
name = center;
pos = (425,350);
},
{
name = top;
pos = (425,700);
}
);
background = {
shapes = (
{
closed = 1;
nodes = (
(824,0,l),
(824,245,l),
(795,200,o),
(747,169,o),
(696,168,cs),
(407,168,l),
(587,346,l),
(798,554,l),
(798,700,l),
(48,700,l),
(48,444,l),
(77,489,o),
(125,519,o),
(176,520,cs),
(296,520,l),
(415,521,l),
(25,134,l),
(25,0,l)
);
}
);
};
layerId = m001;
shapes = (
{
closed = 1;
nodes = (
(824,0,l),
(824,245,l),
(795,200,o),
(765,168,o),
(696,168,cs),
(407,168,l),
(798,554,l),
(798,700,l),
(48,700,l),
(48,444,l),
(77,489,o),
(125,520,o),
(176,520,cs),
(415,520,l),
(25,134,l),
(25,0,l)
);
}
);
width = 849;
}
);
unicode = 90;
},
{
color = 10;
glyphname = Zacute;
lastChange = "2025-11-13 14:46:18 +0000";
layers = (
{
background = {
shapes = (
{
closed = 1;
nodes = (
(824,0,l),
(824,245,l),
(795,200,o),
(747,169,o),
(696,168,cs),
(407,168,l),
(587,346,l),
(798,554,l),
(798,700,l),
(48,700,l),
(48,444,l),
(77,489,o),
(125,519,o),
(176,520,cs),
(296,520,l),
(415,521,l),
(25,134,l),
(25,0,l)
);
},
{
closed = 1;
nodes = (
(470,750,l),
(599,860,l),
(701,948,l),
(395,948,l),
(388,926,l),
(379,904,l),
(292,750,l),
(470,750,l),
(599,860,l),
(701,948,l),
(395,948,l),
(388,926,l),
(379,904,l),
(292,750,l),
(470,750,l),
(599,860,l),
(701,948,l),
(395,948,l),
(388,926,l),
(379,904,l),
(292,750,l)
);
}
);
};
layerId = m001;
shapes = (
{
ref = Z;
},
{
pos = (187,0);
ref = acutecomb;
}
);
width = 849;
}
);
unicode = 377;
},
{
color = 10;
glyphname = Zcaron;
lastChange = "2025-11-13 14:46:18 +0000";
layers = (
{
background = {
shapes = (
{
closed = 1;
nodes = (
(824,0,l),
(824,245,l),
(795,200,o),
(747,169,o),
(696,168,cs),
(407,168,l),
(587,346,l),
(798,554,l),
(798,700,l),
(48,700,l),
(48,444,l),
(77,489,o),
(125,519,o),
(176,520,cs),
(296,520,l),
(415,521,l),
(25,134,l),
(25,0,l)
);
},
{
closed = 1;
nodes = (
(472,750,l),
(615,947,l),
(514,947,l),
(430,830,l),
(391,884,l),
(345,947,l),
(248,947,l),
(388,750,l),
(472,750,l),
(615,947,l),
(514,947,l),
(430,830,l),
(391,884,l),
(345,947,l),
(248,947,l),
(388,750,l),
(472,750,l),
(615,947,l),
(514,947,l),
(430,830,l),
(391,884,l),
(345,947,l),
(248,947,l),
(388,750,l)
);
}
);
};
layerId = m001;
shapes = (
{
ref = Z;
},
{
pos = (216,0);
ref = caroncomb;
}
);
width = 849;
}
);
unicode = 381;
},
{
color = 10;
glyphname = Zdotaccent;
lastChange = "2025-11-13 14:46:18 +0000";
layers = (
{
background = {
shapes = (
{
closed = 1;
nodes = (
(824,0,l),
(824,245,l),
(795,200,o),
(747,169,o),
(696,168,cs),
(407,168,l),
(587,346,l),
(798,554,l),
(798,700,l),
(48,700,l),
(48,444,l),
(77,489,o),
(125,519,o),
(176,520,cs),
(296,520,l),
(415,521,l),
(25,134,l),
(25,0,l)
);
},
{
closed = 1;
nodes = (
(494,750,o),
(546,789,o),
(546,849,cs),
(546,908,o),
(505,948,o),
(433,948,cs),
(361,948,o),
(320,907,o),
(320,849,cs),
(320,788,o),
(366,750,o),
(433,750,cs)
);
}
);
};
layerId = m001;
shapes = (
{
ref = Z;
},
{
pos = (287,0);
ref = dotaccentcomb;
}
);
width = 849;
}
);
unicode = 379;
},
{
color = 10;
glyphname = a;
lastChange = "2025-11-13 14:46:18 +0000";
layers = (
{
background = {
shapes = (
{
closed = 1;
nodes = (
(384,0,l),
(371,9,o),
(365,26,o),
(365,50,cs),
(365,68,o),
(372,91,o),
(385,118,cs),
(386,120,l),
(730,151,l),
(748,118,ls),
(762,93,o),
(769,70,o),
(769,50,cs),
(769,26,o),
(763,9,o),
(750,0,c),
(1109,0,l),
(1066,35,o),
(1022,98,o),
(975,187,cs),
(700,700,l),
(381,700,l),
(394,689,o),
(400,673,o),
(400,652,cs),
(400,643,o),
(393,624,o),
(380,597,cs),
(159,187,ls),
(112,98,o),
(68,35,o),
(25,0,c)
);
},
{
closed = 1;
nodes = (
(566,455,l),
(664,274,l),
(460,255,l)
);
}
);
};
layerId = m001;
shapes = (
{
ref = A;
}
);
width = 1134;
}
);
unicode = 97;
},
{
color = 10;
glyphname = aacute;
lastChange = "2025-11-13 14:46:18 +0000";
layers = (
{
background = {
shapes = (
{
closed = 1;
nodes = (
(384,0,l),
(371,9,o),
(365,26,o),
(365,50,cs),
(365,68,o),
(372,91,o),
(385,118,cs),
(386,120,l),
(730,151,l),
(748,118,ls),
(762,93,o),
(769,70,o),
(769,50,cs),
(769,26,o),
(763,9,o),
(750,0,c),
(1109,0,l),
(1066,35,o),
(1022,98,o),
(975,187,cs),
(700,700,l),
(381,700,l),
(394,689,o),
(400,673,o),
(400,652,cs),
(400,643,o),
(393,624,o),
(380,597,cs),
(159,187,ls),
(112,98,o),
(68,35,o),
(25,0,c)
);
},
{
closed = 1;
nodes = (
(566,455,l),
(664,274,l),
(460,255,l)
);
},
{
closed = 1;
nodes = (
(628,750,l),
(659,775,o),
(702,812,o),
(757,860,cs),
(859,948,l),
(553,948,l),
(550,937,o),
(542,915,o),
(538,904,c),
(450,750,l),
(628,750,l),
(659,775,o),
(702,812,o),
(757,860,cs),
(859,948,l),
(553,948,l),
(550,937,o),
(542,915,o),
(538,904,c),
(450,750,l),
(628,750,l),
(659,775,o),
(702,812,o),
(757,860,cs),
(859,948,l),
(553,948,l),
(550,937,o),
(542,915,o),
(538,904,c),
(450,750,l)
);
}
);
};
layerId = m001;
shapes = (
{
ref = a;
},
{
pos = (329,0);
ref = acutecomb;
}
);
width = 1134;
}
);
unicode = 225;
},
{
color = 10;
glyphname = abreve;
lastChange = "2025-11-13 14:46:18 +0000";
layers = (
{
background = {
shapes = (
{
closed = 1;
nodes = (
(384,0,l),
(371,9,o),
(365,26,o),
(365,50,cs),
(365,68,o),
(372,91,o),
(385,118,cs),
(386,120,l),
(730,151,l),
(748,118,ls),
(762,93,o),
(769,70,o),
(769,50,cs),
(769,26,o),
(763,9,o),
(750,0,c),
(1109,0,l),
(1066,35,o),
(1022,98,o),
(975,187,cs),
(700,700,l),
(381,700,l),
(394,689,o),
(400,673,o),
(400,652,cs),
(400,643,o),
(393,624,o),
(380,597,cs),
(159,187,ls),
(112,98,o),
(68,35,o),
(25,0,c)
);
},
{
closed = 1;
nodes = (
(566,455,l),
(664,274,l),
(460,255,l)
);
},
{
closed = 1;
nodes = (
(613,751,o),
(668,769,o),
(707,806,cs),
(746,843,o),
(766,890,o),
(766,948,cs),
(766,949,l),
(617,949,l),
(618,912,o),
(589,886,o),
(541,886,cs),
(490,886,o),
(466,913,o),
(465,949,c),
(316,949,l),
(317,949,o),
(317,949,o),
(316,948,c),
(317,891,o),
(336,843,o),
(375,807,cs),
(394,790,o),
(417,776,o),
(445,766,cs),
(472,756,o),
(504,751,o),
(541,751,cs)
);
}
);
};
layerId = m001;
shapes = (
{
ref = a;
},
{
pos = (317,0);
ref = brevecomb;
}
);
width = 1134;
}
);
unicode = 259;
},
{
color = 10;
glyphname = acircumflex;
lastChange = "2025-11-13 14:46:18 +0000";
layers = (
{
background = {
shapes = (
{
closed = 1;
nodes = (
(384,0,l),
(371,9,o),
(365,26,o),
(365,50,cs),
(365,68,o),
(372,91,o),
(385,118,cs),
(386,120,l),
(730,151,l),
(748,118,ls),
(762,93,o),
(769,70,o),
(769,50,cs),
(769,26,o),
(763,9,o),
(750,0,c),
(1109,0,l),
(1066,35,o),
(1022,98,o),
(975,187,cs),
(700,700,l),
(381,700,l),
(394,689,o),
(400,673,o),
(400,652,cs),
(400,643,o),
(393,624,o),
(380,597,cs),
(159,187,ls),
(112,98,o),
(68,35,o),
(25,0,c)
);
},
{
closed = 1;
nodes = (
(566,455,l),
(664,274,l),
(460,255,l)
);
},
{
closed = 1;
nodes = (
(451,751,l),
(497,814,l),
(535,867,l),
(578,808,l),
(619,751,l),
(721,751,l),
(577,948,l),
(493,948,l),
(421,846,l),
(353,751,l),
(451,751,l),
(497,814,l),
(535,867,l),
(578,808,l),
(619,751,l),
(721,751,l),
(577,948,l),
(493,948,l),
(421,846,l),
(353,751,l),
(451,751,l),
(497,814,l),
(535,867,l),
(578,808,l),
(619,751,l),
(721,751,l),
(577,948,l),
(493,948,l),
(421,846,l),
(353,751,l)
);
}
);
};
layerId = m001;
shapes = (
{
ref = a;
},
{
pos = (358,0);
ref = circumflexcomb;
}
);
width = 1134;
}
);
unicode = 226;
},
{
color = 10;
glyphname = adieresis;
lastChange = "2025-11-13 14:46:18 +0000";
layers = (
{
background = {
shapes = (
{
closed = 1;
nodes = (
(384,0,l),
(371,9,o),
(365,26,o),
(365,50,cs),
(365,68,o),
(372,91,o),
(385,118,cs),
(386,120,l),
(730,151,l),
(748,118,ls),
(762,93,o),
(769,70,o),
(769,50,cs),
(769,26,o),
(763,9,o),
(750,0,c),
(1109,0,l),
(1066,35,o),
(1022,98,o),
(975,187,cs),
(700,700,l),
(381,700,l),
(394,689,o),
(400,673,o),
(400,652,cs),
(400,643,o),
(393,624,o),
(380,597,cs),
(159,187,ls),
(112,98,o),
(68,35,o),
(25,0,c)
);
},
{
closed = 1;
nodes = (
(566,455,l),
(664,274,l),
(460,255,l)
);
},
{
closed = 1;
nodes = (
(479,751,o),
(530,790,o),
(530,851,cs),
(530,910,o),
(488,951,o),
(416,951,cs),
(343,951,o),
(302,909,o),
(302,851,cs),
(302,788,o),
(349,751,o),
(416,751,cs)
);
},
{
closed = 1;
nodes = (
(744,751,o),
(795,790,o),
(795,851,cs),
(795,910,o),
(754,951,o),
(681,951,cs),
(608,951,o),
(567,909,o),
(567,851,cs),
(567,788,o),
(614,751,o),
(681,751,cs)
);
}
);
};
layerId = m001;
shapes = (
{
ref = a;
},
{
pos = (295,0);
ref = dieresiscomb;
}
);
width = 1134;
}
);
unicode = 228;
},
{
color = 10;
glyphname = agrave;
lastChange = "2025-11-13 14:46:18 +0000";
layers = (
{
background = {
shapes = (
{
closed = 1;
nodes = (
(384,0,l),
(371,9,o),
(365,26,o),
(365,50,cs),
(365,68,o),
(372,91,o),
(385,118,cs),
(386,120,l),
(730,151,l),
(748,118,ls),
(762,93,o),
(769,70,o),
(769,50,cs),
(769,26,o),
(763,9,o),
(750,0,c),
(1109,0,l),
(1066,35,o),
(1022,98,o),
(975,187,cs),
(700,700,l),
(381,700,l),
(394,689,o),
(400,673,o),
(400,652,cs),
(400,643,o),
(393,624,o),
(380,597,cs),
(159,187,ls),
(112,98,o),
(68,35,o),
(25,0,c)
);
},
{
closed = 1;
nodes = (
(566,455,l),
(664,274,l),
(460,255,l)
);
},
{
closed = 1;
nodes = (
(680,750,l),
(592,904,l),
(588,915,o),
(580,937,o),
(577,948,c),
(271,948,l),
(373,860,ls),
(428,812,o),
(471,775,o),
(502,750,c),
(680,750,l),
(592,904,l),
(588,915,o),
(580,937,o),
(577,948,c),
(271,948,l),
(373,860,ls),
(428,812,o),
(471,775,o),
(502,750,c),
(680,750,l),
(592,904,l),
(588,915,o),
(580,937,o),
(577,948,c),
(271,948,l),
(373,860,ls),
(428,812,o),
(471,775,o),
(502,750,c)
);
}
);
};
layerId = m001;
shapes = (
{
ref = a;
},
{
pos = (255,0);
ref = gravecomb;
}
);
width = 1134;
}
);
unicode = 224;
},
{
color = 10;
glyphname = amacron;
lastChange = "2025-11-13 14:46:18 +0000";
layers = (
{
background = {
shapes = (
{
closed = 1;
nodes = (
(384,0,l),
(371,9,o),
(365,26,o),
(365,50,cs),
(365,68,o),
(372,91,o),
(385,118,cs),
(386,120,l),
(730,151,l),
(748,118,ls),
(762,93,o),
(769,70,o),
(769,50,cs),
(769,26,o),
(763,9,o),
(750,0,c),
(1109,0,l),
(1066,35,o),
(1022,98,o),
(975,187,cs),
(700,700,l),
(381,700,l),
(394,689,o),
(400,673,o),
(400,652,cs),
(400,643,o),
(393,624,o),
(380,597,cs),
(159,187,ls),
(112,98,o),
(68,35,o),
(25,0,c)
);
},
{
closed = 1;
nodes = (
(566,455,l),
(664,274,l),
(460,255,l)
);
},
{
closed = 1;
nodes = (
(807,751,l),
(807,931,l),
(272,931,l),
(272,751,l)
);
}
);
};
layerId = m001;
shapes = (
{
ref = a;
},
{
pos = (370,0);
ref = macroncomb;
}
);
width = 1134;
}
);
unicode = 257;
},
{
color = 10;
glyphname = aogonek;
lastChange = "2025-11-13 14:46:18 +0000";
layers = (
{
background = {
shapes = (
{
closed = 1;
nodes = (
(895,-326,o),
(974,-309,o),
(1040,-268,c),
(1040,-137,l),
(997,-176,o),
(951,-196,o),
(900,-196,cs),
(866,-196,o),
(845,-186,o),
(837,-167,cs),
(825,-143,o),
(830,-121,o),
(845,-104,c),
(854,-89,o),
(869,-70,o),
(892,-46,cs),
(909,-28,o),
(922,-13,o),
(931,0,c),
(1109,0,l),
(1069,33,o),
(1024,95,o),
(975,187,cs),
(700,700,l),
(381,700,l),
(394,689,o),
(400,673,o),
(400,652,cs),
(400,640,o),
(393,622,o),
(380,597,cs),
(159,187,ls),
(110,96,o),
(65,33,o),
(25,0,c),
(384,0,l),
(371,9,o),
(365,26,o),
(365,50,cs),
(365,69,o),
(372,91,o),
(385,118,cs),
(386,120,l),
(730,151,l),
(748,118,ls),
(762,93,o),
(769,71,o),
(770,52,cs),
(770,33,o),
(763,15,o),
(750,0,cs),
(722,-31,ls),
(691,-63,o),
(669,-88,o),
(654,-120,c),
(626,-165,o),
(629,-231,o),
(666,-268,c),
(691,-297,o),
(737,-314,o),
(804,-320,cs)
);
},
{
closed = 1;
nodes = (
(566,455,l),
(664,274,l),
(460,255,l)
);
}
);
};
layerId = m001;
shapes = (
{
ref = a;
},
{
pos = (785,10);
ref = ogonekcomb;
}
);
width = 1134;
}
);
unicode = 261;
},
{
color = 10;
glyphname = aring;
lastChange = "2025-11-13 14:46:18 +0000";
layers = (
{
background = {
shapes = (
{
closed = 1;
nodes = (
(384,0,l),
(371,9,o),
(365,26,o),
(365,50,cs),
(365,68,o),
(372,91,o),
(385,118,cs),
(386,120,l),
(730,151,l),
(748,118,ls),
(762,93,o),
(769,70,o),
(769,50,cs),
(769,26,o),
(763,9,o),
(750,0,c),
(1109,0,l),
(1066,35,o),
(1022,98,o),
(975,187,cs),
(700,700,l),
(381,700,l),
(394,689,o),
(400,673,o),
(400,652,cs),
(400,643,o),
(393,624,o),
(380,597,cs),
(159,187,ls),
(112,98,o),
(68,35,o),
(25,0,c)
);
},
{
closed = 1;
nodes = (
(566,455,l),
(664,274,l),
(460,255,l)
);
},
{
closed = 1;
nodes = (
(605,750,o),
(657,790,o),
(657,850,cs),
(657,909,o),
(616,950,o),
(544,950,cs),
(475,950,o),
(430,910,o),
(430,850,cs),
(430,789,o),
(477,750,o),
(544,750,cs)
);
},
{
closed = 1;
nodes = (
(519,818,o),
(505,833,o),
(505,849,cs),
(505,868,o),
(519,881,o),
(544,881,cs),
(568,881,o),
(582,869,o),
(582,849,cs),
(582,833,o),
(568,818,o),
(544,818,cs)
);
}
);
};
layerId = m001;
shapes = (
{
ref = a;
},
{
pos = (428,0);
ref = ringcomb;
}
);
width = 1134;
}
);
unicode = 229;
},
{
color = 10;
glyphname = atilde;
lastChange = "2025-11-13 14:46:18 +0000";
layers = (
{
background = {
shapes = (
{
closed = 1;
nodes = (
(384,0,l),
(371,9,o),
(365,26,o),
(365,50,cs),
(365,68,o),
(372,91,o),
(385,118,cs),
(386,120,l),
(730,151,l),
(748,118,ls),
(762,93,o),
(769,70,o),
(769,50,cs),
(769,26,o),
(763,9,o),
(750,0,c),
(1109,0,l),
(1066,35,o),
(1022,98,o),
(975,187,cs),
(700,700,l),
(381,700,l),
(394,689,o),
(400,673,o),
(400,652,cs),
(400,643,o),
(393,624,o),
(380,597,cs),
(159,187,ls),
(112,98,o),
(68,35,o),
(25,0,c)
);
},
{
closed = 1;
nodes = (
(566,455,l),
(664,274,l),
(460,255,l)
);
},
{
closed = 1;
nodes = (
(319,784,o),
(339,804,o),
(364,815,c),
(375,824,o),
(400,819,o),
(414,819,c),
(444,815,o),
(487,806,o),
(542,793,cs),
(597,780,o),
(638,771,o),
(665,767,cs),
(701,763,o),
(737,778,o),
(758,806,cs),
(780,837,o),
(795,887,o),
(802,954,c),
(786,929,ls),
(778,918,o),
(762,899,o),
(746,890,cs),
(730,883,o),
(712,881,o),
(691,886,cs),
(669,889,o),
(630,897,o),
(573,910,cs),
(516,923,o),
(472,930,o),
(440,933,cs),
(403,938,o),
(374,927,o),
(351,900,cs),
(320,865,o),
(304,816,o),
(304,754,c),
(319,784,o),
(339,804,o),
(364,815,c),
(375,824,o),
(400,819,o),
(414,819,c),
(444,815,o),
(487,806,o),
(542,793,cs),
(597,780,o),
(638,771,o),
(665,767,cs),
(701,763,o),
(737,778,o),
(758,806,cs),
(780,837,o),
(795,887,o),
(802,954,c),
(786,929,ls),
(778,918,o),
(762,899,o),
(746,890,cs),
(730,883,o),
(712,881,o),
(691,886,cs),
(669,889,o),
(630,897,o),
(573,910,cs),
(516,923,o),
(472,930,o),
(440,933,cs),
(403,938,o),
(374,927,o),
(351,900,cs),
(320,865,o),
(304,816,o),
(304,754,c),
(319,784,o),
(339,804,o),
(364,815,c),
(375,824,o),
(400,819,o),
(414,819,c),
(444,815,o),
(487,806,o),
(542,793,cs),
(597,780,o),
(638,771,o),
(665,767,cs),
(701,763,o),
(737,778,o),
(758,806,cs),
(780,837,o),
(795,887,o),
(802,954,c),
(786,929,ls),
(778,918,o),
(762,899,o),
(746,890,cs),
(730,883,o),
(712,881,o),
(691,886,cs),
(669,889,o),
(630,897,o),
(573,910,cs),
(516,923,o),
(472,930,o),
(440,933,cs),
(403,938,o),
(374,927,o),
(351,900,cs),
(320,865,o),
(304,816,o),
(304,754,c)
);
}
);
};
layerId = m001;
shapes = (
{
ref = a;
},
{
pos = (310,0);
ref = tildecomb;
}
);
width = 1134;
}
);
unicode = 227;
},
{
color = 10;
glyphname = ae;
lastChange = "2025-11-13 14:46:18 +0000";
layers = (
{
background = {
shapes = (
{
closed = 1;
nodes = (
(384,2,l),
(376,11,o),
(378,28,o),
(390,52,cs),
(399,70,o),
(417,93,o),
(444,120,cs),
(446,122,l),
(805,153,l),
(806,138,l),
(806,92,l),
(804,77,o),
(800,64,o),
(794,52,cs),
(782,28,o),
(767,11,o),
(750,2,c),
(1545,2,l),
(1545,231,l),
(1534,206,o),
(1513,188,o),
(1482,175,cs),
(1471,171,o),
(1447,169,o),
(1412,169,cs),
(1251,169,l),
(1089,168,l),
(1089,283,l),
(1453,283,l),
(1453,432,l),
(1089,432,l),
(1089,533,l),
(1438,533,ls),
(1479,533,o),
(1511,519,o),
(1533,491,c),
(1533,596,l),
(1532,701,l),
(1047,701,l),
(1047,702,l),
(728,702,l),
(735,691,o),
(734,675,o),
(723,654,cs),
(719,645,o),
(703,626,o),
(676,599,cs),
(252,189,ls),
(161,100,o),
(85,37,o),
(25,2,c)
);
},
{
closed = 1;
nodes = (
(792,457,l),
(800,276,l),
(587,257,l)
);
}
);
};
layerId = m001;
shapes = (
{
ref = AE;
}
);
width = 1570;
}
);
unicode = 230;
},
{
color = 10;
glyphname = aeacute;
lastChange = "2025-11-13 14:46:18 +0000";
layers = (
{
background = {
shapes = (
{
closed = 1;
nodes = (
(384,2,l),
(376,11,o),
(378,28,o),
(390,52,cs),
(399,70,o),
(417,93,o),
(444,120,cs),
(446,122,l),
(805,153,l),
(806,138,l),
(806,92,l),
(804,77,o),
(800,64,o),
(794,52,cs),
(782,28,o),
(767,11,o),
(750,2,c),
(1545,2,l),
(1545,231,l),
(1534,206,o),
(1513,188,o),
(1482,175,cs),
(1471,171,o),
(1447,169,o),
(1412,169,cs),
(1251,169,l),
(1089,168,l),
(1089,283,l),
(1453,283,l),
(1453,432,l),
(1089,432,l),
(1089,533,l),
(1438,533,ls),
(1479,533,o),
(1511,519,o),
(1533,491,c),
(1533,596,l),
(1532,701,l),
(1047,701,l),
(1047,702,l),
(728,702,l),
(735,691,o),
(734,675,o),
(723,654,cs),
(719,645,o),
(703,626,o),
(676,599,cs),
(252,189,ls),
(161,100,o),
(85,37,o),
(25,2,c)
);
},
{
closed = 1;
nodes = (
(792,457,l),
(800,276,l),
(587,257,l)
);
},
{
closed = 1;
nodes = (
(1137,750,l),
(1266,860,l),
(1368,948,l),
(1062,948,l),
(1055,926,l),
(1046,904,l),
(959,750,l),
(1137,750,l),
(1266,860,l),
(1368,948,l),
(1062,948,l),
(1055,926,l),
(1046,904,l),
(959,750,l),
(1137,750,l),
(1266,860,l),
(1368,948,l),
(1062,948,l),
(1055,926,l),
(1046,904,l),
(959,750,l)
);
}
);
};
layerId = m001;
shapes = (
{
ref = ae;
},
{
pos = (864,0);
ref = acutecomb;
}
);
width = 1570;
}
);
unicode = 509;
},
{
color = 10;
glyphname = b;
lastChange = "2025-11-13 14:46:18 +0000";
layers = (
{
background = {
shapes = (
{
closed = 1;
nodes = (
(623,0,ls),
(727,0,o),
(806,21,o),
(860,64,cs),
(929,119,o),
(946,230,o),
(889,298,cs),
(850,343,o),
(794,359,o),
(715,370,c),
(730,379,o),
(733,375,o),
(749,380,cs),
(798,393,o),
(835,414,o),
(858,444,cs),
(905,503,o),
(897,601,o),
(837,645,cs),
(786,685,o),
(723,695,o),
(635,699,c),
(331,700,l),
(25,700,l),
(57,680,o),
(76,643,o),
(75,606,cs),
(75,90,ls),
(75,54,o),
(56,19,o),
(25,0,c)
);
},
{
closed = 1;
nodes = (
(356,128,l),
(356,299,l),
(543,299,l),
(589,295,o),
(618,281,o),
(630,258,cs),
(649,225,o),
(643,174,o),
(612,149,cs),
(592,134,o),
(562,127,o),
(521,127,cs)
);
},
{
closed = 1;
nodes = (
(356,553,l),
(435,553,ls),
(477,553,o),
(509,552,o),
(532,551,cs),
(571,547,o),
(597,539,o),
(610,514,cs),
(625,486,o),
(619,437,o),
(591,420,cs),
(584,416,o),
(577,412,o),
(571,409,cs),
(559,404,o),
(535,402,o),
(524,402,cs),
(512,402,l),
(500,401,l),
(356,401,l)
);
}
);
};
layerId = m001;
shapes = (
{
ref = B;
}
);
width = 949;
}
);
unicode = 98;
},
{
color = 10;
glyphname = c;
lastChange = "2025-11-13 14:46:18 +0000";
layers = (
{
background = {
shapes = (
{
closed = 1;
nodes = (
(722,-14,o),
(808,-1,o),
(889,42,c),
(889,259,l),
(800,186,o),
(684,155,o),
(565,166,cs),
(490,172,o),
(434,192,o),
(399,227,cs),
(356,268,o),
(341,331,o),
(349,394,cs),
(356,441,o),
(387,482,o),
(431,506,cs),
(479,531,o),
(545,541,o),
(629,535,cs),
(716,528,o),
(799,496,o),
(877,440,c),
(877,666,l),
(772,705,o),
(652,723,o),
(517,718,cs),
(380,712,o),
(269,684,o),
(186,634,cs),
(111,590,o),
(55,519,o),
(36,436,cs),
(15,343,o),
(23,259,o),
(58,183,cs),
(92,111,o),
(154,57,o),
(243,22,cs),
(334,-13,o),
(452,-28,o),
(597,-23,cs)
);
}
);
};
layerId = m001;
shapes = (
{
ref = C;
}
);
width = 914;
}
);
unicode = 99;
},
{
color = 10;
glyphname = cacute;
lastChange = "2025-11-13 14:46:18 +0000";
layers = (
{
background = {
shapes = (
{
closed = 1;
nodes = (
(722,-14,o),
(808,-1,o),
(889,42,c),
(889,259,l),
(800,186,o),
(684,155,o),
(565,166,cs),
(490,172,o),
(434,192,o),
(399,227,cs),
(356,268,o),
(341,331,o),
(349,394,cs),
(356,441,o),
(387,482,o),
(431,506,cs),
(479,531,o),
(545,541,o),
(629,535,cs),
(716,528,o),
(799,496,o),
(877,440,c),
(877,666,l),
(772,705,o),
(652,723,o),
(517,718,cs),
(380,712,o),
(269,684,o),
(186,634,cs),
(111,590,o),
(55,519,o),
(36,436,cs),
(15,343,o),
(23,259,o),
(58,183,cs),
(92,111,o),
(154,57,o),
(243,22,cs),
(334,-13,o),
(452,-28,o),
(597,-23,cs)
);
},
{
closed = 1;
nodes = (
(530,751,l),
(593,802,o),
(736,926,o),
(761,949,c),
(455,949,l),
(448,927,l),
(440,904,l),
(352,751,l),
(530,751,l),
(593,802,o),
(736,926,o),
(761,949,c),
(455,949,l),
(448,927,l),
(440,904,l),
(352,751,l),
(530,751,l),
(593,802,o),
(736,926,o),
(761,949,c),
(455,949,l),
(448,927,l),
(440,904,l),
(352,751,l)
);
}
);
};
layerId = m001;
shapes = (
{
ref = c;
},
{
pos = (257,0);
ref = acutecomb;
}
);
width = 914;
}
);
unicode = 263;
},
{
color = 10;
glyphname = ccaron;
lastChange = "2025-11-13 14:46:18 +0000";
layers = (
{
background = {
shapes = (
{
closed = 1;
nodes = (
(722,-14,o),
(808,-1,o),
(889,42,c),
(889,259,l),
(800,186,o),
(684,155,o),
(565,166,cs),
(490,172,o),
(434,192,o),
(399,227,cs),
(356,268,o),
(341,331,o),
(349,394,cs),
(356,441,o),
(387,482,o),
(431,506,cs),
(479,531,o),
(545,541,o),
(629,535,cs),
(716,528,o),
(799,496,o),
(877,440,c),
(877,666,l),
(772,705,o),
(652,723,o),
(517,718,cs),
(380,712,o),
(269,684,o),
(186,634,cs),
(111,590,o),
(55,519,o),
(36,436,cs),
(15,343,o),
(23,259,o),
(58,183,cs),
(92,111,o),
(154,57,o),
(243,22,cs),
(334,-13,o),
(452,-28,o),
(597,-23,cs)
);
},
{
closed = 1;
nodes = (
(508,751,l),
(652,948,l),
(550,948,l),
(466,831,l),
(428,885,l),
(382,948,l),
(284,948,l),
(352,853,l),
(424,751,l),
(508,751,l),
(652,948,l),
(550,948,l),
(466,831,l),
(428,885,l),
(382,948,l),
(284,948,l),
(352,853,l),
(424,751,l),
(508,751,l),
(652,948,l),
(550,948,l),
(466,831,l),
(428,885,l),
(382,948,l),
(284,948,l),
(352,853,l),
(424,751,l)
);
}
);
};
layerId = m001;
shapes = (
{
ref = c;
},
{
pos = (286,0);
ref = caroncomb;
}
);
width = 914;
}
);
unicode = 269;
},
{
color = 10;
glyphname = ccedilla;
lastChange = "2025-11-13 14:46:18 +0000";
layers = (
{
background = {
shapes = (
{
closed = 1;
nodes = (
(626,-372,ls),
(705,-367,o),
(763,-345,o),
(798,-308,cs),
(821,-285,o),
(834,-255,o),
(836,-219,cs),
(837,-208,ls),
(838,-181,o),
(830,-153,o),
(813,-122,cs),
(799,-97,o),
(787,-79,o),
(778,-67,cs),
(764,-50,o),
(748,-31,o),
(729,-12,cs),
(713,3,o),
(706,11,o),
(707,11,cs),
(760,20,ls),
(803,27,o),
(846,42,o),
(889,65,c),
(889,282,l),
(800,209,o),
(684,178,o),
(565,189,cs),
(489,196,o),
(434,216,o),
(399,250,cs),
(356,291,o),
(341,354,o),
(349,417,cs),
(356,464,o),
(387,505,o),
(431,529,cs),
(479,554,o),
(545,564,o),
(629,558,cs),
(714,552,o),
(797,520,o),
(877,463,c),
(877,689,l),
(772,728,o),
(652,746,o),
(517,741,cs),
(382,736,o),
(271,708,o),
(186,657,cs),
(111,613,o),
(55,542,o),
(36,459,cs),
(15,366,o),
(23,282,o),
(58,206,cs),
(92,134,o),
(154,80,o),
(243,45,cs),
(308,19,o),
(389,4,o),
(488,0,c),
(498,-12,o),
(507,-22,o),
(516,-30,cs),
(534,-48,o),
(553,-72,o),
(574,-102,cs),
(584,-117,o),
(590,-129,o),
(592,-139,c),
(592,-142,o),
(592,-146,o),
(593,-149,c),
(593,-158,o),
(590,-168,o),
(584,-181,cs),
(573,-205,o),
(547,-217,o),
(505,-217,cs),
(442,-217,o),
(384,-193,o),
(331,-144,c),
(331,-308,l),
(402,-352,o),
(485,-374,o),
(580,-374,cs)
);
}
);
};
layerId = m001;
shapes = (
{
ref = c;
},
{
pos = (239,0);
ref = cedillacomb;
}
);
width = 914;
}
);
unicode = 231;
},
{
color = 10;
glyphname = ccircumflex;
lastChange = "2025-11-13 14:46:18 +0000";
layers = (
{
background = {
shapes = (
{
closed = 1;
nodes = (
(722,-14,o),
(808,-1,o),
(889,42,c),
(889,259,l),
(800,186,o),
(684,155,o),
(565,166,cs),
(490,172,o),
(434,192,o),
(399,227,cs),
(356,268,o),
(341,331,o),
(349,394,cs),
(356,441,o),
(387,482,o),
(431,506,cs),
(479,531,o),
(545,541,o),
(629,535,cs),
(716,528,o),
(799,496,o),
(877,440,c),
(877,666,l),
(772,705,o),
(652,723,o),
(517,718,cs),
(380,712,o),
(269,684,o),
(186,634,cs),
(111,590,o),
(55,519,o),
(36,436,cs),
(15,343,o),
(23,259,o),
(58,183,cs),
(92,111,o),
(154,57,o),
(243,22,cs),
(334,-13,o),
(452,-28,o),
(597,-23,cs)
);
},
{
closed = 1;
nodes = (
(394,751,l),
(440,814,l),
(478,867,l),
(521,808,l),
(562,751,l),
(664,751,l),
(520,948,l),
(436,948,l),
(364,846,l),
(296,751,l),
(394,751,l),
(440,814,l),
(478,867,l),
(521,808,l),
(562,751,l),
(664,751,l),
(520,948,l),
(436,948,l),
(364,846,l),
(296,751,l),
(394,751,l),
(440,814,l),
(478,867,l),
(521,808,l),
(562,751,l),
(664,751,l),
(520,948,l),
(436,948,l),
(364,846,l),
(296,751,l)
);
}
);
};
layerId = m001;
shapes = (
{
ref = c;
},
{
pos = (286,0);
ref = circumflexcomb;
}
);
width = 914;
}
);
unicode = 265;
},
{
color = 10;
glyphname = cdotaccent;
lastChange = "2025-11-13 14:46:18 +0000";
layers = (
{
background = {
shapes = (
{
closed = 1;
nodes = (
(722,-14,o),
(808,-1,o),
(889,42,c),
(889,259,l),
(800,186,o),
(684,155,o),
(565,166,cs),
(490,172,o),
(434,192,o),
(399,227,cs),
(356,268,o),
(341,331,o),
(349,394,cs),
(356,441,o),
(387,482,o),
(431,506,cs),
(479,531,o),
(545,541,o),
(629,535,cs),
(716,528,o),
(799,496,o),
(877,440,c),
(877,666,l),
(772,705,o),
(652,723,o),
(517,718,cs),
(380,712,o),
(269,684,o),
(186,634,cs),
(111,590,o),
(55,519,o),
(36,436,cs),
(15,343,o),
(23,259,o),
(58,183,cs),
(92,111,o),
(154,57,o),
(243,22,cs),
(334,-13,o),
(452,-28,o),
(597,-23,cs)
);
},
{
closed = 1;
nodes = (
(516,750,o),
(567,790,o),
(567,849,cs),
(567,908,o),
(526,949,o),
(454,949,cs),
(374,949,o),
(340,898,o),
(340,849,cs),
(340,788,o),
(387,750,o),
(454,750,cs)
);
}
);
};
layerId = m001;
shapes = (
{
ref = c;
},
{
pos = (357,0);
ref = dotaccentcomb;
}
);
width = 914;
}
);
unicode = 267;
},
{
color = 10;
glyphname = d;
lastChange = "2025-11-13 14:46:18 +0000";
layers = (
{
background = {
shapes = (
{
closed = 1;
nodes = (
(414,0,ls),
(533,-1,o),
(626,8,o),
(693,29,cs),
(784,55,o),
(852,101,o),
(896,166,cs),
(952,244,o),
(968,341,o),
(945,456,cs),
(930,528,o),
(884,592,o),
(820,629,cs),
(747,671,o),
(647,694,o),
(518,698,cs),
(481,699,o),
(399,700,o),
(272,700,cs),
(25,699,l),
(56,680,o),
(75,642,o),
(75,605,cs),
(75,90,ls),
(75,54,o),
(56,19,o),
(25,0,c)
);
},
{
closed = 1;
nodes = (
(358,347,l),
(357,552,l),
(429,552,o),
(479,556,o),
(527,548,cs),
(575,540,o),
(620,516,o),
(641,477,cs),
(663,438,o),
(671,382,o),
(664,308,cs),
(658,249,o),
(639,206,o),
(606,180,cs),
(578,155,o),
(539,142,o),
(489,141,cs),
(358,141,l)
);
}
);
};
layerId = m001;
shapes = (
{
ref = D;
}
);
width = 980;
}
);
unicode = 100;
},
{
color = 10;
glyphname = dcaron;
lastChange = "2025-11-13 14:46:18 +0000";
layers = (
{
background = {
shapes = (
{
closed = 1;
nodes = (
(414,0,ls),
(533,-1,o),
(626,8,o),
(693,29,cs),
(784,55,o),
(852,101,o),
(896,166,cs),
(952,244,o),
(968,341,o),
(945,456,cs),
(930,528,o),
(884,592,o),
(820,629,cs),
(747,671,o),
(647,694,o),
(518,698,cs),
(481,699,o),
(399,700,o),
(272,700,cs),
(25,699,l),
(56,680,o),
(75,642,o),
(75,605,cs),
(75,90,ls),
(75,54,o),
(56,19,o),
(25,0,c)
);
},
{
closed = 1;
nodes = (
(358,347,l),
(357,552,l),
(429,552,o),
(479,556,o),
(527,548,cs),
(575,540,o),
(620,516,o),
(641,477,cs),
(663,438,o),
(671,382,o),
(664,308,cs),
(658,249,o),
(639,206,o),
(606,180,cs),
(578,155,o),
(539,142,o),
(489,141,cs),
(358,141,l)
);
},
{
closed = 1;
nodes = (
(1014,540,o),
(1033,630,o),
(1040,658,cs),
(1042,667,o),
(1043,680,o),
(1043,699,c),
(1182,699,l),
(1142,617,o),
(1110,550,o),
(1087,499,c),
(1006,499,l)
);
},
{
closed = 1;
nodes = (
(1014,540,o),
(1033,630,o),
(1040,658,cs),
(1042,667,o),
(1043,680,o),
(1043,699,c),
(1182,699,l),
(1142,617,o),
(1110,550,o),
(1087,499,c),
(1006,499,l)
);
},
{
closed = 1;
nodes = (
(1087,499,l),
(1110,550,o),
(1142,617,o),
(1182,699,c),
(1043,699,l),
(1043,680,o),
(1042,667,o),
(1040,658,cs),
(1033,630,o),
(1014,540,o),
(1006,499,c)
);
}
);
};
layerId = m001;
shapes = (
{
ref = Dcaron;
}
);
width = 980;
}
);
unicode = 271;
},
{
color = 10;
glyphname = dcroat;
lastChange = "2025-11-13 14:46:18 +0000";
layers = (
{
background = {
shapes = (
{
closed = 1;
nodes = (
(486,0,ls),
(605,-1,o),
(698,8,o),
(765,29,cs),
(856,55,o),
(924,101,o),
(968,166,cs),
(1024,244,o),
(1040,341,o),
(1017,456,cs),
(1002,528,o),
(956,592,o),
(892,629,cs),
(819,671,o),
(719,694,o),
(590,698,cs),
(553,699,o),
(471,700,o),
(344,700,cs),
(97,699,l),
(128,680,o),
(147,642,o),
(147,605,cs),
(147,90,ls),
(147,54,o),
(128,19,o),
(97,0,c)
);
},
{
closed = 1;
nodes = (
(555,253,l),
(555,440,l),
(25,440,l),
(25,253,l),
(555,253,l),
(555,440,l),
(25,440,l),
(25,253,l),
(555,253,l),
(555,440,l),
(25,440,l),
(25,253,l)
);
},
{
closed = 1;
nodes = (
(430,347,l),
(429,552,l),
(501,552,o),
(551,556,o),
(599,548,cs),
(647,540,o),
(692,516,o),
(713,477,cs),
(735,438,o),
(743,382,o),
(736,308,cs),
(730,249,o),
(711,206,o),
(678,180,cs),
(650,155,o),
(611,142,o),
(561,141,cs),
(430,141,l)
);
}
);
};
layerId = m001;
shapes = (
{
ref = Dcroat;
}
);
width = 1052;
}
);
unicode = 273;
},
{
color = 10;
glyphname = eth;
lastChange = "2025-11-13 14:46:18 +0000";
layers = (
{
background = {
shapes = (
{
closed = 1;
nodes = (
(486,0,ls),
(605,-1,o),
(698,8,o),
(765,29,cs),
(856,55,o),
(924,101,o),
(968,166,cs),
(1024,244,o),
(1040,341,o),
(1017,456,cs),
(1002,528,o),
(956,592,o),
(892,629,cs),
(819,671,o),
(719,694,o),
(590,698,cs),
(553,699,o),
(471,700,o),
(344,700,cs),
(97,699,l),
(128,680,o),
(147,642,o),
(147,605,cs),
(147,90,ls),
(147,54,o),
(128,19,o),
(97,0,c)
);
},
{
closed = 1;
nodes = (
(555,253,l),
(555,440,l),
(25,440,l),
(25,253,l),
(555,253,l),
(555,440,l),
(25,440,l),
(25,253,l),
(555,253,l),
(555,440,l),
(25,440,l),
(25,253,l)
);
},
{
closed = 1;
nodes = (
(430,347,l),
(429,552,l),
(501,552,o),
(551,556,o),
(599,548,cs),
(647,540,o),
(692,516,o),
(713,477,cs),
(735,438,o),
(743,382,o),
(736,308,cs),
(730,249,o),
(711,206,o),
(678,180,cs),
(650,155,o),
(611,142,o),
(561,141,cs),
(430,141,l)
);
}
);
};
layerId = m001;
shapes = (
{
ref = Eth;
}
);
width = 1052;
}
);
unicode = 240;
},
{
color = 10;
glyphname = e;
lastChange = "2025-11-13 14:46:18 +0000";
layers = (
{
background = {
shapes = (
{
closed = 1;
nodes = (
(814,0,l),
(814,230,l),
(803,205,o),
(782,187,o),
(751,174,cs),
(740,170,o),
(716,168,o),
(681,168,cs),
(520,168,l),
(358,167,l),
(358,282,l),
(722,282,l),
(722,431,l),
(358,431,l),
(358,532,l),
(707,532,ls),
(748,532,o),
(780,518,o),
(802,490,c),
(802,595,l),
(801,700,l),
(25,701,l),
(57,681,o),
(76,643,o),
(75,606,cs),
(75,91,ls),
(75,51,o),
(58,21,o),
(25,0,c)
);
}
);
};
layerId = m001;
shapes = (
{
ref = E;
}
);
width = 839;
}
);
unicode = 101;
},
{
color = 10;
glyphname = eacute;
lastChange = "2025-11-13 14:46:18 +0000";
layers = (
{
background = {
shapes = (
{
closed = 1;
nodes = (
(814,0,l),
(814,230,l),
(803,205,o),
(782,187,o),
(751,174,cs),
(740,170,o),
(716,168,o),
(681,168,cs),
(520,168,l),
(358,167,l),
(358,282,l),
(722,282,l),
(722,431,l),
(358,431,l),
(358,532,l),
(707,532,ls),
(748,532,o),
(780,518,o),
(802,490,c),
(802,595,l),
(801,700,l),
(25,701,l),
(57,681,o),
(76,643,o),
(75,606,cs),
(75,91,ls),
(75,51,o),
(58,21,o),
(25,0,c)
);
},
{
closed = 1;
nodes = (
(455,750,l),
(486,775,o),
(529,812,o),
(584,860,cs),
(686,948,l),
(380,948,l),
(377,937,o),
(369,915,o),
(365,904,c),
(277,750,l),
(455,750,l),
(486,775,o),
(529,812,o),
(584,860,cs),
(686,948,l),
(380,948,l),
(377,937,o),
(369,915,o),
(365,904,c),
(277,750,l),
(455,750,l),
(486,775,o),
(529,812,o),
(584,860,cs),
(686,948,l),
(380,948,l),
(377,937,o),
(369,915,o),
(365,904,c),
(277,750,l)
);
}
);
};
layerId = m001;
shapes = (
{
ref = e;
},
{
pos = (182,0);
ref = acutecomb;
}
);
width = 839;
}
);
unicode = 233;
},
{
color = 10;
glyphname = ebreve;
lastChange = "2025-11-13 14:46:18 +0000";
layers = (
{
background = {
shapes = (
{
closed = 1;
nodes = (
(814,0,l),
(814,230,l),
(803,205,o),
(782,187,o),
(751,174,cs),
(740,170,o),
(716,168,o),
(681,168,cs),
(520,168,l),
(358,167,l),
(358,282,l),
(722,282,l),
(722,431,l),
(358,431,l),
(358,532,l),
(707,532,ls),
(748,532,o),
(780,518,o),
(802,490,c),
(802,595,l),
(801,700,l),
(25,701,l),
(57,681,o),
(76,643,o),
(75,606,cs),
(75,91,ls),
(75,51,o),
(58,21,o),
(25,0,c)
);
},
{
closed = 1;
nodes = (
(494,751,o),
(549,769,o),
(588,806,cs),
(627,843,o),
(647,890,o),
(647,948,cs),
(647,949,l),
(498,949,l),
(499,912,o),
(470,886,o),
(422,886,cs),
(371,886,o),
(347,913,o),
(346,949,c),
(197,949,l),
(198,949,o),
(198,949,o),
(197,948,c),
(198,891,o),
(217,843,o),
(256,807,cs),
(275,790,o),
(298,776,o),
(326,766,cs),
(353,756,o),
(385,751,o),
(422,751,cs)
);
}
);
};
layerId = m001;
shapes = (
{
ref = e;
},
{
pos = (170,0);
ref = brevecomb;
}
);
width = 839;
}
);
unicode = 277;
},
{
color = 10;
glyphname = ecaron;
lastChange = "2025-11-13 14:46:18 +0000";
layers = (
{
background = {
shapes = (
{
closed = 1;
nodes = (
(814,0,l),
(814,230,l),
(803,205,o),
(782,187,o),
(751,174,cs),
(740,170,o),
(716,168,o),
(681,168,cs),
(520,168,l),
(358,167,l),
(358,282,l),
(722,282,l),
(722,431,l),
(358,431,l),
(358,532,l),
(707,532,ls),
(748,532,o),
(780,518,o),
(802,490,c),
(802,595,l),
(801,700,l),
(25,701,l),
(57,681,o),
(76,643,o),
(75,606,cs),
(75,91,ls),
(75,51,o),
(58,21,o),
(25,0,c)
);
},
{
closed = 1;
nodes = (
(462,750,l),
(605,947,l),
(504,947,l),
(420,830,l),
(381,884,l),
(335,947,l),
(238,947,l),
(378,750,l),
(462,750,l),
(605,947,l),
(504,947,l),
(420,830,l),
(381,884,l),
(335,947,l),
(238,947,l),
(378,750,l),
(462,750,l),
(605,947,l),
(504,947,l),
(420,830,l),
(381,884,l),
(335,947,l),
(238,947,l),
(378,750,l)
);
}
);
};
layerId = m001;
shapes = (
{
ref = e;
},
{
pos = (211,0);
ref = caroncomb;
}
);
width = 839;
}
);
unicode = 283;
},
{
color = 10;
glyphname = ecircumflex;
lastChange = "2025-11-13 14:46:18 +0000";
layers = (
{
background = {
shapes = (
{
closed = 1;
nodes = (
(814,0,l),
(814,230,l),
(803,205,o),
(782,187,o),
(751,174,cs),
(740,170,o),
(716,168,o),
(681,168,cs),
(520,168,l),
(358,167,l),
(358,282,l),
(722,282,l),
(722,431,l),
(358,431,l),
(358,532,l),
(707,532,ls),
(748,532,o),
(780,518,o),
(802,490,c),
(802,595,l),
(801,700,l),
(25,701,l),
(57,681,o),
(76,643,o),
(75,606,cs),
(75,91,ls),
(75,51,o),
(58,21,o),
(25,0,c)
);
},
{
closed = 1;
nodes = (
(334,751,l),
(380,814,l),
(418,867,l),
(461,808,l),
(502,751,l),
(604,751,l),
(460,948,l),
(376,948,l),
(304,846,l),
(236,751,l),
(334,751,l),
(380,814,l),
(418,867,l),
(461,808,l),
(502,751,l),
(604,751,l),
(460,948,l),
(376,948,l),
(304,846,l),
(236,751,l),
(334,751,l),
(380,814,l),
(418,867,l),
(461,808,l),
(502,751,l),
(604,751,l),
(460,948,l),
(376,948,l),
(304,846,l),
(236,751,l)
);
}
);
};
layerId = m001;
shapes = (
{
ref = e;
},
{
pos = (211,0);
ref = circumflexcomb;
}
);
width = 839;
}
);
unicode = 234;
},
{
color = 10;
glyphname = edieresis;
lastChange = "2025-11-13 14:46:18 +0000";
layers = (
{
background = {
shapes = (
{
closed = 1;
nodes = (
(814,0,l),
(814,230,l),
(803,205,o),
(782,187,o),
(751,174,cs),
(740,170,o),
(716,168,o),
(681,168,cs),
(520,168,l),
(358,167,l),
(358,282,l),
(722,282,l),
(722,431,l),
(358,431,l),
(358,532,l),
(707,532,ls),
(748,532,o),
(780,518,o),
(802,490,c),
(802,595,l),
(801,700,l),
(25,701,l),
(57,681,o),
(76,643,o),
(75,606,cs),
(75,91,ls),
(75,51,o),
(58,21,o),
(25,0,c)
);
},
{
closed = 1;
nodes = (
(351,751,o),
(402,790,o),
(402,851,cs),
(402,910,o),
(360,951,o),
(288,951,cs),
(215,951,o),
(174,909,o),
(174,851,cs),
(174,788,o),
(221,751,o),
(288,751,cs)
);
},
{
closed = 1;
nodes = (
(616,751,o),
(667,790,o),
(667,851,cs),
(667,910,o),
(626,951,o),
(553,951,cs),
(480,951,o),
(439,909,o),
(439,851,cs),
(439,788,o),
(486,751,o),
(553,751,cs)
);
}
);
};
layerId = m001;
shapes = (
{
ref = e;
},
{
pos = (148,0);
ref = dieresiscomb;
}
);
width = 839;
}
);
unicode = 235;
},
{
color = 10;
glyphname = edotaccent;
lastChange = "2025-11-13 14:46:18 +0000";
layers = (
{
background = {
shapes = (
{
closed = 1;
nodes = (
(814,0,l),
(814,230,l),
(803,205,o),
(782,187,o),
(751,174,cs),
(740,170,o),
(716,168,o),
(681,168,cs),
(520,168,l),
(358,167,l),
(358,282,l),
(722,282,l),
(722,431,l),
(358,431,l),
(358,532,l),
(707,532,ls),
(748,532,o),
(780,518,o),
(802,490,c),
(802,595,l),
(801,700,l),
(25,701,l),
(57,681,o),
(76,643,o),
(75,606,cs),
(75,91,ls),
(75,51,o),
(58,21,o),
(25,0,c)
);
},
{
closed = 1;
nodes = (
(483,750,o),
(534,790,o),
(534,849,cs),
(534,908,o),
(492,949,o),
(420,949,cs),
(349,949,o),
(307,907,o),
(307,849,cs),
(307,788,o),
(355,750,o),
(420,750,cs)
);
}
);
};
layerId = m001;
shapes = (
{
ref = e;
},
{
pos = (282,0);
ref = dotaccentcomb;
}
);
width = 839;
}
);
unicode = 279;
},
{
color = 10;
glyphname = egrave;
lastChange = "2025-11-13 14:46:18 +0000";
layers = (
{
background = {
shapes = (
{
closed = 1;
nodes = (
(814,-11,l),
(814,221,l),
(803,196,o),
(782,177,o),
(751,164,cs),
(740,160,o),
(716,158,o),
(681,158,cs),
(520,158,l),
(358,157,l),
(358,274,l),
(722,274,l),
(722,424,l),
(358,424,l),
(358,526,l),
(707,526,ls),
(748,526,o),
(780,512,o),
(802,484,c),
(802,590,l),
(801,696,l),
(25,697,l),
(57,677,o),
(76,638,o),
(75,601,cs),
(75,81,ls),
(75,40,o),
(58,10,o),
(25,-11,c)
);
},
{
closed = 1;
nodes = (
(567,750,l),
(480,904,l),
(472,926,l),
(464,948,l),
(158,948,l),
(261,860,l),
(389,750,l),
(567,750,l),
(480,904,l),
(472,926,l),
(464,948,l),
(158,948,l),
(261,860,l),
(389,750,l),
(567,750,l),
(480,904,l),
(472,926,l),
(464,948,l),
(158,948,l),
(261,860,l),
(389,750,l)
);
}
);
};
layerId = m001;
shapes = (
{
ref = e;
},
{
pos = (108,0);
ref = gravecomb;
}
);
width = 839;
}
);
unicode = 232;
},
{
color = 10;
glyphname = emacron;
lastChange = "2025-11-13 14:46:18 +0000";
layers = (
{
background = {
shapes = (
{
closed = 1;
nodes = (
(814,0,l),
(814,230,l),
(803,205,o),
(782,187,o),
(751,174,cs),
(740,170,o),
(716,168,o),
(681,168,cs),
(520,168,l),
(358,167,l),
(358,282,l),
(722,282,l),
(722,431,l),
(358,431,l),
(358,532,l),
(707,532,ls),
(748,532,o),
(780,518,o),
(802,490,c),
(802,595,l),
(801,700,l),
(25,701,l),
(57,681,o),
(76,643,o),
(75,606,cs),
(75,91,ls),
(75,51,o),
(58,21,o),
(25,0,c)
);
},
{
closed = 1;
nodes = (
(688,751,l),
(688,931,l),
(153,931,l),
(153,751,l)
);
}
);
};
layerId = m001;
shapes = (
{
ref = e;
},
{
pos = (223,0);
ref = macroncomb;
}
);
width = 839;
}
);
unicode = 275;
},
{
color = 10;
glyphname = eogonek;
lastChange = "2025-11-13 14:46:18 +0000";
layers = (
{
background = {
shapes = (
{
closed = 1;
nodes = (
(636,-343,o),
(702,-325,o),
(759,-290,c),
(759,-159,l),
(716,-198,o),
(670,-217,o),
(619,-217,cs),
(585,-217,o),
(564,-207,o),
(556,-188,cs),
(552,-179,o),
(550,-171,o),
(550,-163,cs),
(550,-155,l),
(552,-144,o),
(557,-134,o),
(564,-125,cs),
(573,-111,o),
(588,-92,o),
(611,-68,cs),
(634,-44,o),
(649,-25,o),
(658,-10,c),
(662,0,l),
(814,0,l),
(814,230,l),
(803,205,o),
(782,187,o),
(751,174,cs),
(740,170,o),
(716,168,o),
(681,168,cs),
(520,168,l),
(358,167,l),
(358,282,l),
(722,282,l),
(722,431,l),
(358,431,l),
(358,532,l),
(707,532,ls),
(748,532,o),
(780,518,o),
(802,490,c),
(802,595,l),
(801,700,l),
(25,701,l),
(57,681,o),
(76,643,o),
(75,606,cs),
(75,91,ls),
(75,51,o),
(58,21,o),
(25,0,c),
(484,0,l),
(475,-14,l),
(447,-49,o),
(397,-90,o),
(373,-141,c),
(360,-162,o),
(354,-185,o),
(354,-210,cs),
(355,-219,ls),
(356,-248,o),
(366,-271,o),
(385,-290,cs),
(410,-318,o),
(456,-335,o),
(523,-341,cs),
(535,-342,o),
(547,-343,o),
(559,-343,cs)
);
}
);
};
layerId = m001;
shapes = (
{
ref = e;
},
{
pos = (519,10);
ref = ogonekcomb;
}
);
width = 839;
}
);
unicode = 281;
},
{
color = 10;
glyphname = f;
lastChange = "2025-11-13 14:46:18 +0000";
layers = (
{
background = {
shapes = (
{
closed = 1;
nodes = (
(153,1,o),
(281,1,o),
(409,0,c),
(376,21,o),
(359,51,o),
(359,91,cs),
(359,259,l),
(689,259,l),
(689,408,l),
(359,408,l),
(359,532,l),
(674,532,ls),
(718,531,o),
(749,516,o),
(768,489,c),
(768,700,l),
(397,700,l),
(25,701,l),
(58,682,o),
(77,646,o),
(76,606,cs),
(76,95,ls),
(77,58,o),
(57,19,o),
(25,0,c)
);
}
);
};
layerId = m001;
shapes = (
{
ref = F;
}
);
width = 793;
}
);
unicode = 102;
},
{
color = 10;
glyphname = g;
lastChange = "2025-11-13 14:46:18 +0000";
layers = (
{
background = {
shapes = (
{
closed = 1;
nodes = (
(614,-23,o),
(695,-13,o),
(792,8,cs),
(858,22,ls),
(893,29,o),
(923,33,o),
(954,33,c),
(949,38,o),
(945,43,o),
(942,50,cs),
(938,59,ls),
(937,61,o),
(936,64,o),
(935,69,cs),
(933,82,o),
(932,91,o),
(932,97,cs),
(932,108,l),
(931,117,l),
(931,266,l),
(933,296,ls),
(934,311,o),
(941,334,o),
(954,349,c),
(644,349,l),
(668,334,o),
(681,307,o),
(682,266,cs),
(682,149,l),
(653,143,o),
(617,141,o),
(576,142,cs),
(503,145,o),
(434,175,o),
(391,230,cs),
(359,271,o),
(345,318,o),
(349,373,cs),
(352,423,o),
(369,461,o),
(400,487,cs),
(432,516,o),
(478,532,o),
(538,537,cs),
(608,540,o),
(673,533,o),
(732,514,cs),
(780,499,o),
(828,474,o),
(877,440,c),
(877,665,l),
(834,683,o),
(782,696,o),
(720,705,cs),
(622,719,o),
(530,722,o),
(443,713,cs),
(316,700,o),
(216,664,o),
(143,603,cs),
(80,554,o),
(40,477,o),
(29,394,cs),
(15,285,o),
(35,196,o),
(89,126,cs),
(138,63,o),
(215,20,o),
(320,-3,cs),
(389,-18,o),
(465,-24,o),
(549,-23,cs)
);
}
);
};
layerId = m001;
shapes = (
{
ref = G;
}
);
width = 979;
}
);
unicode = 103;
},
